G04 #@! TF.GenerationSoftware,KiCad,Pcbnew,5.0.2-bee76a0~70~ubuntu18.04.1*
G04 #@! TF.CreationDate,2019-01-23T21:03:19+01:00*
G04 #@! TF.ProjectId,ESP32-Wrover-kit-debug-breakout,45535033-322d-4577-926f-7665722d6b69,rev?*
G04 #@! TF.SameCoordinates,Original*
G04 #@! TF.FileFunction,Legend,Top*
G04 #@! TF.FilePolarity,Positive*
%FSLAX46Y46*%
G04 Gerber Fmt 4.6, Leading zero omitted, Abs format (unit mm)*
G04 Created by KiCad (PCBNEW 5.0.2-bee76a0~70~ubuntu18.04.1) date ons 23 jan 2019 21:03:19*
%MOMM*%
%LPD*%
G01*
G04 APERTURE LIST*
%ADD10C,0.300000*%
%ADD11C,0.120000*%
%ADD12C,0.150000*%
G04 APERTURE END LIST*
D10*
X129447960Y-61619155D02*
X129376531Y-61762012D01*
X129376531Y-61976298D01*
X129447960Y-62190583D01*
X129590817Y-62333440D01*
X129733674Y-62404869D01*
X130019388Y-62476298D01*
X130233674Y-62476298D01*
X130519388Y-62404869D01*
X130662245Y-62333440D01*
X130805102Y-62190583D01*
X130876531Y-61976298D01*
X130876531Y-61833440D01*
X130805102Y-61619155D01*
X130733674Y-61547726D01*
X130233674Y-61547726D01*
X130233674Y-61833440D01*
X130876531Y-60904869D02*
X129376531Y-60904869D01*
X130876531Y-60047726D01*
X129376531Y-60047726D01*
X130876531Y-59333440D02*
X129376531Y-59333440D01*
X129376531Y-58976298D01*
X129447960Y-58762012D01*
X129590817Y-58619155D01*
X129733674Y-58547726D01*
X130019388Y-58476298D01*
X130233674Y-58476298D01*
X130519388Y-58547726D01*
X130662245Y-58619155D01*
X130805102Y-58762012D01*
X130876531Y-58976298D01*
X130876531Y-59333440D01*
X127843842Y-64547726D02*
X127843842Y-63404868D01*
X128415271Y-63976297D02*
X127272414Y-63976297D01*
X126915271Y-62833440D02*
X126915271Y-61904868D01*
X127486700Y-62404868D01*
X127486700Y-62190583D01*
X127558128Y-62047726D01*
X127629557Y-61976297D01*
X127772414Y-61904868D01*
X128129557Y-61904868D01*
X128272414Y-61976297D01*
X128343842Y-62047726D01*
X128415271Y-62190583D01*
X128415271Y-62619154D01*
X128343842Y-62762011D01*
X128272414Y-62833440D01*
X128272414Y-61262011D02*
X128343842Y-61190583D01*
X128415271Y-61262011D01*
X128343842Y-61333440D01*
X128272414Y-61262011D01*
X128415271Y-61262011D01*
X126915271Y-60690583D02*
X126915271Y-59762011D01*
X127486700Y-60262011D01*
X127486700Y-60047726D01*
X127558128Y-59904868D01*
X127629557Y-59833440D01*
X127772414Y-59762011D01*
X128129557Y-59762011D01*
X128272414Y-59833440D01*
X128343842Y-59904868D01*
X128415271Y-60047726D01*
X128415271Y-60476297D01*
X128343842Y-60619154D01*
X128272414Y-60690583D01*
X126915271Y-59333440D02*
X128415271Y-58833440D01*
X126915271Y-58333440D01*
X124893977Y-60762011D02*
X124893977Y-60262011D01*
X125679691Y-60047726D02*
X125679691Y-60762011D01*
X124179691Y-60762011D01*
X124179691Y-60047726D01*
X125679691Y-59404869D02*
X124179691Y-59404869D01*
X125679691Y-58547726D01*
X124179691Y-58547726D01*
X121749220Y-66333440D02*
X121677791Y-66476297D01*
X121677791Y-66690582D01*
X121749220Y-66904868D01*
X121892077Y-67047725D01*
X122034934Y-67119154D01*
X122320648Y-67190582D01*
X122534934Y-67190582D01*
X122820648Y-67119154D01*
X122963505Y-67047725D01*
X123106362Y-66904868D01*
X123177791Y-66690582D01*
X123177791Y-66547725D01*
X123106362Y-66333440D01*
X123034934Y-66262011D01*
X122534934Y-66262011D01*
X122534934Y-66547725D01*
X123177791Y-65619154D02*
X121677791Y-65619154D01*
X121677791Y-65047725D01*
X121749220Y-64904868D01*
X121820648Y-64833440D01*
X121963505Y-64762011D01*
X122177791Y-64762011D01*
X122320648Y-64833440D01*
X122392077Y-64904868D01*
X122463505Y-65047725D01*
X122463505Y-65619154D01*
X123177791Y-64119154D02*
X121677791Y-64119154D01*
X121677791Y-63119154D02*
X121677791Y-62833440D01*
X121749220Y-62690582D01*
X121892077Y-62547725D01*
X122177791Y-62476297D01*
X122677791Y-62476297D01*
X122963505Y-62547725D01*
X123106362Y-62690582D01*
X123177791Y-62833440D01*
X123177791Y-63119154D01*
X123106362Y-63262011D01*
X122963505Y-63404868D01*
X122677791Y-63476297D01*
X122177791Y-63476297D01*
X121892077Y-63404868D01*
X121749220Y-63262011D01*
X121677791Y-63119154D01*
X121677791Y-60833440D02*
X121677791Y-59904868D01*
X122249220Y-60404868D01*
X122249220Y-60190582D01*
X122320648Y-60047725D01*
X122392077Y-59976297D01*
X122534934Y-59904868D01*
X122892077Y-59904868D01*
X123034934Y-59976297D01*
X123106362Y-60047725D01*
X123177791Y-60190582D01*
X123177791Y-60619154D01*
X123106362Y-60762011D01*
X123034934Y-60833440D01*
X123177791Y-59190582D02*
X123177791Y-58904868D01*
X123106362Y-58762011D01*
X123034934Y-58690582D01*
X122820648Y-58547725D01*
X122534934Y-58476297D01*
X121963505Y-58476297D01*
X121820648Y-58547725D01*
X121749220Y-58619154D01*
X121677791Y-58762011D01*
X121677791Y-59047725D01*
X121749220Y-59190582D01*
X121820648Y-59262011D01*
X121963505Y-59333440D01*
X122320648Y-59333440D01*
X122463505Y-59262011D01*
X122534934Y-59190582D01*
X122606362Y-59047725D01*
X122606362Y-58762011D01*
X122534934Y-58619154D01*
X122463505Y-58547725D01*
X122320648Y-58476297D01*
X119211760Y-66333440D02*
X119140331Y-66476297D01*
X119140331Y-66690582D01*
X119211760Y-66904868D01*
X119354617Y-67047725D01*
X119497474Y-67119154D01*
X119783188Y-67190582D01*
X119997474Y-67190582D01*
X120283188Y-67119154D01*
X120426045Y-67047725D01*
X120568902Y-66904868D01*
X120640331Y-66690582D01*
X120640331Y-66547725D01*
X120568902Y-66333440D01*
X120497474Y-66262011D01*
X119997474Y-66262011D01*
X119997474Y-66547725D01*
X120640331Y-65619154D02*
X119140331Y-65619154D01*
X119140331Y-65047725D01*
X119211760Y-64904868D01*
X119283188Y-64833440D01*
X119426045Y-64762011D01*
X119640331Y-64762011D01*
X119783188Y-64833440D01*
X119854617Y-64904868D01*
X119926045Y-65047725D01*
X119926045Y-65619154D01*
X120640331Y-64119154D02*
X119140331Y-64119154D01*
X119140331Y-63119154D02*
X119140331Y-62833440D01*
X119211760Y-62690582D01*
X119354617Y-62547725D01*
X119640331Y-62476297D01*
X120140331Y-62476297D01*
X120426045Y-62547725D01*
X120568902Y-62690582D01*
X120640331Y-62833440D01*
X120640331Y-63119154D01*
X120568902Y-63262011D01*
X120426045Y-63404868D01*
X120140331Y-63476297D01*
X119640331Y-63476297D01*
X119354617Y-63404868D01*
X119211760Y-63262011D01*
X119140331Y-63119154D01*
X119140331Y-60833440D02*
X119140331Y-59904868D01*
X119711760Y-60404868D01*
X119711760Y-60190582D01*
X119783188Y-60047725D01*
X119854617Y-59976297D01*
X119997474Y-59904868D01*
X120354617Y-59904868D01*
X120497474Y-59976297D01*
X120568902Y-60047725D01*
X120640331Y-60190582D01*
X120640331Y-60619154D01*
X120568902Y-60762011D01*
X120497474Y-60833440D01*
X119140331Y-58619154D02*
X119140331Y-58904868D01*
X119211760Y-59047725D01*
X119283188Y-59119154D01*
X119497474Y-59262011D01*
X119783188Y-59333440D01*
X120354617Y-59333440D01*
X120497474Y-59262011D01*
X120568902Y-59190582D01*
X120640331Y-59047725D01*
X120640331Y-58762011D01*
X120568902Y-58619154D01*
X120497474Y-58547725D01*
X120354617Y-58476297D01*
X119997474Y-58476297D01*
X119854617Y-58547725D01*
X119783188Y-58619154D01*
X119711760Y-58762011D01*
X119711760Y-59047725D01*
X119783188Y-59190582D01*
X119854617Y-59262011D01*
X119997474Y-59333440D01*
X116730180Y-66333440D02*
X116658751Y-66476297D01*
X116658751Y-66690582D01*
X116730180Y-66904868D01*
X116873037Y-67047725D01*
X117015894Y-67119154D01*
X117301608Y-67190582D01*
X117515894Y-67190582D01*
X117801608Y-67119154D01*
X117944465Y-67047725D01*
X118087322Y-66904868D01*
X118158751Y-66690582D01*
X118158751Y-66547725D01*
X118087322Y-66333440D01*
X118015894Y-66262011D01*
X117515894Y-66262011D01*
X117515894Y-66547725D01*
X118158751Y-65619154D02*
X116658751Y-65619154D01*
X116658751Y-65047725D01*
X116730180Y-64904868D01*
X116801608Y-64833440D01*
X116944465Y-64762011D01*
X117158751Y-64762011D01*
X117301608Y-64833440D01*
X117373037Y-64904868D01*
X117444465Y-65047725D01*
X117444465Y-65619154D01*
X118158751Y-64119154D02*
X116658751Y-64119154D01*
X116658751Y-63119154D02*
X116658751Y-62833440D01*
X116730180Y-62690582D01*
X116873037Y-62547725D01*
X117158751Y-62476297D01*
X117658751Y-62476297D01*
X117944465Y-62547725D01*
X118087322Y-62690582D01*
X118158751Y-62833440D01*
X118158751Y-63119154D01*
X118087322Y-63262011D01*
X117944465Y-63404868D01*
X117658751Y-63476297D01*
X117158751Y-63476297D01*
X116873037Y-63404868D01*
X116730180Y-63262011D01*
X116658751Y-63119154D01*
X116658751Y-60833440D02*
X116658751Y-59904868D01*
X117230180Y-60404868D01*
X117230180Y-60190582D01*
X117301608Y-60047725D01*
X117373037Y-59976297D01*
X117515894Y-59904868D01*
X117873037Y-59904868D01*
X118015894Y-59976297D01*
X118087322Y-60047725D01*
X118158751Y-60190582D01*
X118158751Y-60619154D01*
X118087322Y-60762011D01*
X118015894Y-60833440D01*
X116658751Y-58547725D02*
X116658751Y-59262011D01*
X117373037Y-59333440D01*
X117301608Y-59262011D01*
X117230180Y-59119154D01*
X117230180Y-58762011D01*
X117301608Y-58619154D01*
X117373037Y-58547725D01*
X117515894Y-58476297D01*
X117873037Y-58476297D01*
X118015894Y-58547725D01*
X118087322Y-58619154D01*
X118158751Y-58762011D01*
X118158751Y-59119154D01*
X118087322Y-59262011D01*
X118015894Y-59333440D01*
X114210500Y-66333440D02*
X114139071Y-66476297D01*
X114139071Y-66690582D01*
X114210500Y-66904868D01*
X114353357Y-67047725D01*
X114496214Y-67119154D01*
X114781928Y-67190582D01*
X114996214Y-67190582D01*
X115281928Y-67119154D01*
X115424785Y-67047725D01*
X115567642Y-66904868D01*
X115639071Y-66690582D01*
X115639071Y-66547725D01*
X115567642Y-66333440D01*
X115496214Y-66262011D01*
X114996214Y-66262011D01*
X114996214Y-66547725D01*
X115639071Y-65619154D02*
X114139071Y-65619154D01*
X114139071Y-65047725D01*
X114210500Y-64904868D01*
X114281928Y-64833440D01*
X114424785Y-64762011D01*
X114639071Y-64762011D01*
X114781928Y-64833440D01*
X114853357Y-64904868D01*
X114924785Y-65047725D01*
X114924785Y-65619154D01*
X115639071Y-64119154D02*
X114139071Y-64119154D01*
X114139071Y-63119154D02*
X114139071Y-62833440D01*
X114210500Y-62690582D01*
X114353357Y-62547725D01*
X114639071Y-62476297D01*
X115139071Y-62476297D01*
X115424785Y-62547725D01*
X115567642Y-62690582D01*
X115639071Y-62833440D01*
X115639071Y-63119154D01*
X115567642Y-63262011D01*
X115424785Y-63404868D01*
X115139071Y-63476297D01*
X114639071Y-63476297D01*
X114353357Y-63404868D01*
X114210500Y-63262011D01*
X114139071Y-63119154D01*
X114139071Y-60833440D02*
X114139071Y-59904868D01*
X114710500Y-60404868D01*
X114710500Y-60190582D01*
X114781928Y-60047725D01*
X114853357Y-59976297D01*
X114996214Y-59904868D01*
X115353357Y-59904868D01*
X115496214Y-59976297D01*
X115567642Y-60047725D01*
X115639071Y-60190582D01*
X115639071Y-60619154D01*
X115567642Y-60762011D01*
X115496214Y-60833440D01*
X114639071Y-58619154D02*
X115639071Y-58619154D01*
X114067642Y-58976297D02*
X115139071Y-59333440D01*
X115139071Y-58404868D01*
X111769560Y-66333440D02*
X111698131Y-66476297D01*
X111698131Y-66690582D01*
X111769560Y-66904868D01*
X111912417Y-67047725D01*
X112055274Y-67119154D01*
X112340988Y-67190582D01*
X112555274Y-67190582D01*
X112840988Y-67119154D01*
X112983845Y-67047725D01*
X113126702Y-66904868D01*
X113198131Y-66690582D01*
X113198131Y-66547725D01*
X113126702Y-66333440D01*
X113055274Y-66262011D01*
X112555274Y-66262011D01*
X112555274Y-66547725D01*
X113198131Y-65619154D02*
X111698131Y-65619154D01*
X111698131Y-65047725D01*
X111769560Y-64904868D01*
X111840988Y-64833440D01*
X111983845Y-64762011D01*
X112198131Y-64762011D01*
X112340988Y-64833440D01*
X112412417Y-64904868D01*
X112483845Y-65047725D01*
X112483845Y-65619154D01*
X113198131Y-64119154D02*
X111698131Y-64119154D01*
X111698131Y-63119154D02*
X111698131Y-62833440D01*
X111769560Y-62690582D01*
X111912417Y-62547725D01*
X112198131Y-62476297D01*
X112698131Y-62476297D01*
X112983845Y-62547725D01*
X113126702Y-62690582D01*
X113198131Y-62833440D01*
X113198131Y-63119154D01*
X113126702Y-63262011D01*
X112983845Y-63404868D01*
X112698131Y-63476297D01*
X112198131Y-63476297D01*
X111912417Y-63404868D01*
X111769560Y-63262011D01*
X111698131Y-63119154D01*
X111698131Y-60833440D02*
X111698131Y-59904868D01*
X112269560Y-60404868D01*
X112269560Y-60190582D01*
X112340988Y-60047725D01*
X112412417Y-59976297D01*
X112555274Y-59904868D01*
X112912417Y-59904868D01*
X113055274Y-59976297D01*
X113126702Y-60047725D01*
X113198131Y-60190582D01*
X113198131Y-60619154D01*
X113126702Y-60762011D01*
X113055274Y-60833440D01*
X111698131Y-59404868D02*
X111698131Y-58476297D01*
X112269560Y-58976297D01*
X112269560Y-58762011D01*
X112340988Y-58619154D01*
X112412417Y-58547725D01*
X112555274Y-58476297D01*
X112912417Y-58476297D01*
X113055274Y-58547725D01*
X113126702Y-58619154D01*
X113198131Y-58762011D01*
X113198131Y-59190582D01*
X113126702Y-59333440D01*
X113055274Y-59404868D01*
X109267660Y-66333440D02*
X109196231Y-66476297D01*
X109196231Y-66690582D01*
X109267660Y-66904868D01*
X109410517Y-67047725D01*
X109553374Y-67119154D01*
X109839088Y-67190582D01*
X110053374Y-67190582D01*
X110339088Y-67119154D01*
X110481945Y-67047725D01*
X110624802Y-66904868D01*
X110696231Y-66690582D01*
X110696231Y-66547725D01*
X110624802Y-66333440D01*
X110553374Y-66262011D01*
X110053374Y-66262011D01*
X110053374Y-66547725D01*
X110696231Y-65619154D02*
X109196231Y-65619154D01*
X109196231Y-65047725D01*
X109267660Y-64904868D01*
X109339088Y-64833440D01*
X109481945Y-64762011D01*
X109696231Y-64762011D01*
X109839088Y-64833440D01*
X109910517Y-64904868D01*
X109981945Y-65047725D01*
X109981945Y-65619154D01*
X110696231Y-64119154D02*
X109196231Y-64119154D01*
X109196231Y-63119154D02*
X109196231Y-62833440D01*
X109267660Y-62690582D01*
X109410517Y-62547725D01*
X109696231Y-62476297D01*
X110196231Y-62476297D01*
X110481945Y-62547725D01*
X110624802Y-62690582D01*
X110696231Y-62833440D01*
X110696231Y-63119154D01*
X110624802Y-63262011D01*
X110481945Y-63404868D01*
X110196231Y-63476297D01*
X109696231Y-63476297D01*
X109410517Y-63404868D01*
X109267660Y-63262011D01*
X109196231Y-63119154D01*
X109196231Y-60833440D02*
X109196231Y-59904868D01*
X109767660Y-60404868D01*
X109767660Y-60190582D01*
X109839088Y-60047725D01*
X109910517Y-59976297D01*
X110053374Y-59904868D01*
X110410517Y-59904868D01*
X110553374Y-59976297D01*
X110624802Y-60047725D01*
X110696231Y-60190582D01*
X110696231Y-60619154D01*
X110624802Y-60762011D01*
X110553374Y-60833440D01*
X109339088Y-59333440D02*
X109267660Y-59262011D01*
X109196231Y-59119154D01*
X109196231Y-58762011D01*
X109267660Y-58619154D01*
X109339088Y-58547725D01*
X109481945Y-58476297D01*
X109624802Y-58476297D01*
X109839088Y-58547725D01*
X110696231Y-59404868D01*
X110696231Y-58476297D01*
X106532080Y-66333440D02*
X106460651Y-66476297D01*
X106460651Y-66690582D01*
X106532080Y-66904868D01*
X106674937Y-67047725D01*
X106817794Y-67119154D01*
X107103508Y-67190582D01*
X107317794Y-67190582D01*
X107603508Y-67119154D01*
X107746365Y-67047725D01*
X107889222Y-66904868D01*
X107960651Y-66690582D01*
X107960651Y-66547725D01*
X107889222Y-66333440D01*
X107817794Y-66262011D01*
X107317794Y-66262011D01*
X107317794Y-66547725D01*
X107960651Y-65619154D02*
X106460651Y-65619154D01*
X106460651Y-65047725D01*
X106532080Y-64904868D01*
X106603508Y-64833440D01*
X106746365Y-64762011D01*
X106960651Y-64762011D01*
X107103508Y-64833440D01*
X107174937Y-64904868D01*
X107246365Y-65047725D01*
X107246365Y-65619154D01*
X107960651Y-64119154D02*
X106460651Y-64119154D01*
X106460651Y-63119154D02*
X106460651Y-62833440D01*
X106532080Y-62690582D01*
X106674937Y-62547725D01*
X106960651Y-62476297D01*
X107460651Y-62476297D01*
X107746365Y-62547725D01*
X107889222Y-62690582D01*
X107960651Y-62833440D01*
X107960651Y-63119154D01*
X107889222Y-63262011D01*
X107746365Y-63404868D01*
X107460651Y-63476297D01*
X106960651Y-63476297D01*
X106674937Y-63404868D01*
X106532080Y-63262011D01*
X106460651Y-63119154D01*
X106603508Y-60762011D02*
X106532080Y-60690582D01*
X106460651Y-60547725D01*
X106460651Y-60190582D01*
X106532080Y-60047725D01*
X106603508Y-59976297D01*
X106746365Y-59904868D01*
X106889222Y-59904868D01*
X107103508Y-59976297D01*
X107960651Y-60833440D01*
X107960651Y-59904868D01*
X106460651Y-59404868D02*
X106460651Y-58404868D01*
X107960651Y-59047725D01*
X104053040Y-66333440D02*
X103981611Y-66476297D01*
X103981611Y-66690582D01*
X104053040Y-66904868D01*
X104195897Y-67047725D01*
X104338754Y-67119154D01*
X104624468Y-67190582D01*
X104838754Y-67190582D01*
X105124468Y-67119154D01*
X105267325Y-67047725D01*
X105410182Y-66904868D01*
X105481611Y-66690582D01*
X105481611Y-66547725D01*
X105410182Y-66333440D01*
X105338754Y-66262011D01*
X104838754Y-66262011D01*
X104838754Y-66547725D01*
X105481611Y-65619154D02*
X103981611Y-65619154D01*
X103981611Y-65047725D01*
X104053040Y-64904868D01*
X104124468Y-64833440D01*
X104267325Y-64762011D01*
X104481611Y-64762011D01*
X104624468Y-64833440D01*
X104695897Y-64904868D01*
X104767325Y-65047725D01*
X104767325Y-65619154D01*
X105481611Y-64119154D02*
X103981611Y-64119154D01*
X103981611Y-63119154D02*
X103981611Y-62833440D01*
X104053040Y-62690582D01*
X104195897Y-62547725D01*
X104481611Y-62476297D01*
X104981611Y-62476297D01*
X105267325Y-62547725D01*
X105410182Y-62690582D01*
X105481611Y-62833440D01*
X105481611Y-63119154D01*
X105410182Y-63262011D01*
X105267325Y-63404868D01*
X104981611Y-63476297D01*
X104481611Y-63476297D01*
X104195897Y-63404868D01*
X104053040Y-63262011D01*
X103981611Y-63119154D01*
X104124468Y-60762011D02*
X104053040Y-60690582D01*
X103981611Y-60547725D01*
X103981611Y-60190582D01*
X104053040Y-60047725D01*
X104124468Y-59976297D01*
X104267325Y-59904868D01*
X104410182Y-59904868D01*
X104624468Y-59976297D01*
X105481611Y-60833440D01*
X105481611Y-59904868D01*
X103981611Y-58619154D02*
X103981611Y-58904868D01*
X104053040Y-59047725D01*
X104124468Y-59119154D01*
X104338754Y-59262011D01*
X104624468Y-59333440D01*
X105195897Y-59333440D01*
X105338754Y-59262011D01*
X105410182Y-59190582D01*
X105481611Y-59047725D01*
X105481611Y-58762011D01*
X105410182Y-58619154D01*
X105338754Y-58547725D01*
X105195897Y-58476297D01*
X104838754Y-58476297D01*
X104695897Y-58547725D01*
X104624468Y-58619154D01*
X104553040Y-58762011D01*
X104553040Y-59047725D01*
X104624468Y-59190582D01*
X104695897Y-59262011D01*
X104838754Y-59333440D01*
X101454620Y-66333440D02*
X101383191Y-66476297D01*
X101383191Y-66690582D01*
X101454620Y-66904868D01*
X101597477Y-67047725D01*
X101740334Y-67119154D01*
X102026048Y-67190582D01*
X102240334Y-67190582D01*
X102526048Y-67119154D01*
X102668905Y-67047725D01*
X102811762Y-66904868D01*
X102883191Y-66690582D01*
X102883191Y-66547725D01*
X102811762Y-66333440D01*
X102740334Y-66262011D01*
X102240334Y-66262011D01*
X102240334Y-66547725D01*
X102883191Y-65619154D02*
X101383191Y-65619154D01*
X101383191Y-65047725D01*
X101454620Y-64904868D01*
X101526048Y-64833440D01*
X101668905Y-64762011D01*
X101883191Y-64762011D01*
X102026048Y-64833440D01*
X102097477Y-64904868D01*
X102168905Y-65047725D01*
X102168905Y-65619154D01*
X102883191Y-64119154D02*
X101383191Y-64119154D01*
X101383191Y-63119154D02*
X101383191Y-62833440D01*
X101454620Y-62690582D01*
X101597477Y-62547725D01*
X101883191Y-62476297D01*
X102383191Y-62476297D01*
X102668905Y-62547725D01*
X102811762Y-62690582D01*
X102883191Y-62833440D01*
X102883191Y-63119154D01*
X102811762Y-63262011D01*
X102668905Y-63404868D01*
X102383191Y-63476297D01*
X101883191Y-63476297D01*
X101597477Y-63404868D01*
X101454620Y-63262011D01*
X101383191Y-63119154D01*
X101526048Y-60762011D02*
X101454620Y-60690582D01*
X101383191Y-60547725D01*
X101383191Y-60190582D01*
X101454620Y-60047725D01*
X101526048Y-59976297D01*
X101668905Y-59904868D01*
X101811762Y-59904868D01*
X102026048Y-59976297D01*
X102883191Y-60833440D01*
X102883191Y-59904868D01*
X101383191Y-58547725D02*
X101383191Y-59262011D01*
X102097477Y-59333440D01*
X102026048Y-59262011D01*
X101954620Y-59119154D01*
X101954620Y-58762011D01*
X102026048Y-58619154D01*
X102097477Y-58547725D01*
X102240334Y-58476297D01*
X102597477Y-58476297D01*
X102740334Y-58547725D01*
X102811762Y-58619154D01*
X102883191Y-58762011D01*
X102883191Y-59119154D01*
X102811762Y-59262011D01*
X102740334Y-59333440D01*
X98914620Y-66333440D02*
X98843191Y-66476297D01*
X98843191Y-66690582D01*
X98914620Y-66904868D01*
X99057477Y-67047725D01*
X99200334Y-67119154D01*
X99486048Y-67190582D01*
X99700334Y-67190582D01*
X99986048Y-67119154D01*
X100128905Y-67047725D01*
X100271762Y-66904868D01*
X100343191Y-66690582D01*
X100343191Y-66547725D01*
X100271762Y-66333440D01*
X100200334Y-66262011D01*
X99700334Y-66262011D01*
X99700334Y-66547725D01*
X100343191Y-65619154D02*
X98843191Y-65619154D01*
X98843191Y-65047725D01*
X98914620Y-64904868D01*
X98986048Y-64833440D01*
X99128905Y-64762011D01*
X99343191Y-64762011D01*
X99486048Y-64833440D01*
X99557477Y-64904868D01*
X99628905Y-65047725D01*
X99628905Y-65619154D01*
X100343191Y-64119154D02*
X98843191Y-64119154D01*
X98843191Y-63119154D02*
X98843191Y-62833440D01*
X98914620Y-62690582D01*
X99057477Y-62547725D01*
X99343191Y-62476297D01*
X99843191Y-62476297D01*
X100128905Y-62547725D01*
X100271762Y-62690582D01*
X100343191Y-62833440D01*
X100343191Y-63119154D01*
X100271762Y-63262011D01*
X100128905Y-63404868D01*
X99843191Y-63476297D01*
X99343191Y-63476297D01*
X99057477Y-63404868D01*
X98914620Y-63262011D01*
X98843191Y-63119154D01*
X98986048Y-60762011D02*
X98914620Y-60690582D01*
X98843191Y-60547725D01*
X98843191Y-60190582D01*
X98914620Y-60047725D01*
X98986048Y-59976297D01*
X99128905Y-59904868D01*
X99271762Y-59904868D01*
X99486048Y-59976297D01*
X100343191Y-60833440D01*
X100343191Y-59904868D01*
X98843191Y-59404868D02*
X98843191Y-58476297D01*
X99414620Y-58976297D01*
X99414620Y-58762011D01*
X99486048Y-58619154D01*
X99557477Y-58547725D01*
X99700334Y-58476297D01*
X100057477Y-58476297D01*
X100200334Y-58547725D01*
X100271762Y-58619154D01*
X100343191Y-58762011D01*
X100343191Y-59190582D01*
X100271762Y-59333440D01*
X100200334Y-59404868D01*
X95292580Y-66333440D02*
X95221151Y-66476297D01*
X95221151Y-66690582D01*
X95292580Y-66904868D01*
X95435437Y-67047725D01*
X95578294Y-67119154D01*
X95864008Y-67190582D01*
X96078294Y-67190582D01*
X96364008Y-67119154D01*
X96506865Y-67047725D01*
X96649722Y-66904868D01*
X96721151Y-66690582D01*
X96721151Y-66547725D01*
X96649722Y-66333440D01*
X96578294Y-66262011D01*
X96078294Y-66262011D01*
X96078294Y-66547725D01*
X96721151Y-65619154D02*
X95221151Y-65619154D01*
X95221151Y-65047725D01*
X95292580Y-64904868D01*
X95364008Y-64833440D01*
X95506865Y-64762011D01*
X95721151Y-64762011D01*
X95864008Y-64833440D01*
X95935437Y-64904868D01*
X96006865Y-65047725D01*
X96006865Y-65619154D01*
X96721151Y-64119154D02*
X95221151Y-64119154D01*
X95221151Y-63119154D02*
X95221151Y-62833440D01*
X95292580Y-62690582D01*
X95435437Y-62547725D01*
X95721151Y-62476297D01*
X96221151Y-62476297D01*
X96506865Y-62547725D01*
X96649722Y-62690582D01*
X96721151Y-62833440D01*
X96721151Y-63119154D01*
X96649722Y-63262011D01*
X96506865Y-63404868D01*
X96221151Y-63476297D01*
X95721151Y-63476297D01*
X95435437Y-63404868D01*
X95292580Y-63262011D01*
X95221151Y-63119154D01*
X95364008Y-60762011D02*
X95292580Y-60690582D01*
X95221151Y-60547725D01*
X95221151Y-60190582D01*
X95292580Y-60047725D01*
X95364008Y-59976297D01*
X95506865Y-59904868D01*
X95649722Y-59904868D01*
X95864008Y-59976297D01*
X96721151Y-60833440D01*
X96721151Y-59904868D01*
X95364008Y-59333440D02*
X95292580Y-59262011D01*
X95221151Y-59119154D01*
X95221151Y-58762011D01*
X95292580Y-58619154D01*
X95364008Y-58547725D01*
X95506865Y-58476297D01*
X95649722Y-58476297D01*
X95864008Y-58547725D01*
X96721151Y-59404868D01*
X96721151Y-58476297D01*
X92691620Y-66333440D02*
X92620191Y-66476297D01*
X92620191Y-66690582D01*
X92691620Y-66904868D01*
X92834477Y-67047725D01*
X92977334Y-67119154D01*
X93263048Y-67190582D01*
X93477334Y-67190582D01*
X93763048Y-67119154D01*
X93905905Y-67047725D01*
X94048762Y-66904868D01*
X94120191Y-66690582D01*
X94120191Y-66547725D01*
X94048762Y-66333440D01*
X93977334Y-66262011D01*
X93477334Y-66262011D01*
X93477334Y-66547725D01*
X94120191Y-65619154D02*
X92620191Y-65619154D01*
X92620191Y-65047725D01*
X92691620Y-64904868D01*
X92763048Y-64833440D01*
X92905905Y-64762011D01*
X93120191Y-64762011D01*
X93263048Y-64833440D01*
X93334477Y-64904868D01*
X93405905Y-65047725D01*
X93405905Y-65619154D01*
X94120191Y-64119154D02*
X92620191Y-64119154D01*
X92620191Y-63119154D02*
X92620191Y-62833440D01*
X92691620Y-62690582D01*
X92834477Y-62547725D01*
X93120191Y-62476297D01*
X93620191Y-62476297D01*
X93905905Y-62547725D01*
X94048762Y-62690582D01*
X94120191Y-62833440D01*
X94120191Y-63119154D01*
X94048762Y-63262011D01*
X93905905Y-63404868D01*
X93620191Y-63476297D01*
X93120191Y-63476297D01*
X92834477Y-63404868D01*
X92691620Y-63262011D01*
X92620191Y-63119154D01*
X92763048Y-60762011D02*
X92691620Y-60690582D01*
X92620191Y-60547725D01*
X92620191Y-60190582D01*
X92691620Y-60047725D01*
X92763048Y-59976297D01*
X92905905Y-59904868D01*
X93048762Y-59904868D01*
X93263048Y-59976297D01*
X94120191Y-60833440D01*
X94120191Y-59904868D01*
X94120191Y-58476297D02*
X94120191Y-59333440D01*
X94120191Y-58904868D02*
X92620191Y-58904868D01*
X92834477Y-59047725D01*
X92977334Y-59190582D01*
X93048762Y-59333440D01*
X90154160Y-66333440D02*
X90082731Y-66476297D01*
X90082731Y-66690582D01*
X90154160Y-66904868D01*
X90297017Y-67047725D01*
X90439874Y-67119154D01*
X90725588Y-67190582D01*
X90939874Y-67190582D01*
X91225588Y-67119154D01*
X91368445Y-67047725D01*
X91511302Y-66904868D01*
X91582731Y-66690582D01*
X91582731Y-66547725D01*
X91511302Y-66333440D01*
X91439874Y-66262011D01*
X90939874Y-66262011D01*
X90939874Y-66547725D01*
X91582731Y-65619154D02*
X90082731Y-65619154D01*
X90082731Y-65047725D01*
X90154160Y-64904868D01*
X90225588Y-64833440D01*
X90368445Y-64762011D01*
X90582731Y-64762011D01*
X90725588Y-64833440D01*
X90797017Y-64904868D01*
X90868445Y-65047725D01*
X90868445Y-65619154D01*
X91582731Y-64119154D02*
X90082731Y-64119154D01*
X90082731Y-63119154D02*
X90082731Y-62833440D01*
X90154160Y-62690582D01*
X90297017Y-62547725D01*
X90582731Y-62476297D01*
X91082731Y-62476297D01*
X91368445Y-62547725D01*
X91511302Y-62690582D01*
X91582731Y-62833440D01*
X91582731Y-63119154D01*
X91511302Y-63262011D01*
X91368445Y-63404868D01*
X91082731Y-63476297D01*
X90582731Y-63476297D01*
X90297017Y-63404868D01*
X90154160Y-63262011D01*
X90082731Y-63119154D01*
X91582731Y-59904868D02*
X91582731Y-60762011D01*
X91582731Y-60333440D02*
X90082731Y-60333440D01*
X90297017Y-60476297D01*
X90439874Y-60619154D01*
X90511302Y-60762011D01*
X91582731Y-59190582D02*
X91582731Y-58904868D01*
X91511302Y-58762011D01*
X91439874Y-58690582D01*
X91225588Y-58547725D01*
X90939874Y-58476297D01*
X90368445Y-58476297D01*
X90225588Y-58547725D01*
X90154160Y-58619154D01*
X90082731Y-58762011D01*
X90082731Y-59047725D01*
X90154160Y-59190582D01*
X90225588Y-59262011D01*
X90368445Y-59333440D01*
X90725588Y-59333440D01*
X90868445Y-59262011D01*
X90939874Y-59190582D01*
X91011302Y-59047725D01*
X91011302Y-58762011D01*
X90939874Y-58619154D01*
X90868445Y-58547725D01*
X90725588Y-58476297D01*
X87652260Y-66333440D02*
X87580831Y-66476297D01*
X87580831Y-66690582D01*
X87652260Y-66904868D01*
X87795117Y-67047725D01*
X87937974Y-67119154D01*
X88223688Y-67190582D01*
X88437974Y-67190582D01*
X88723688Y-67119154D01*
X88866545Y-67047725D01*
X89009402Y-66904868D01*
X89080831Y-66690582D01*
X89080831Y-66547725D01*
X89009402Y-66333440D01*
X88937974Y-66262011D01*
X88437974Y-66262011D01*
X88437974Y-66547725D01*
X89080831Y-65619154D02*
X87580831Y-65619154D01*
X87580831Y-65047725D01*
X87652260Y-64904868D01*
X87723688Y-64833440D01*
X87866545Y-64762011D01*
X88080831Y-64762011D01*
X88223688Y-64833440D01*
X88295117Y-64904868D01*
X88366545Y-65047725D01*
X88366545Y-65619154D01*
X89080831Y-64119154D02*
X87580831Y-64119154D01*
X87580831Y-63119154D02*
X87580831Y-62833440D01*
X87652260Y-62690582D01*
X87795117Y-62547725D01*
X88080831Y-62476297D01*
X88580831Y-62476297D01*
X88866545Y-62547725D01*
X89009402Y-62690582D01*
X89080831Y-62833440D01*
X89080831Y-63119154D01*
X89009402Y-63262011D01*
X88866545Y-63404868D01*
X88580831Y-63476297D01*
X88080831Y-63476297D01*
X87795117Y-63404868D01*
X87652260Y-63262011D01*
X87580831Y-63119154D01*
X89080831Y-59904868D02*
X89080831Y-60762011D01*
X89080831Y-60333440D02*
X87580831Y-60333440D01*
X87795117Y-60476297D01*
X87937974Y-60619154D01*
X88009402Y-60762011D01*
X88223688Y-59047725D02*
X88152260Y-59190582D01*
X88080831Y-59262011D01*
X87937974Y-59333440D01*
X87866545Y-59333440D01*
X87723688Y-59262011D01*
X87652260Y-59190582D01*
X87580831Y-59047725D01*
X87580831Y-58762011D01*
X87652260Y-58619154D01*
X87723688Y-58547725D01*
X87866545Y-58476297D01*
X87937974Y-58476297D01*
X88080831Y-58547725D01*
X88152260Y-58619154D01*
X88223688Y-58762011D01*
X88223688Y-59047725D01*
X88295117Y-59190582D01*
X88366545Y-59262011D01*
X88509402Y-59333440D01*
X88795117Y-59333440D01*
X88937974Y-59262011D01*
X89009402Y-59190582D01*
X89080831Y-59047725D01*
X89080831Y-58762011D01*
X89009402Y-58619154D01*
X88937974Y-58547725D01*
X88795117Y-58476297D01*
X88509402Y-58476297D01*
X88366545Y-58547725D01*
X88295117Y-58619154D01*
X88223688Y-58762011D01*
X85211320Y-66333440D02*
X85139891Y-66476297D01*
X85139891Y-66690582D01*
X85211320Y-66904868D01*
X85354177Y-67047725D01*
X85497034Y-67119154D01*
X85782748Y-67190582D01*
X85997034Y-67190582D01*
X86282748Y-67119154D01*
X86425605Y-67047725D01*
X86568462Y-66904868D01*
X86639891Y-66690582D01*
X86639891Y-66547725D01*
X86568462Y-66333440D01*
X86497034Y-66262011D01*
X85997034Y-66262011D01*
X85997034Y-66547725D01*
X86639891Y-65619154D02*
X85139891Y-65619154D01*
X85139891Y-65047725D01*
X85211320Y-64904868D01*
X85282748Y-64833440D01*
X85425605Y-64762011D01*
X85639891Y-64762011D01*
X85782748Y-64833440D01*
X85854177Y-64904868D01*
X85925605Y-65047725D01*
X85925605Y-65619154D01*
X86639891Y-64119154D02*
X85139891Y-64119154D01*
X85139891Y-63119154D02*
X85139891Y-62833440D01*
X85211320Y-62690582D01*
X85354177Y-62547725D01*
X85639891Y-62476297D01*
X86139891Y-62476297D01*
X86425605Y-62547725D01*
X86568462Y-62690582D01*
X86639891Y-62833440D01*
X86639891Y-63119154D01*
X86568462Y-63262011D01*
X86425605Y-63404868D01*
X86139891Y-63476297D01*
X85639891Y-63476297D01*
X85354177Y-63404868D01*
X85211320Y-63262011D01*
X85139891Y-63119154D01*
X86639891Y-59904868D02*
X86639891Y-60762011D01*
X86639891Y-60333440D02*
X85139891Y-60333440D01*
X85354177Y-60476297D01*
X85497034Y-60619154D01*
X85568462Y-60762011D01*
X85139891Y-59404868D02*
X85139891Y-58404868D01*
X86639891Y-59047725D01*
X82574800Y-66333440D02*
X82503371Y-66476297D01*
X82503371Y-66690582D01*
X82574800Y-66904868D01*
X82717657Y-67047725D01*
X82860514Y-67119154D01*
X83146228Y-67190582D01*
X83360514Y-67190582D01*
X83646228Y-67119154D01*
X83789085Y-67047725D01*
X83931942Y-66904868D01*
X84003371Y-66690582D01*
X84003371Y-66547725D01*
X83931942Y-66333440D01*
X83860514Y-66262011D01*
X83360514Y-66262011D01*
X83360514Y-66547725D01*
X84003371Y-65619154D02*
X82503371Y-65619154D01*
X82503371Y-65047725D01*
X82574800Y-64904868D01*
X82646228Y-64833440D01*
X82789085Y-64762011D01*
X83003371Y-64762011D01*
X83146228Y-64833440D01*
X83217657Y-64904868D01*
X83289085Y-65047725D01*
X83289085Y-65619154D01*
X84003371Y-64119154D02*
X82503371Y-64119154D01*
X82503371Y-63119154D02*
X82503371Y-62833440D01*
X82574800Y-62690582D01*
X82717657Y-62547725D01*
X83003371Y-62476297D01*
X83503371Y-62476297D01*
X83789085Y-62547725D01*
X83931942Y-62690582D01*
X84003371Y-62833440D01*
X84003371Y-63119154D01*
X83931942Y-63262011D01*
X83789085Y-63404868D01*
X83503371Y-63476297D01*
X83003371Y-63476297D01*
X82717657Y-63404868D01*
X82574800Y-63262011D01*
X82503371Y-63119154D01*
X84003371Y-59904868D02*
X84003371Y-60762011D01*
X84003371Y-60333440D02*
X82503371Y-60333440D01*
X82717657Y-60476297D01*
X82860514Y-60619154D01*
X82931942Y-60762011D01*
X82503371Y-58619154D02*
X82503371Y-58904868D01*
X82574800Y-59047725D01*
X82646228Y-59119154D01*
X82860514Y-59262011D01*
X83146228Y-59333440D01*
X83717657Y-59333440D01*
X83860514Y-59262011D01*
X83931942Y-59190582D01*
X84003371Y-59047725D01*
X84003371Y-58762011D01*
X83931942Y-58619154D01*
X83860514Y-58547725D01*
X83717657Y-58476297D01*
X83360514Y-58476297D01*
X83217657Y-58547725D01*
X83146228Y-58619154D01*
X83074800Y-58762011D01*
X83074800Y-59047725D01*
X83146228Y-59190582D01*
X83217657Y-59262011D01*
X83360514Y-59333440D01*
X79897640Y-66333440D02*
X79826211Y-66476297D01*
X79826211Y-66690582D01*
X79897640Y-66904868D01*
X80040497Y-67047725D01*
X80183354Y-67119154D01*
X80469068Y-67190582D01*
X80683354Y-67190582D01*
X80969068Y-67119154D01*
X81111925Y-67047725D01*
X81254782Y-66904868D01*
X81326211Y-66690582D01*
X81326211Y-66547725D01*
X81254782Y-66333440D01*
X81183354Y-66262011D01*
X80683354Y-66262011D01*
X80683354Y-66547725D01*
X81326211Y-65619154D02*
X79826211Y-65619154D01*
X79826211Y-65047725D01*
X79897640Y-64904868D01*
X79969068Y-64833440D01*
X80111925Y-64762011D01*
X80326211Y-64762011D01*
X80469068Y-64833440D01*
X80540497Y-64904868D01*
X80611925Y-65047725D01*
X80611925Y-65619154D01*
X81326211Y-64119154D02*
X79826211Y-64119154D01*
X79826211Y-63119154D02*
X79826211Y-62833440D01*
X79897640Y-62690582D01*
X80040497Y-62547725D01*
X80326211Y-62476297D01*
X80826211Y-62476297D01*
X81111925Y-62547725D01*
X81254782Y-62690582D01*
X81326211Y-62833440D01*
X81326211Y-63119154D01*
X81254782Y-63262011D01*
X81111925Y-63404868D01*
X80826211Y-63476297D01*
X80326211Y-63476297D01*
X80040497Y-63404868D01*
X79897640Y-63262011D01*
X79826211Y-63119154D01*
X81326211Y-59904868D02*
X81326211Y-60762011D01*
X81326211Y-60333440D02*
X79826211Y-60333440D01*
X80040497Y-60476297D01*
X80183354Y-60619154D01*
X80254782Y-60762011D01*
X79826211Y-58547725D02*
X79826211Y-59262011D01*
X80540497Y-59333440D01*
X80469068Y-59262011D01*
X80397640Y-59119154D01*
X80397640Y-58762011D01*
X80469068Y-58619154D01*
X80540497Y-58547725D01*
X80683354Y-58476297D01*
X81040497Y-58476297D01*
X81183354Y-58547725D01*
X81254782Y-58619154D01*
X81326211Y-58762011D01*
X81326211Y-59119154D01*
X81254782Y-59262011D01*
X81183354Y-59333440D01*
X77535440Y-66333440D02*
X77464011Y-66476297D01*
X77464011Y-66690582D01*
X77535440Y-66904868D01*
X77678297Y-67047725D01*
X77821154Y-67119154D01*
X78106868Y-67190582D01*
X78321154Y-67190582D01*
X78606868Y-67119154D01*
X78749725Y-67047725D01*
X78892582Y-66904868D01*
X78964011Y-66690582D01*
X78964011Y-66547725D01*
X78892582Y-66333440D01*
X78821154Y-66262011D01*
X78321154Y-66262011D01*
X78321154Y-66547725D01*
X78964011Y-65619154D02*
X77464011Y-65619154D01*
X77464011Y-65047725D01*
X77535440Y-64904868D01*
X77606868Y-64833440D01*
X77749725Y-64762011D01*
X77964011Y-64762011D01*
X78106868Y-64833440D01*
X78178297Y-64904868D01*
X78249725Y-65047725D01*
X78249725Y-65619154D01*
X78964011Y-64119154D02*
X77464011Y-64119154D01*
X77464011Y-63119154D02*
X77464011Y-62833440D01*
X77535440Y-62690582D01*
X77678297Y-62547725D01*
X77964011Y-62476297D01*
X78464011Y-62476297D01*
X78749725Y-62547725D01*
X78892582Y-62690582D01*
X78964011Y-62833440D01*
X78964011Y-63119154D01*
X78892582Y-63262011D01*
X78749725Y-63404868D01*
X78464011Y-63476297D01*
X77964011Y-63476297D01*
X77678297Y-63404868D01*
X77535440Y-63262011D01*
X77464011Y-63119154D01*
X78964011Y-59904868D02*
X78964011Y-60762011D01*
X78964011Y-60333440D02*
X77464011Y-60333440D01*
X77678297Y-60476297D01*
X77821154Y-60619154D01*
X77892582Y-60762011D01*
X77964011Y-58619154D02*
X78964011Y-58619154D01*
X77392582Y-58976297D02*
X78464011Y-59333440D01*
X78464011Y-58404868D01*
X74975120Y-66333440D02*
X74903691Y-66476297D01*
X74903691Y-66690582D01*
X74975120Y-66904868D01*
X75117977Y-67047725D01*
X75260834Y-67119154D01*
X75546548Y-67190582D01*
X75760834Y-67190582D01*
X76046548Y-67119154D01*
X76189405Y-67047725D01*
X76332262Y-66904868D01*
X76403691Y-66690582D01*
X76403691Y-66547725D01*
X76332262Y-66333440D01*
X76260834Y-66262011D01*
X75760834Y-66262011D01*
X75760834Y-66547725D01*
X76403691Y-65619154D02*
X74903691Y-65619154D01*
X74903691Y-65047725D01*
X74975120Y-64904868D01*
X75046548Y-64833440D01*
X75189405Y-64762011D01*
X75403691Y-64762011D01*
X75546548Y-64833440D01*
X75617977Y-64904868D01*
X75689405Y-65047725D01*
X75689405Y-65619154D01*
X76403691Y-64119154D02*
X74903691Y-64119154D01*
X74903691Y-63119154D02*
X74903691Y-62833440D01*
X74975120Y-62690582D01*
X75117977Y-62547725D01*
X75403691Y-62476297D01*
X75903691Y-62476297D01*
X76189405Y-62547725D01*
X76332262Y-62690582D01*
X76403691Y-62833440D01*
X76403691Y-63119154D01*
X76332262Y-63262011D01*
X76189405Y-63404868D01*
X75903691Y-63476297D01*
X75403691Y-63476297D01*
X75117977Y-63404868D01*
X74975120Y-63262011D01*
X74903691Y-63119154D01*
X76403691Y-59904868D02*
X76403691Y-60762011D01*
X76403691Y-60333440D02*
X74903691Y-60333440D01*
X75117977Y-60476297D01*
X75260834Y-60619154D01*
X75332262Y-60762011D01*
X74903691Y-59404868D02*
X74903691Y-58476297D01*
X75475120Y-58976297D01*
X75475120Y-58762011D01*
X75546548Y-58619154D01*
X75617977Y-58547725D01*
X75760834Y-58476297D01*
X76117977Y-58476297D01*
X76260834Y-58547725D01*
X76332262Y-58619154D01*
X76403691Y-58762011D01*
X76403691Y-59190582D01*
X76332262Y-59333440D01*
X76260834Y-59404868D01*
X72435120Y-66333440D02*
X72363691Y-66476297D01*
X72363691Y-66690582D01*
X72435120Y-66904868D01*
X72577977Y-67047725D01*
X72720834Y-67119154D01*
X73006548Y-67190582D01*
X73220834Y-67190582D01*
X73506548Y-67119154D01*
X73649405Y-67047725D01*
X73792262Y-66904868D01*
X73863691Y-66690582D01*
X73863691Y-66547725D01*
X73792262Y-66333440D01*
X73720834Y-66262011D01*
X73220834Y-66262011D01*
X73220834Y-66547725D01*
X73863691Y-65619154D02*
X72363691Y-65619154D01*
X72363691Y-65047725D01*
X72435120Y-64904868D01*
X72506548Y-64833440D01*
X72649405Y-64762011D01*
X72863691Y-64762011D01*
X73006548Y-64833440D01*
X73077977Y-64904868D01*
X73149405Y-65047725D01*
X73149405Y-65619154D01*
X73863691Y-64119154D02*
X72363691Y-64119154D01*
X72363691Y-63119154D02*
X72363691Y-62833440D01*
X72435120Y-62690582D01*
X72577977Y-62547725D01*
X72863691Y-62476297D01*
X73363691Y-62476297D01*
X73649405Y-62547725D01*
X73792262Y-62690582D01*
X73863691Y-62833440D01*
X73863691Y-63119154D01*
X73792262Y-63262011D01*
X73649405Y-63404868D01*
X73363691Y-63476297D01*
X72863691Y-63476297D01*
X72577977Y-63404868D01*
X72435120Y-63262011D01*
X72363691Y-63119154D01*
X73863691Y-59904868D02*
X73863691Y-60762011D01*
X73863691Y-60333440D02*
X72363691Y-60333440D01*
X72577977Y-60476297D01*
X72720834Y-60619154D01*
X72792262Y-60762011D01*
X72506548Y-59333440D02*
X72435120Y-59262011D01*
X72363691Y-59119154D01*
X72363691Y-58762011D01*
X72435120Y-58619154D01*
X72506548Y-58547725D01*
X72649405Y-58476297D01*
X72792262Y-58476297D01*
X73006548Y-58547725D01*
X73863691Y-59404868D01*
X73863691Y-58476297D01*
X69857020Y-64904869D02*
X69785591Y-65047726D01*
X69785591Y-65262012D01*
X69857020Y-65476297D01*
X69999877Y-65619155D01*
X70142734Y-65690583D01*
X70428448Y-65762012D01*
X70642734Y-65762012D01*
X70928448Y-65690583D01*
X71071305Y-65619155D01*
X71214162Y-65476297D01*
X71285591Y-65262012D01*
X71285591Y-65119155D01*
X71214162Y-64904869D01*
X71142734Y-64833440D01*
X70642734Y-64833440D01*
X70642734Y-65119155D01*
X71285591Y-64190583D02*
X69785591Y-64190583D01*
X69785591Y-63619155D01*
X69857020Y-63476297D01*
X69928448Y-63404869D01*
X70071305Y-63333440D01*
X70285591Y-63333440D01*
X70428448Y-63404869D01*
X70499877Y-63476297D01*
X70571305Y-63619155D01*
X70571305Y-64190583D01*
X71285591Y-62690583D02*
X69785591Y-62690583D01*
X69785591Y-61690583D02*
X69785591Y-61404869D01*
X69857020Y-61262012D01*
X69999877Y-61119155D01*
X70285591Y-61047726D01*
X70785591Y-61047726D01*
X71071305Y-61119155D01*
X71214162Y-61262012D01*
X71285591Y-61404869D01*
X71285591Y-61690583D01*
X71214162Y-61833440D01*
X71071305Y-61976297D01*
X70785591Y-62047726D01*
X70285591Y-62047726D01*
X69999877Y-61976297D01*
X69857020Y-61833440D01*
X69785591Y-61690583D01*
X69785591Y-58547726D02*
X69785591Y-59262012D01*
X70499877Y-59333440D01*
X70428448Y-59262012D01*
X70357020Y-59119155D01*
X70357020Y-58762012D01*
X70428448Y-58619155D01*
X70499877Y-58547726D01*
X70642734Y-58476297D01*
X70999877Y-58476297D01*
X71142734Y-58547726D01*
X71214162Y-58619155D01*
X71285591Y-58762012D01*
X71285591Y-59119155D01*
X71214162Y-59262012D01*
X71142734Y-59333440D01*
X67258600Y-64904869D02*
X67187171Y-65047726D01*
X67187171Y-65262012D01*
X67258600Y-65476297D01*
X67401457Y-65619155D01*
X67544314Y-65690583D01*
X67830028Y-65762012D01*
X68044314Y-65762012D01*
X68330028Y-65690583D01*
X68472885Y-65619155D01*
X68615742Y-65476297D01*
X68687171Y-65262012D01*
X68687171Y-65119155D01*
X68615742Y-64904869D01*
X68544314Y-64833440D01*
X68044314Y-64833440D01*
X68044314Y-65119155D01*
X68687171Y-64190583D02*
X67187171Y-64190583D01*
X67187171Y-63619155D01*
X67258600Y-63476297D01*
X67330028Y-63404869D01*
X67472885Y-63333440D01*
X67687171Y-63333440D01*
X67830028Y-63404869D01*
X67901457Y-63476297D01*
X67972885Y-63619155D01*
X67972885Y-64190583D01*
X68687171Y-62690583D02*
X67187171Y-62690583D01*
X67187171Y-61690583D02*
X67187171Y-61404869D01*
X67258600Y-61262012D01*
X67401457Y-61119155D01*
X67687171Y-61047726D01*
X68187171Y-61047726D01*
X68472885Y-61119155D01*
X68615742Y-61262012D01*
X68687171Y-61404869D01*
X68687171Y-61690583D01*
X68615742Y-61833440D01*
X68472885Y-61976297D01*
X68187171Y-62047726D01*
X67687171Y-62047726D01*
X67401457Y-61976297D01*
X67258600Y-61833440D01*
X67187171Y-61690583D01*
X67687171Y-58619155D02*
X68687171Y-58619155D01*
X67115742Y-58976297D02*
X68187171Y-59333440D01*
X68187171Y-58404869D01*
X64660180Y-64904869D02*
X64588751Y-65047726D01*
X64588751Y-65262012D01*
X64660180Y-65476297D01*
X64803037Y-65619155D01*
X64945894Y-65690583D01*
X65231608Y-65762012D01*
X65445894Y-65762012D01*
X65731608Y-65690583D01*
X65874465Y-65619155D01*
X66017322Y-65476297D01*
X66088751Y-65262012D01*
X66088751Y-65119155D01*
X66017322Y-64904869D01*
X65945894Y-64833440D01*
X65445894Y-64833440D01*
X65445894Y-65119155D01*
X66088751Y-64190583D02*
X64588751Y-64190583D01*
X64588751Y-63619155D01*
X64660180Y-63476297D01*
X64731608Y-63404869D01*
X64874465Y-63333440D01*
X65088751Y-63333440D01*
X65231608Y-63404869D01*
X65303037Y-63476297D01*
X65374465Y-63619155D01*
X65374465Y-64190583D01*
X66088751Y-62690583D02*
X64588751Y-62690583D01*
X64588751Y-61690583D02*
X64588751Y-61404869D01*
X64660180Y-61262012D01*
X64803037Y-61119155D01*
X65088751Y-61047726D01*
X65588751Y-61047726D01*
X65874465Y-61119155D01*
X66017322Y-61262012D01*
X66088751Y-61404869D01*
X66088751Y-61690583D01*
X66017322Y-61833440D01*
X65874465Y-61976297D01*
X65588751Y-62047726D01*
X65088751Y-62047726D01*
X64803037Y-61976297D01*
X64660180Y-61833440D01*
X64588751Y-61690583D01*
X64731608Y-59333440D02*
X64660180Y-59262012D01*
X64588751Y-59119155D01*
X64588751Y-58762012D01*
X64660180Y-58619155D01*
X64731608Y-58547726D01*
X64874465Y-58476297D01*
X65017322Y-58476297D01*
X65231608Y-58547726D01*
X66088751Y-59404869D01*
X66088751Y-58476297D01*
X62783357Y-70547726D02*
X62854785Y-70333440D01*
X62926214Y-70262011D01*
X63069071Y-70190583D01*
X63283357Y-70190583D01*
X63426214Y-70262011D01*
X63497642Y-70333440D01*
X63569071Y-70476297D01*
X63569071Y-71047726D01*
X62069071Y-71047726D01*
X62069071Y-70547726D01*
X62140500Y-70404868D01*
X62211928Y-70333440D01*
X62354785Y-70262011D01*
X62497642Y-70262011D01*
X62640500Y-70333440D01*
X62711928Y-70404868D01*
X62783357Y-70547726D01*
X62783357Y-71047726D01*
X63569071Y-69333440D02*
X63497642Y-69476297D01*
X63426214Y-69547726D01*
X63283357Y-69619154D01*
X62854785Y-69619154D01*
X62711928Y-69547726D01*
X62640500Y-69476297D01*
X62569071Y-69333440D01*
X62569071Y-69119154D01*
X62640500Y-68976297D01*
X62711928Y-68904868D01*
X62854785Y-68833440D01*
X63283357Y-68833440D01*
X63426214Y-68904868D01*
X63497642Y-68976297D01*
X63569071Y-69119154D01*
X63569071Y-69333440D01*
X63569071Y-67976297D02*
X63497642Y-68119154D01*
X63426214Y-68190583D01*
X63283357Y-68262011D01*
X62854785Y-68262011D01*
X62711928Y-68190583D01*
X62640500Y-68119154D01*
X62569071Y-67976297D01*
X62569071Y-67762011D01*
X62640500Y-67619154D01*
X62711928Y-67547726D01*
X62854785Y-67476297D01*
X63283357Y-67476297D01*
X63426214Y-67547726D01*
X63497642Y-67619154D01*
X63569071Y-67762011D01*
X63569071Y-67976297D01*
X62569071Y-67047726D02*
X62569071Y-66476297D01*
X62069071Y-66833440D02*
X63354785Y-66833440D01*
X63497642Y-66762011D01*
X63569071Y-66619154D01*
X63569071Y-66476297D01*
X63569071Y-64619154D02*
X63497642Y-64762011D01*
X63426214Y-64833440D01*
X63283357Y-64904868D01*
X62854785Y-64904868D01*
X62711928Y-64833440D01*
X62640500Y-64762011D01*
X62569071Y-64619154D01*
X62569071Y-64404868D01*
X62640500Y-64262011D01*
X62711928Y-64190583D01*
X62854785Y-64119154D01*
X63283357Y-64119154D01*
X63426214Y-64190583D01*
X63497642Y-64262011D01*
X63569071Y-64404868D01*
X63569071Y-64619154D01*
X62569071Y-63476297D02*
X64069071Y-63476297D01*
X62640500Y-63476297D02*
X62569071Y-63333440D01*
X62569071Y-63047726D01*
X62640500Y-62904868D01*
X62711928Y-62833440D01*
X62854785Y-62762011D01*
X63283357Y-62762011D01*
X63426214Y-62833440D01*
X63497642Y-62904868D01*
X63569071Y-63047726D01*
X63569071Y-63333440D01*
X63497642Y-63476297D01*
X62569071Y-62333440D02*
X62569071Y-61762011D01*
X62069071Y-62119154D02*
X63354785Y-62119154D01*
X63497642Y-62047726D01*
X63569071Y-61904868D01*
X63569071Y-61762011D01*
X63569071Y-61262011D02*
X62569071Y-61262011D01*
X62069071Y-61262011D02*
X62140500Y-61333440D01*
X62211928Y-61262011D01*
X62140500Y-61190583D01*
X62069071Y-61262011D01*
X62211928Y-61262011D01*
X63569071Y-60333440D02*
X63497642Y-60476297D01*
X63426214Y-60547726D01*
X63283357Y-60619154D01*
X62854785Y-60619154D01*
X62711928Y-60547726D01*
X62640500Y-60476297D01*
X62569071Y-60333440D01*
X62569071Y-60119154D01*
X62640500Y-59976297D01*
X62711928Y-59904868D01*
X62854785Y-59833440D01*
X63283357Y-59833440D01*
X63426214Y-59904868D01*
X63497642Y-59976297D01*
X63569071Y-60119154D01*
X63569071Y-60333440D01*
X62569071Y-59190583D02*
X63569071Y-59190583D01*
X62711928Y-59190583D02*
X62640500Y-59119154D01*
X62569071Y-58976297D01*
X62569071Y-58762011D01*
X62640500Y-58619154D01*
X62783357Y-58547726D01*
X63569071Y-58547726D01*
X100974571Y-107743571D02*
X100117428Y-107743571D01*
X100546000Y-107743571D02*
X100546000Y-106243571D01*
X100403142Y-106457857D01*
X100260285Y-106600714D01*
X100117428Y-106672142D01*
X57759531Y-125621857D02*
X58259531Y-125621857D01*
X58473817Y-126407571D02*
X57759531Y-126407571D01*
X57759531Y-124907571D01*
X58473817Y-124907571D01*
X59045245Y-126336142D02*
X59259531Y-126407571D01*
X59616674Y-126407571D01*
X59759531Y-126336142D01*
X59830959Y-126264714D01*
X59902388Y-126121857D01*
X59902388Y-125979000D01*
X59830959Y-125836142D01*
X59759531Y-125764714D01*
X59616674Y-125693285D01*
X59330959Y-125621857D01*
X59188102Y-125550428D01*
X59116674Y-125479000D01*
X59045245Y-125336142D01*
X59045245Y-125193285D01*
X59116674Y-125050428D01*
X59188102Y-124979000D01*
X59330959Y-124907571D01*
X59688102Y-124907571D01*
X59902388Y-124979000D01*
X60545245Y-126407571D02*
X60545245Y-124907571D01*
X61116674Y-124907571D01*
X61259531Y-124979000D01*
X61330959Y-125050428D01*
X61402388Y-125193285D01*
X61402388Y-125407571D01*
X61330959Y-125550428D01*
X61259531Y-125621857D01*
X61116674Y-125693285D01*
X60545245Y-125693285D01*
X61902388Y-124907571D02*
X62830959Y-124907571D01*
X62330959Y-125479000D01*
X62545245Y-125479000D01*
X62688102Y-125550428D01*
X62759531Y-125621857D01*
X62830959Y-125764714D01*
X62830959Y-126121857D01*
X62759531Y-126264714D01*
X62688102Y-126336142D01*
X62545245Y-126407571D01*
X62116674Y-126407571D01*
X61973817Y-126336142D01*
X61902388Y-126264714D01*
X63402388Y-125050428D02*
X63473817Y-124979000D01*
X63616674Y-124907571D01*
X63973817Y-124907571D01*
X64116674Y-124979000D01*
X64188102Y-125050428D01*
X64259531Y-125193285D01*
X64259531Y-125336142D01*
X64188102Y-125550428D01*
X63330959Y-126407571D01*
X64259531Y-126407571D01*
X65902388Y-124907571D02*
X66259531Y-126407571D01*
X66545245Y-125336142D01*
X66830959Y-126407571D01*
X67188102Y-124907571D01*
X67759531Y-126407571D02*
X67759531Y-125407571D01*
X67759531Y-125693285D02*
X67830960Y-125550428D01*
X67902388Y-125479000D01*
X68045245Y-125407571D01*
X68188102Y-125407571D01*
X68902388Y-126407571D02*
X68759531Y-126336142D01*
X68688102Y-126264714D01*
X68616674Y-126121857D01*
X68616674Y-125693285D01*
X68688102Y-125550428D01*
X68759531Y-125479000D01*
X68902388Y-125407571D01*
X69116674Y-125407571D01*
X69259531Y-125479000D01*
X69330960Y-125550428D01*
X69402388Y-125693285D01*
X69402388Y-126121857D01*
X69330960Y-126264714D01*
X69259531Y-126336142D01*
X69116674Y-126407571D01*
X68902388Y-126407571D01*
X69902388Y-125407571D02*
X70259531Y-126407571D01*
X70616674Y-125407571D01*
X71759531Y-126336142D02*
X71616674Y-126407571D01*
X71330960Y-126407571D01*
X71188102Y-126336142D01*
X71116674Y-126193285D01*
X71116674Y-125621857D01*
X71188102Y-125479000D01*
X71330960Y-125407571D01*
X71616674Y-125407571D01*
X71759531Y-125479000D01*
X71830960Y-125621857D01*
X71830960Y-125764714D01*
X71116674Y-125907571D01*
X72473817Y-126407571D02*
X72473817Y-125407571D01*
X72473817Y-125693285D02*
X72545245Y-125550428D01*
X72616674Y-125479000D01*
X72759531Y-125407571D01*
X72902388Y-125407571D01*
X74545245Y-126407571D02*
X74545245Y-124907571D01*
X75402388Y-126407571D02*
X74759531Y-125550428D01*
X75402388Y-124907571D02*
X74545245Y-125764714D01*
X76045245Y-126407571D02*
X76045245Y-125407571D01*
X76045245Y-124907571D02*
X75973817Y-124979000D01*
X76045245Y-125050428D01*
X76116674Y-124979000D01*
X76045245Y-124907571D01*
X76045245Y-125050428D01*
X76545245Y-125407571D02*
X77116674Y-125407571D01*
X76759531Y-124907571D02*
X76759531Y-126193285D01*
X76830960Y-126336142D01*
X76973817Y-126407571D01*
X77116674Y-126407571D01*
X78616674Y-125407571D02*
X78973817Y-126407571D01*
X79330960Y-125407571D01*
X79759531Y-124907571D02*
X80688102Y-124907571D01*
X80188102Y-125479000D01*
X80402388Y-125479000D01*
X80545245Y-125550428D01*
X80616674Y-125621857D01*
X80688102Y-125764714D01*
X80688102Y-126121857D01*
X80616674Y-126264714D01*
X80545245Y-126336142D01*
X80402388Y-126407571D01*
X79973817Y-126407571D01*
X79830960Y-126336142D01*
X79759531Y-126264714D01*
X82473817Y-126407571D02*
X82473817Y-124907571D01*
X82473817Y-125479000D02*
X82616674Y-125407571D01*
X82902388Y-125407571D01*
X83045245Y-125479000D01*
X83116674Y-125550428D01*
X83188102Y-125693285D01*
X83188102Y-126121857D01*
X83116674Y-126264714D01*
X83045245Y-126336142D01*
X82902388Y-126407571D01*
X82616674Y-126407571D01*
X82473817Y-126336142D01*
X83830960Y-126407571D02*
X83830960Y-125407571D01*
X83830960Y-125693285D02*
X83902388Y-125550428D01*
X83973817Y-125479000D01*
X84116674Y-125407571D01*
X84259531Y-125407571D01*
X85330960Y-126336142D02*
X85188102Y-126407571D01*
X84902388Y-126407571D01*
X84759531Y-126336142D01*
X84688102Y-126193285D01*
X84688102Y-125621857D01*
X84759531Y-125479000D01*
X84902388Y-125407571D01*
X85188102Y-125407571D01*
X85330960Y-125479000D01*
X85402388Y-125621857D01*
X85402388Y-125764714D01*
X84688102Y-125907571D01*
X86688102Y-126407571D02*
X86688102Y-125621857D01*
X86616674Y-125479000D01*
X86473817Y-125407571D01*
X86188102Y-125407571D01*
X86045245Y-125479000D01*
X86688102Y-126336142D02*
X86545245Y-126407571D01*
X86188102Y-126407571D01*
X86045245Y-126336142D01*
X85973817Y-126193285D01*
X85973817Y-126050428D01*
X86045245Y-125907571D01*
X86188102Y-125836142D01*
X86545245Y-125836142D01*
X86688102Y-125764714D01*
X87402388Y-126407571D02*
X87402388Y-124907571D01*
X87545245Y-125836142D02*
X87973817Y-126407571D01*
X87973817Y-125407571D02*
X87402388Y-125979000D01*
X88830960Y-126407571D02*
X88688102Y-126336142D01*
X88616674Y-126264714D01*
X88545245Y-126121857D01*
X88545245Y-125693285D01*
X88616674Y-125550428D01*
X88688102Y-125479000D01*
X88830960Y-125407571D01*
X89045245Y-125407571D01*
X89188102Y-125479000D01*
X89259531Y-125550428D01*
X89330960Y-125693285D01*
X89330960Y-126121857D01*
X89259531Y-126264714D01*
X89188102Y-126336142D01*
X89045245Y-126407571D01*
X88830960Y-126407571D01*
X90616674Y-125407571D02*
X90616674Y-126407571D01*
X89973817Y-125407571D02*
X89973817Y-126193285D01*
X90045245Y-126336142D01*
X90188102Y-126407571D01*
X90402388Y-126407571D01*
X90545245Y-126336142D01*
X90616674Y-126264714D01*
X91116674Y-125407571D02*
X91688102Y-125407571D01*
X91330960Y-124907571D02*
X91330960Y-126193285D01*
X91402388Y-126336142D01*
X91545245Y-126407571D01*
X91688102Y-126407571D01*
X93330960Y-126407571D02*
X93330960Y-124907571D01*
X93330960Y-125479000D02*
X93473817Y-125407571D01*
X93759531Y-125407571D01*
X93902388Y-125479000D01*
X93973817Y-125550428D01*
X94045245Y-125693285D01*
X94045245Y-126121857D01*
X93973817Y-126264714D01*
X93902388Y-126336142D01*
X93759531Y-126407571D01*
X93473817Y-126407571D01*
X93330960Y-126336142D01*
X94902388Y-126407571D02*
X94759531Y-126336142D01*
X94688102Y-126264714D01*
X94616674Y-126121857D01*
X94616674Y-125693285D01*
X94688102Y-125550428D01*
X94759531Y-125479000D01*
X94902388Y-125407571D01*
X95116674Y-125407571D01*
X95259531Y-125479000D01*
X95330960Y-125550428D01*
X95402388Y-125693285D01*
X95402388Y-126121857D01*
X95330960Y-126264714D01*
X95259531Y-126336142D01*
X95116674Y-126407571D01*
X94902388Y-126407571D01*
X96688102Y-126407571D02*
X96688102Y-125621857D01*
X96616674Y-125479000D01*
X96473817Y-125407571D01*
X96188102Y-125407571D01*
X96045245Y-125479000D01*
X96688102Y-126336142D02*
X96545245Y-126407571D01*
X96188102Y-126407571D01*
X96045245Y-126336142D01*
X95973817Y-126193285D01*
X95973817Y-126050428D01*
X96045245Y-125907571D01*
X96188102Y-125836142D01*
X96545245Y-125836142D01*
X96688102Y-125764714D01*
X97402388Y-126407571D02*
X97402388Y-125407571D01*
X97402388Y-125693285D02*
X97473817Y-125550428D01*
X97545245Y-125479000D01*
X97688102Y-125407571D01*
X97830960Y-125407571D01*
X98973817Y-126407571D02*
X98973817Y-124907571D01*
X98973817Y-126336142D02*
X98830960Y-126407571D01*
X98545245Y-126407571D01*
X98402388Y-126336142D01*
X98330960Y-126264714D01*
X98259531Y-126121857D01*
X98259531Y-125693285D01*
X98330960Y-125550428D01*
X98402388Y-125479000D01*
X98545245Y-125407571D01*
X98830960Y-125407571D01*
X98973817Y-125479000D01*
X101188102Y-126907571D02*
X101188102Y-124764714D01*
X103330959Y-125050428D02*
X103402388Y-124979000D01*
X103545245Y-124907571D01*
X103902388Y-124907571D01*
X104045245Y-124979000D01*
X104116674Y-125050428D01*
X104188102Y-125193285D01*
X104188102Y-125336142D01*
X104116674Y-125550428D01*
X103259531Y-126407571D01*
X104188102Y-126407571D01*
X105116674Y-124907571D02*
X105259531Y-124907571D01*
X105402388Y-124979000D01*
X105473817Y-125050428D01*
X105545245Y-125193285D01*
X105616674Y-125479000D01*
X105616674Y-125836142D01*
X105545245Y-126121857D01*
X105473817Y-126264714D01*
X105402388Y-126336142D01*
X105259531Y-126407571D01*
X105116674Y-126407571D01*
X104973817Y-126336142D01*
X104902388Y-126264714D01*
X104830959Y-126121857D01*
X104759531Y-125836142D01*
X104759531Y-125479000D01*
X104830959Y-125193285D01*
X104902388Y-125050428D01*
X104973817Y-124979000D01*
X105116674Y-124907571D01*
X107045245Y-126407571D02*
X106188102Y-126407571D01*
X106616674Y-126407571D02*
X106616674Y-124907571D01*
X106473817Y-125121857D01*
X106330959Y-125264714D01*
X106188102Y-125336142D01*
X107759531Y-126407571D02*
X108045245Y-126407571D01*
X108188102Y-126336142D01*
X108259531Y-126264714D01*
X108402388Y-126050428D01*
X108473817Y-125764714D01*
X108473817Y-125193285D01*
X108402388Y-125050428D01*
X108330959Y-124979000D01*
X108188102Y-124907571D01*
X107902388Y-124907571D01*
X107759531Y-124979000D01*
X107688102Y-125050428D01*
X107616674Y-125193285D01*
X107616674Y-125550428D01*
X107688102Y-125693285D01*
X107759531Y-125764714D01*
X107902388Y-125836142D01*
X108188102Y-125836142D01*
X108330959Y-125764714D01*
X108402388Y-125693285D01*
X108473817Y-125550428D01*
X72366674Y-127529000D02*
X72223817Y-127457571D01*
X72009531Y-127457571D01*
X71795245Y-127529000D01*
X71652388Y-127671857D01*
X71580959Y-127814714D01*
X71509531Y-128100428D01*
X71509531Y-128314714D01*
X71580959Y-128600428D01*
X71652388Y-128743285D01*
X71795245Y-128886142D01*
X72009531Y-128957571D01*
X72152388Y-128957571D01*
X72366674Y-128886142D01*
X72438102Y-128814714D01*
X72438102Y-128314714D01*
X72152388Y-128314714D01*
X73080959Y-128957571D02*
X73080959Y-127957571D01*
X73080959Y-127457571D02*
X73009531Y-127529000D01*
X73080959Y-127600428D01*
X73152388Y-127529000D01*
X73080959Y-127457571D01*
X73080959Y-127600428D01*
X73580959Y-127957571D02*
X74152388Y-127957571D01*
X73795245Y-127457571D02*
X73795245Y-128743285D01*
X73866674Y-128886142D01*
X74009531Y-128957571D01*
X74152388Y-128957571D01*
X74652388Y-128957571D02*
X74652388Y-127457571D01*
X74652388Y-128171857D02*
X75509531Y-128171857D01*
X75509531Y-128957571D02*
X75509531Y-127457571D01*
X76866674Y-127957571D02*
X76866674Y-128957571D01*
X76223817Y-127957571D02*
X76223817Y-128743285D01*
X76295245Y-128886142D01*
X76438102Y-128957571D01*
X76652388Y-128957571D01*
X76795245Y-128886142D01*
X76866674Y-128814714D01*
X77580959Y-128957571D02*
X77580959Y-127457571D01*
X77580959Y-128029000D02*
X77723817Y-127957571D01*
X78009531Y-127957571D01*
X78152388Y-128029000D01*
X78223817Y-128100428D01*
X78295245Y-128243285D01*
X78295245Y-128671857D01*
X78223817Y-128814714D01*
X78152388Y-128886142D01*
X78009531Y-128957571D01*
X77723817Y-128957571D01*
X77580959Y-128886142D01*
X78938102Y-128814714D02*
X79009531Y-128886142D01*
X78938102Y-128957571D01*
X78866674Y-128886142D01*
X78938102Y-128814714D01*
X78938102Y-128957571D01*
X78938102Y-128029000D02*
X79009531Y-128100428D01*
X78938102Y-128171857D01*
X78866674Y-128100428D01*
X78938102Y-128029000D01*
X78938102Y-128171857D01*
X80795245Y-128957571D02*
X80795245Y-127457571D01*
X81366674Y-127457571D01*
X81509531Y-127529000D01*
X81580959Y-127600428D01*
X81652388Y-127743285D01*
X81652388Y-127957571D01*
X81580959Y-128100428D01*
X81509531Y-128171857D01*
X81366674Y-128243285D01*
X80795245Y-128243285D01*
X82866674Y-128886142D02*
X82723817Y-128957571D01*
X82438102Y-128957571D01*
X82295245Y-128886142D01*
X82223817Y-128743285D01*
X82223817Y-128171857D01*
X82295245Y-128029000D01*
X82438102Y-127957571D01*
X82723817Y-127957571D01*
X82866674Y-128029000D01*
X82938102Y-128171857D01*
X82938102Y-128314714D01*
X82223817Y-128457571D01*
X83580959Y-128957571D02*
X83580959Y-127957571D01*
X83580959Y-128243285D02*
X83652388Y-128100428D01*
X83723817Y-128029000D01*
X83866674Y-127957571D01*
X84009531Y-127957571D01*
X84509531Y-128957571D02*
X84509531Y-127457571D01*
X85009531Y-128529000D01*
X85509531Y-127457571D01*
X85509531Y-128957571D01*
X86866674Y-128957571D02*
X86866674Y-128171857D01*
X86795245Y-128029000D01*
X86652388Y-127957571D01*
X86366674Y-127957571D01*
X86223817Y-128029000D01*
X86866674Y-128886142D02*
X86723817Y-128957571D01*
X86366674Y-128957571D01*
X86223817Y-128886142D01*
X86152388Y-128743285D01*
X86152388Y-128600428D01*
X86223817Y-128457571D01*
X86366674Y-128386142D01*
X86723817Y-128386142D01*
X86866674Y-128314714D01*
X87795245Y-128957571D02*
X87652388Y-128886142D01*
X87580959Y-128743285D01*
X87580959Y-127457571D01*
X88366674Y-128957571D02*
X88366674Y-127957571D01*
X88366674Y-128100428D02*
X88438102Y-128029000D01*
X88580959Y-127957571D01*
X88795245Y-127957571D01*
X88938102Y-128029000D01*
X89009531Y-128171857D01*
X89009531Y-128957571D01*
X89009531Y-128171857D02*
X89080959Y-128029000D01*
X89223817Y-127957571D01*
X89438102Y-127957571D01*
X89580959Y-128029000D01*
X89652388Y-128171857D01*
X89652388Y-128957571D01*
X90366674Y-128957571D02*
X90366674Y-127457571D01*
X90366674Y-128029000D02*
X90509531Y-127957571D01*
X90795245Y-127957571D01*
X90938102Y-128029000D01*
X91009531Y-128100428D01*
X91080959Y-128243285D01*
X91080959Y-128671857D01*
X91009531Y-128814714D01*
X90938102Y-128886142D01*
X90795245Y-128957571D01*
X90509531Y-128957571D01*
X90366674Y-128886142D01*
X92295245Y-128886142D02*
X92152388Y-128957571D01*
X91866674Y-128957571D01*
X91723817Y-128886142D01*
X91652388Y-128743285D01*
X91652388Y-128171857D01*
X91723817Y-128029000D01*
X91866674Y-127957571D01*
X92152388Y-127957571D01*
X92295245Y-128029000D01*
X92366674Y-128171857D01*
X92366674Y-128314714D01*
X91652388Y-128457571D01*
X93009531Y-128957571D02*
X93009531Y-127957571D01*
X93009531Y-128243285D02*
X93080960Y-128100428D01*
X93152388Y-128029000D01*
X93295245Y-127957571D01*
X93438102Y-127957571D01*
X94580960Y-127957571D02*
X94580960Y-129171857D01*
X94509531Y-129314714D01*
X94438102Y-129386142D01*
X94295245Y-129457571D01*
X94080960Y-129457571D01*
X93938102Y-129386142D01*
X94580960Y-128886142D02*
X94438102Y-128957571D01*
X94152388Y-128957571D01*
X94009531Y-128886142D01*
X93938102Y-128814714D01*
X93866674Y-128671857D01*
X93866674Y-128243285D01*
X93938102Y-128100428D01*
X94009531Y-128029000D01*
X94152388Y-127957571D01*
X94438102Y-127957571D01*
X94580960Y-128029000D01*
D11*
G04 #@! TO.C,J103*
X98382880Y-53587840D02*
X98382880Y-52257840D01*
X98382880Y-52257840D02*
X99712880Y-52257840D01*
X98382880Y-54857840D02*
X100982880Y-54857840D01*
X100982880Y-54857840D02*
X100982880Y-52257840D01*
X100982880Y-52257840D02*
X134062880Y-52257840D01*
X134062880Y-57457840D02*
X134062880Y-52257840D01*
X98382880Y-57457840D02*
X134062880Y-57457840D01*
X98382880Y-57457840D02*
X98382880Y-54857840D01*
G04 #@! TO.C,J102*
X61664640Y-57462920D02*
X61664640Y-54862920D01*
X61664640Y-57462920D02*
X97344640Y-57462920D01*
X97344640Y-57462920D02*
X97344640Y-52262920D01*
X64264640Y-52262920D02*
X97344640Y-52262920D01*
X64264640Y-54862920D02*
X64264640Y-52262920D01*
X61664640Y-54862920D02*
X64264640Y-54862920D01*
X61664640Y-52262920D02*
X62994640Y-52262920D01*
X61664640Y-53592920D02*
X61664640Y-52262920D01*
G04 #@! TO.C,J4*
X102010000Y-118640000D02*
X107210000Y-118640000D01*
X102010000Y-108420000D02*
X102010000Y-118640000D01*
X107210000Y-105820000D02*
X107210000Y-118640000D01*
X102010000Y-108420000D02*
X104610000Y-108420000D01*
X104610000Y-108420000D02*
X104610000Y-105820000D01*
X104610000Y-105820000D02*
X107210000Y-105820000D01*
X102010000Y-107150000D02*
X102010000Y-105820000D01*
X102010000Y-105820000D02*
X103340000Y-105820000D01*
G04 #@! TO.C,J103*
D12*
X96395260Y-56143554D02*
X97109546Y-56143554D01*
X97252403Y-56191173D01*
X97347641Y-56286411D01*
X97395260Y-56429268D01*
X97395260Y-56524506D01*
X97395260Y-55143554D02*
X97395260Y-55714982D01*
X97395260Y-55429268D02*
X96395260Y-55429268D01*
X96538118Y-55524506D01*
X96633356Y-55619744D01*
X96680975Y-55714982D01*
X96395260Y-54524506D02*
X96395260Y-54429268D01*
X96442880Y-54334030D01*
X96490499Y-54286411D01*
X96585737Y-54238792D01*
X96776213Y-54191173D01*
X97014308Y-54191173D01*
X97204784Y-54238792D01*
X97300022Y-54286411D01*
X97347641Y-54334030D01*
X97395260Y-54429268D01*
X97395260Y-54524506D01*
X97347641Y-54619744D01*
X97300022Y-54667363D01*
X97204784Y-54714982D01*
X97014308Y-54762601D01*
X96776213Y-54762601D01*
X96585737Y-54714982D01*
X96490499Y-54667363D01*
X96442880Y-54619744D01*
X96395260Y-54524506D01*
X96395260Y-53857840D02*
X96395260Y-53238792D01*
X96776213Y-53572125D01*
X96776213Y-53429268D01*
X96823832Y-53334030D01*
X96871451Y-53286411D01*
X96966689Y-53238792D01*
X97204784Y-53238792D01*
X97300022Y-53286411D01*
X97347641Y-53334030D01*
X97395260Y-53429268D01*
X97395260Y-53714982D01*
X97347641Y-53810220D01*
X97300022Y-53857840D01*
G04 #@! TO.C,J102*
X59677020Y-56148634D02*
X60391306Y-56148634D01*
X60534163Y-56196253D01*
X60629401Y-56291491D01*
X60677020Y-56434348D01*
X60677020Y-56529586D01*
X60677020Y-55148634D02*
X60677020Y-55720062D01*
X60677020Y-55434348D02*
X59677020Y-55434348D01*
X59819878Y-55529586D01*
X59915116Y-55624824D01*
X59962735Y-55720062D01*
X59677020Y-54529586D02*
X59677020Y-54434348D01*
X59724640Y-54339110D01*
X59772259Y-54291491D01*
X59867497Y-54243872D01*
X60057973Y-54196253D01*
X60296068Y-54196253D01*
X60486544Y-54243872D01*
X60581782Y-54291491D01*
X60629401Y-54339110D01*
X60677020Y-54434348D01*
X60677020Y-54529586D01*
X60629401Y-54624824D01*
X60581782Y-54672443D01*
X60486544Y-54720062D01*
X60296068Y-54767681D01*
X60057973Y-54767681D01*
X59867497Y-54720062D01*
X59772259Y-54672443D01*
X59724640Y-54624824D01*
X59677020Y-54529586D01*
X59772259Y-53815300D02*
X59724640Y-53767681D01*
X59677020Y-53672443D01*
X59677020Y-53434348D01*
X59724640Y-53339110D01*
X59772259Y-53291491D01*
X59867497Y-53243872D01*
X59962735Y-53243872D01*
X60105592Y-53291491D01*
X60677020Y-53862920D01*
X60677020Y-53243872D01*
G04 #@! TO.C,J4*
X104276666Y-104272380D02*
X104276666Y-104986666D01*
X104229047Y-105129523D01*
X104133809Y-105224761D01*
X103990952Y-105272380D01*
X103895714Y-105272380D01*
X105181428Y-104605714D02*
X105181428Y-105272380D01*
X104943333Y-104224761D02*
X104705238Y-104939047D01*
X105324285Y-104939047D01*
G04 #@! TD*
M02*
