M48
;DRILL file {KiCad (5.0.0)} date 09/25/18 21:46:27
;FORMAT={-:-/ absolute / metric / decimal}
FMAT,2
METRIC,TZ
T1C0.400
T2C1.000
%
G90
G05
M71
T1
X51.1Y-51.07
X51.1Y-56.07
X51.1Y-61.07
X51.1Y-66.07
X51.1Y-71.07
X51.1Y-76.07
X51.1Y-81.07
X51.1Y-86.07
X51.1Y-91.07
X51.1Y-96.07
X51.1Y-101.07
X51.1Y-106.07
X51.1Y-111.07
X51.1Y-116.07
X51.1Y-121.07
X51.1Y-126.07
X51.1Y-131.07
X51.1Y-131.07
X55.08Y-131.87
X56.1Y-51.07
X61.1Y-51.07
X62.22Y-131.87
X66.1Y-51.07
X67.22Y-131.87
X71.1Y-51.07
X72.22Y-131.87
X72.479Y-113.161
X72.479Y-118.161
X72.479Y-123.161
X72.479Y-125.748
X76.1Y-51.07
X77.22Y-131.87
X77.479Y-113.161
X77.479Y-125.748
X81.1Y-51.07
X82.22Y-131.87
X82.479Y-113.161
X82.479Y-125.748
X85.193Y-113.161
X85.193Y-118.161
X85.193Y-123.161
X85.193Y-125.748
X86.1Y-51.07
X87.22Y-131.87
X91.1Y-51.07
X92.22Y-131.87
X96.1Y-51.07
X97.22Y-131.87
X101.1Y-51.07
X102.22Y-131.87
X105.753Y-104.525
X106.1Y-51.07
X107.22Y-131.87
X108.928Y-92.841
X108.928Y-97.841
X108.928Y-102.841
X108.928Y-107.841
X109.69Y-110.96
X109.69Y-113.5
X109.69Y-116.04
X109.69Y-118.58
X111.1Y-51.07
X112.22Y-131.87
X112.23Y-89.539
X113.373Y-107.827
X115.532Y-86.364
X116.1Y-51.07
X117.22Y-131.87
X118.199Y-83.316
X118.199Y-87.808
X118.199Y-92.808
X118.199Y-97.808
X118.199Y-102.808
X118.199Y-107.808
X121.1Y-51.07
X122.22Y-131.87
X123.66Y-110.96
X123.66Y-113.5
X123.66Y-116.04
X123.66Y-118.58
X126.1Y-51.07
X127.22Y-131.87
X130.01Y-72.86
X130.01Y-80.48
X133.76Y-51.07
X133.76Y-56.07
X133.76Y-61.07
X133.76Y-66.07
X133.76Y-71.07
X133.76Y-76.07
X133.76Y-81.07
X133.76Y-86.07
X133.76Y-91.07
X133.76Y-96.07
X133.76Y-101.07
X133.76Y-106.07
X133.76Y-111.07
X133.76Y-116.07
X133.76Y-121.07
X133.76Y-126.07
X133.76Y-131.07
T2
X126.929Y-94.98
X126.929Y-97.52
X126.929Y-100.06
X129.469Y-94.98
X129.469Y-97.52
X129.469Y-100.06
X126.929Y-82.767
X126.929Y-85.307
X126.929Y-87.847
X126.929Y-90.387
X129.469Y-82.767
X129.469Y-85.307
X129.469Y-87.847
X129.469Y-90.387
X56.35Y-94.069
X56.35Y-96.609
X56.35Y-99.149
X56.35Y-101.689
X56.35Y-104.229
X56.35Y-106.769
X56.35Y-109.309
X56.35Y-111.849
X56.35Y-114.389
X58.89Y-94.069
X58.89Y-96.609
X58.89Y-99.149
X58.89Y-101.689
X58.89Y-104.229
X58.89Y-106.769
X58.89Y-109.309
X58.89Y-111.849
X58.89Y-114.389
X56.35Y-55.08
X56.35Y-57.62
X56.35Y-60.16
X56.35Y-62.7
X56.35Y-65.24
X56.35Y-67.78
X56.35Y-70.32
X56.35Y-72.86
X56.35Y-75.4
X56.35Y-77.94
X56.35Y-80.48
X56.35Y-83.02
X56.35Y-85.56
X56.35Y-88.1
X58.89Y-55.08
X58.89Y-57.62
X58.89Y-60.16
X58.89Y-62.7
X58.89Y-65.24
X58.89Y-67.78
X58.89Y-70.32
X58.89Y-72.86
X58.89Y-75.4
X58.89Y-77.94
X58.89Y-80.48
X58.89Y-83.02
X58.89Y-85.56
X58.89Y-88.1
X103.34Y-107.15
X103.34Y-109.69
X103.34Y-112.23
X103.34Y-114.77
X103.34Y-117.31
X105.88Y-107.15
X105.88Y-109.69
X105.88Y-112.23
X105.88Y-114.77
X105.88Y-117.31
X126.969Y-104.552
X126.969Y-107.092
X126.969Y-109.632
X126.969Y-112.172
X126.969Y-114.712
X126.969Y-117.252
X126.969Y-119.792
X129.509Y-104.552
X129.509Y-107.092
X129.509Y-109.632
X129.509Y-112.172
X129.509Y-114.712
X129.509Y-117.252
X129.509Y-119.792
T0
M30
