G04 #@! TF.GenerationSoftware,KiCad,Pcbnew,5.0.2-bee76a0~70~ubuntu18.04.1*
G04 #@! TF.CreationDate,2019-01-23T21:03:19+01:00*
G04 #@! TF.ProjectId,ESP32-Wrover-kit-debug-breakout,45535033-322d-4577-926f-7665722d6b69,rev?*
G04 #@! TF.SameCoordinates,Original*
G04 #@! TF.FileFunction,Legend,Bot*
G04 #@! TF.FilePolarity,Positive*
%FSLAX46Y46*%
G04 Gerber Fmt 4.6, Leading zero omitted, Abs format (unit mm)*
G04 Created by KiCad (PCBNEW 5.0.2-bee76a0~70~ubuntu18.04.1) date ons 23 jan 2019 21:03:19*
%MOMM*%
%LPD*%
G01*
G04 APERTURE LIST*
%ADD10C,0.250000*%
%ADD11C,0.120000*%
%ADD12C,0.150000*%
G04 APERTURE END LIST*
D10*
X122835520Y-108160952D02*
X123549806Y-108160952D01*
X123692663Y-108113333D01*
X123787901Y-108018095D01*
X123835520Y-107875238D01*
X123835520Y-107780000D01*
X123835520Y-109113333D02*
X123835520Y-108637142D01*
X122835520Y-108637142D01*
X123740282Y-110018095D02*
X123787901Y-109970476D01*
X123835520Y-109827619D01*
X123835520Y-109732380D01*
X123787901Y-109589523D01*
X123692663Y-109494285D01*
X123597425Y-109446666D01*
X123406949Y-109399047D01*
X123264092Y-109399047D01*
X123073616Y-109446666D01*
X122978378Y-109494285D01*
X122883140Y-109589523D01*
X122835520Y-109732380D01*
X122835520Y-109827619D01*
X122883140Y-109970476D01*
X122930759Y-110018095D01*
X122835520Y-110732380D02*
X123549806Y-110732380D01*
X123692663Y-110684761D01*
X123787901Y-110589523D01*
X123835520Y-110446666D01*
X123835520Y-110351428D01*
X123835520Y-111684761D02*
X123835520Y-111208571D01*
X122835520Y-111208571D01*
X123740282Y-112589523D02*
X123787901Y-112541904D01*
X123835520Y-112399047D01*
X123835520Y-112303809D01*
X123787901Y-112160952D01*
X123692663Y-112065714D01*
X123597425Y-112018095D01*
X123406949Y-111970476D01*
X123264092Y-111970476D01*
X123073616Y-112018095D01*
X122978378Y-112065714D01*
X122883140Y-112160952D01*
X122835520Y-112303809D01*
X122835520Y-112399047D01*
X122883140Y-112541904D01*
X122930759Y-112589523D01*
X122835520Y-113303809D02*
X123549806Y-113303809D01*
X123692663Y-113256190D01*
X123787901Y-113160952D01*
X123835520Y-113018095D01*
X123835520Y-112922857D01*
X123835520Y-114256190D02*
X123835520Y-113780000D01*
X122835520Y-113780000D01*
X123740282Y-115160952D02*
X123787901Y-115113333D01*
X123835520Y-114970476D01*
X123835520Y-114875238D01*
X123787901Y-114732380D01*
X123692663Y-114637142D01*
X123597425Y-114589523D01*
X123406949Y-114541904D01*
X123264092Y-114541904D01*
X123073616Y-114589523D01*
X122978378Y-114637142D01*
X122883140Y-114732380D01*
X122835520Y-114875238D01*
X122835520Y-114970476D01*
X122883140Y-115113333D01*
X122930759Y-115160952D01*
X122835520Y-115875238D02*
X123549806Y-115875238D01*
X123692663Y-115827619D01*
X123787901Y-115732380D01*
X123835520Y-115589523D01*
X123835520Y-115494285D01*
X123835520Y-116827619D02*
X123835520Y-116351428D01*
X122835520Y-116351428D01*
X123740282Y-117732380D02*
X123787901Y-117684761D01*
X123835520Y-117541904D01*
X123835520Y-117446666D01*
X123787901Y-117303809D01*
X123692663Y-117208571D01*
X123597425Y-117160952D01*
X123406949Y-117113333D01*
X123264092Y-117113333D01*
X123073616Y-117160952D01*
X122978378Y-117208571D01*
X122883140Y-117303809D01*
X122835520Y-117446666D01*
X122835520Y-117541904D01*
X122883140Y-117684761D01*
X122930759Y-117732380D01*
D11*
G04 #@! TO.C,J101*
X120926000Y-103262000D02*
X118326000Y-103262000D01*
X120926000Y-103262000D02*
X120926000Y-121162000D01*
X120926000Y-121162000D02*
X115726000Y-121162000D01*
X115726000Y-105862000D02*
X115726000Y-121162000D01*
X118326000Y-105862000D02*
X115726000Y-105862000D01*
X118326000Y-103262000D02*
X118326000Y-105862000D01*
X115726000Y-103262000D02*
X115726000Y-104592000D01*
X117056000Y-103262000D02*
X115726000Y-103262000D01*
G04 #@! TO.C,J3*
X126929000Y-103262000D02*
X125599000Y-103262000D01*
X125599000Y-103262000D02*
X125599000Y-104592000D01*
X128199000Y-103262000D02*
X128199000Y-105862000D01*
X128199000Y-105862000D02*
X125599000Y-105862000D01*
X125599000Y-105862000D02*
X125599000Y-121162000D01*
X130799000Y-121162000D02*
X125599000Y-121162000D01*
X130799000Y-103262000D02*
X130799000Y-121162000D01*
X130799000Y-103262000D02*
X128199000Y-103262000D01*
G04 #@! TO.C,J1*
X56350000Y-53750000D02*
X55020000Y-53750000D01*
X55020000Y-53750000D02*
X55020000Y-55080000D01*
X57620000Y-53750000D02*
X57620000Y-56350000D01*
X57620000Y-56350000D02*
X55020000Y-56350000D01*
X55020000Y-56350000D02*
X55020000Y-89430000D01*
X60220000Y-89430000D02*
X55020000Y-89430000D01*
X60220000Y-53750000D02*
X60220000Y-89430000D01*
X60220000Y-53750000D02*
X57620000Y-53750000D01*
G04 #@! TO.C,J2*
X130799000Y-81437000D02*
X128199000Y-81437000D01*
X130799000Y-81437000D02*
X130799000Y-91717000D01*
X130799000Y-91717000D02*
X125599000Y-91717000D01*
X125599000Y-84037000D02*
X125599000Y-91717000D01*
X128199000Y-84037000D02*
X125599000Y-84037000D01*
X128199000Y-81437000D02*
X128199000Y-84037000D01*
X125599000Y-81437000D02*
X125599000Y-82767000D01*
X126929000Y-81437000D02*
X125599000Y-81437000D01*
G04 #@! TO.C,J101*
D12*
X119611714Y-101274380D02*
X119611714Y-101988666D01*
X119659333Y-102131523D01*
X119754571Y-102226761D01*
X119897428Y-102274380D01*
X119992666Y-102274380D01*
X118611714Y-102274380D02*
X119183142Y-102274380D01*
X118897428Y-102274380D02*
X118897428Y-101274380D01*
X118992666Y-101417238D01*
X119087904Y-101512476D01*
X119183142Y-101560095D01*
X117992666Y-101274380D02*
X117897428Y-101274380D01*
X117802190Y-101322000D01*
X117754571Y-101369619D01*
X117706952Y-101464857D01*
X117659333Y-101655333D01*
X117659333Y-101893428D01*
X117706952Y-102083904D01*
X117754571Y-102179142D01*
X117802190Y-102226761D01*
X117897428Y-102274380D01*
X117992666Y-102274380D01*
X118087904Y-102226761D01*
X118135523Y-102179142D01*
X118183142Y-102083904D01*
X118230761Y-101893428D01*
X118230761Y-101655333D01*
X118183142Y-101464857D01*
X118135523Y-101369619D01*
X118087904Y-101322000D01*
X117992666Y-101274380D01*
X116706952Y-102274380D02*
X117278380Y-102274380D01*
X116992666Y-102274380D02*
X116992666Y-101274380D01*
X117087904Y-101417238D01*
X117183142Y-101512476D01*
X117278380Y-101560095D01*
G04 #@! TO.C,J3*
X128532333Y-101274380D02*
X128532333Y-101988666D01*
X128579952Y-102131523D01*
X128675190Y-102226761D01*
X128818047Y-102274380D01*
X128913285Y-102274380D01*
X128151380Y-101274380D02*
X127532333Y-101274380D01*
X127865666Y-101655333D01*
X127722809Y-101655333D01*
X127627571Y-101702952D01*
X127579952Y-101750571D01*
X127532333Y-101845809D01*
X127532333Y-102083904D01*
X127579952Y-102179142D01*
X127627571Y-102226761D01*
X127722809Y-102274380D01*
X128008523Y-102274380D01*
X128103761Y-102226761D01*
X128151380Y-102179142D01*
G04 #@! TO.C,J1*
X57953333Y-51762380D02*
X57953333Y-52476666D01*
X58000952Y-52619523D01*
X58096190Y-52714761D01*
X58239047Y-52762380D01*
X58334285Y-52762380D01*
X56953333Y-52762380D02*
X57524761Y-52762380D01*
X57239047Y-52762380D02*
X57239047Y-51762380D01*
X57334285Y-51905238D01*
X57429523Y-52000476D01*
X57524761Y-52048095D01*
G04 #@! TO.C,J2*
X128532333Y-79449380D02*
X128532333Y-80163666D01*
X128579952Y-80306523D01*
X128675190Y-80401761D01*
X128818047Y-80449380D01*
X128913285Y-80449380D01*
X128103761Y-79544619D02*
X128056142Y-79497000D01*
X127960904Y-79449380D01*
X127722809Y-79449380D01*
X127627571Y-79497000D01*
X127579952Y-79544619D01*
X127532333Y-79639857D01*
X127532333Y-79735095D01*
X127579952Y-79877952D01*
X128151380Y-80449380D01*
X127532333Y-80449380D01*
G04 #@! TD*
M02*
