G04 #@! TF.GenerationSoftware,KiCad,Pcbnew,(5.0.0)*
G04 #@! TF.CreationDate,2018-09-25T21:46:24+02:00*
G04 #@! TF.ProjectId,ESP32-Wrover-kit-debug-breakout,45535033322D57726F7665722D6B6974,rev?*
G04 #@! TF.SameCoordinates,Original*
G04 #@! TF.FileFunction,Legend,Top*
G04 #@! TF.FilePolarity,Positive*
%FSLAX46Y46*%
G04 Gerber Fmt 4.6, Leading zero omitted, Abs format (unit mm)*
G04 Created by KiCad (PCBNEW (5.0.0)) date 09/25/18 21:46:24*
%MOMM*%
%LPD*%
G01*
G04 APERTURE LIST*
%ADD10C,0.300000*%
%ADD11C,0.120000*%
%ADD12C,0.150000*%
G04 APERTURE END LIST*
D10*
X100974571Y-107743571D02*
X100117428Y-107743571D01*
X100546000Y-107743571D02*
X100546000Y-106243571D01*
X100403142Y-106457857D01*
X100260285Y-106600714D01*
X100117428Y-106672142D01*
X68826714Y-53612857D02*
X69326714Y-53612857D01*
X69540999Y-54398571D02*
X68826714Y-54398571D01*
X68826714Y-52898571D01*
X69540999Y-52898571D01*
X70112428Y-54327142D02*
X70326714Y-54398571D01*
X70683857Y-54398571D01*
X70826714Y-54327142D01*
X70898142Y-54255714D01*
X70969571Y-54112857D01*
X70969571Y-53970000D01*
X70898142Y-53827142D01*
X70826714Y-53755714D01*
X70683857Y-53684285D01*
X70398142Y-53612857D01*
X70255285Y-53541428D01*
X70183857Y-53470000D01*
X70112428Y-53327142D01*
X70112428Y-53184285D01*
X70183857Y-53041428D01*
X70255285Y-52970000D01*
X70398142Y-52898571D01*
X70755285Y-52898571D01*
X70969571Y-52970000D01*
X71612428Y-54398571D02*
X71612428Y-52898571D01*
X72183857Y-52898571D01*
X72326714Y-52970000D01*
X72398142Y-53041428D01*
X72469571Y-53184285D01*
X72469571Y-53398571D01*
X72398142Y-53541428D01*
X72326714Y-53612857D01*
X72183857Y-53684285D01*
X71612428Y-53684285D01*
X72969571Y-52898571D02*
X73898142Y-52898571D01*
X73398142Y-53470000D01*
X73612428Y-53470000D01*
X73755285Y-53541428D01*
X73826714Y-53612857D01*
X73898142Y-53755714D01*
X73898142Y-54112857D01*
X73826714Y-54255714D01*
X73755285Y-54327142D01*
X73612428Y-54398571D01*
X73183857Y-54398571D01*
X73040999Y-54327142D01*
X72969571Y-54255714D01*
X74469571Y-53041428D02*
X74540999Y-52970000D01*
X74683857Y-52898571D01*
X75040999Y-52898571D01*
X75183857Y-52970000D01*
X75255285Y-53041428D01*
X75326714Y-53184285D01*
X75326714Y-53327142D01*
X75255285Y-53541428D01*
X74398142Y-54398571D01*
X75326714Y-54398571D01*
X76969571Y-52898571D02*
X77326714Y-54398571D01*
X77612428Y-53327142D01*
X77898142Y-54398571D01*
X78255285Y-52898571D01*
X78826714Y-54398571D02*
X78826714Y-53398571D01*
X78826714Y-53684285D02*
X78898142Y-53541428D01*
X78969571Y-53470000D01*
X79112428Y-53398571D01*
X79255285Y-53398571D01*
X79969571Y-54398571D02*
X79826714Y-54327142D01*
X79755285Y-54255714D01*
X79683857Y-54112857D01*
X79683857Y-53684285D01*
X79755285Y-53541428D01*
X79826714Y-53470000D01*
X79969571Y-53398571D01*
X80183857Y-53398571D01*
X80326714Y-53470000D01*
X80398142Y-53541428D01*
X80469571Y-53684285D01*
X80469571Y-54112857D01*
X80398142Y-54255714D01*
X80326714Y-54327142D01*
X80183857Y-54398571D01*
X79969571Y-54398571D01*
X80969571Y-53398571D02*
X81326714Y-54398571D01*
X81683857Y-53398571D01*
X82826714Y-54327142D02*
X82683857Y-54398571D01*
X82398142Y-54398571D01*
X82255285Y-54327142D01*
X82183857Y-54184285D01*
X82183857Y-53612857D01*
X82255285Y-53470000D01*
X82398142Y-53398571D01*
X82683857Y-53398571D01*
X82826714Y-53470000D01*
X82898142Y-53612857D01*
X82898142Y-53755714D01*
X82183857Y-53898571D01*
X83540999Y-54398571D02*
X83540999Y-53398571D01*
X83540999Y-53684285D02*
X83612428Y-53541428D01*
X83683857Y-53470000D01*
X83826714Y-53398571D01*
X83969571Y-53398571D01*
X85612428Y-54398571D02*
X85612428Y-52898571D01*
X86469571Y-54398571D02*
X85826714Y-53541428D01*
X86469571Y-52898571D02*
X85612428Y-53755714D01*
X87112428Y-54398571D02*
X87112428Y-53398571D01*
X87112428Y-52898571D02*
X87040999Y-52970000D01*
X87112428Y-53041428D01*
X87183857Y-52970000D01*
X87112428Y-52898571D01*
X87112428Y-53041428D01*
X87612428Y-53398571D02*
X88183857Y-53398571D01*
X87826714Y-52898571D02*
X87826714Y-54184285D01*
X87898142Y-54327142D01*
X88040999Y-54398571D01*
X88183857Y-54398571D01*
X89826714Y-54398571D02*
X89826714Y-52898571D01*
X89826714Y-53470000D02*
X89969571Y-53398571D01*
X90255285Y-53398571D01*
X90398142Y-53470000D01*
X90469571Y-53541428D01*
X90540999Y-53684285D01*
X90540999Y-54112857D01*
X90469571Y-54255714D01*
X90398142Y-54327142D01*
X90255285Y-54398571D01*
X89969571Y-54398571D01*
X89826714Y-54327142D01*
X91183857Y-54398571D02*
X91183857Y-53398571D01*
X91183857Y-53684285D02*
X91255285Y-53541428D01*
X91326714Y-53470000D01*
X91469571Y-53398571D01*
X91612428Y-53398571D01*
X92683857Y-54327142D02*
X92540999Y-54398571D01*
X92255285Y-54398571D01*
X92112428Y-54327142D01*
X92040999Y-54184285D01*
X92040999Y-53612857D01*
X92112428Y-53470000D01*
X92255285Y-53398571D01*
X92540999Y-53398571D01*
X92683857Y-53470000D01*
X92755285Y-53612857D01*
X92755285Y-53755714D01*
X92040999Y-53898571D01*
X94040999Y-54398571D02*
X94040999Y-53612857D01*
X93969571Y-53470000D01*
X93826714Y-53398571D01*
X93540999Y-53398571D01*
X93398142Y-53470000D01*
X94040999Y-54327142D02*
X93898142Y-54398571D01*
X93540999Y-54398571D01*
X93398142Y-54327142D01*
X93326714Y-54184285D01*
X93326714Y-54041428D01*
X93398142Y-53898571D01*
X93540999Y-53827142D01*
X93898142Y-53827142D01*
X94040999Y-53755714D01*
X94755285Y-54398571D02*
X94755285Y-52898571D01*
X94898142Y-53827142D02*
X95326714Y-54398571D01*
X95326714Y-53398571D02*
X94755285Y-53970000D01*
X96183857Y-54398571D02*
X96040999Y-54327142D01*
X95969571Y-54255714D01*
X95898142Y-54112857D01*
X95898142Y-53684285D01*
X95969571Y-53541428D01*
X96040999Y-53470000D01*
X96183857Y-53398571D01*
X96398142Y-53398571D01*
X96540999Y-53470000D01*
X96612428Y-53541428D01*
X96683857Y-53684285D01*
X96683857Y-54112857D01*
X96612428Y-54255714D01*
X96540999Y-54327142D01*
X96398142Y-54398571D01*
X96183857Y-54398571D01*
X97969571Y-53398571D02*
X97969571Y-54398571D01*
X97326714Y-53398571D02*
X97326714Y-54184285D01*
X97398142Y-54327142D01*
X97540999Y-54398571D01*
X97755285Y-54398571D01*
X97898142Y-54327142D01*
X97969571Y-54255714D01*
X98469571Y-53398571D02*
X99040999Y-53398571D01*
X98683857Y-52898571D02*
X98683857Y-54184285D01*
X98755285Y-54327142D01*
X98898142Y-54398571D01*
X99040999Y-54398571D01*
X100683857Y-54398571D02*
X100683857Y-52898571D01*
X100683857Y-53470000D02*
X100826714Y-53398571D01*
X101112428Y-53398571D01*
X101255285Y-53470000D01*
X101326714Y-53541428D01*
X101398142Y-53684285D01*
X101398142Y-54112857D01*
X101326714Y-54255714D01*
X101255285Y-54327142D01*
X101112428Y-54398571D01*
X100826714Y-54398571D01*
X100683857Y-54327142D01*
X102255285Y-54398571D02*
X102112428Y-54327142D01*
X102041000Y-54255714D01*
X101969571Y-54112857D01*
X101969571Y-53684285D01*
X102041000Y-53541428D01*
X102112428Y-53470000D01*
X102255285Y-53398571D01*
X102469571Y-53398571D01*
X102612428Y-53470000D01*
X102683857Y-53541428D01*
X102755285Y-53684285D01*
X102755285Y-54112857D01*
X102683857Y-54255714D01*
X102612428Y-54327142D01*
X102469571Y-54398571D01*
X102255285Y-54398571D01*
X104041000Y-54398571D02*
X104041000Y-53612857D01*
X103969571Y-53470000D01*
X103826714Y-53398571D01*
X103541000Y-53398571D01*
X103398142Y-53470000D01*
X104041000Y-54327142D02*
X103898142Y-54398571D01*
X103541000Y-54398571D01*
X103398142Y-54327142D01*
X103326714Y-54184285D01*
X103326714Y-54041428D01*
X103398142Y-53898571D01*
X103541000Y-53827142D01*
X103898142Y-53827142D01*
X104041000Y-53755714D01*
X104755285Y-54398571D02*
X104755285Y-53398571D01*
X104755285Y-53684285D02*
X104826714Y-53541428D01*
X104898142Y-53470000D01*
X105041000Y-53398571D01*
X105183857Y-53398571D01*
X106326714Y-54398571D02*
X106326714Y-52898571D01*
X106326714Y-54327142D02*
X106183857Y-54398571D01*
X105898142Y-54398571D01*
X105755285Y-54327142D01*
X105683857Y-54255714D01*
X105612428Y-54112857D01*
X105612428Y-53684285D01*
X105683857Y-53541428D01*
X105755285Y-53470000D01*
X105898142Y-53398571D01*
X106183857Y-53398571D01*
X106326714Y-53470000D01*
X108541000Y-54898571D02*
X108541000Y-52755714D01*
X110683857Y-53041428D02*
X110755285Y-52970000D01*
X110898142Y-52898571D01*
X111255285Y-52898571D01*
X111398142Y-52970000D01*
X111469571Y-53041428D01*
X111540999Y-53184285D01*
X111540999Y-53327142D01*
X111469571Y-53541428D01*
X110612428Y-54398571D01*
X111540999Y-54398571D01*
X112469571Y-52898571D02*
X112612428Y-52898571D01*
X112755285Y-52970000D01*
X112826714Y-53041428D01*
X112898142Y-53184285D01*
X112969571Y-53470000D01*
X112969571Y-53827142D01*
X112898142Y-54112857D01*
X112826714Y-54255714D01*
X112755285Y-54327142D01*
X112612428Y-54398571D01*
X112469571Y-54398571D01*
X112326714Y-54327142D01*
X112255285Y-54255714D01*
X112183857Y-54112857D01*
X112112428Y-53827142D01*
X112112428Y-53470000D01*
X112183857Y-53184285D01*
X112255285Y-53041428D01*
X112326714Y-52970000D01*
X112469571Y-52898571D01*
X114398142Y-54398571D02*
X113540999Y-54398571D01*
X113969571Y-54398571D02*
X113969571Y-52898571D01*
X113826714Y-53112857D01*
X113683857Y-53255714D01*
X113540999Y-53327142D01*
X115255285Y-53541428D02*
X115112428Y-53470000D01*
X115040999Y-53398571D01*
X114969571Y-53255714D01*
X114969571Y-53184285D01*
X115040999Y-53041428D01*
X115112428Y-52970000D01*
X115255285Y-52898571D01*
X115540999Y-52898571D01*
X115683857Y-52970000D01*
X115755285Y-53041428D01*
X115826714Y-53184285D01*
X115826714Y-53255714D01*
X115755285Y-53398571D01*
X115683857Y-53470000D01*
X115540999Y-53541428D01*
X115255285Y-53541428D01*
X115112428Y-53612857D01*
X115040999Y-53684285D01*
X114969571Y-53827142D01*
X114969571Y-54112857D01*
X115040999Y-54255714D01*
X115112428Y-54327142D01*
X115255285Y-54398571D01*
X115540999Y-54398571D01*
X115683857Y-54327142D01*
X115755285Y-54255714D01*
X115826714Y-54112857D01*
X115826714Y-53827142D01*
X115755285Y-53684285D01*
X115683857Y-53612857D01*
X115540999Y-53541428D01*
X68469571Y-55520000D02*
X68326714Y-55448571D01*
X68112428Y-55448571D01*
X67898142Y-55520000D01*
X67755285Y-55662857D01*
X67683857Y-55805714D01*
X67612428Y-56091428D01*
X67612428Y-56305714D01*
X67683857Y-56591428D01*
X67755285Y-56734285D01*
X67898142Y-56877142D01*
X68112428Y-56948571D01*
X68255285Y-56948571D01*
X68469571Y-56877142D01*
X68541000Y-56805714D01*
X68541000Y-56305714D01*
X68255285Y-56305714D01*
X69183857Y-56948571D02*
X69183857Y-55948571D01*
X69183857Y-55448571D02*
X69112428Y-55520000D01*
X69183857Y-55591428D01*
X69255285Y-55520000D01*
X69183857Y-55448571D01*
X69183857Y-55591428D01*
X69683857Y-55948571D02*
X70255285Y-55948571D01*
X69898142Y-55448571D02*
X69898142Y-56734285D01*
X69969571Y-56877142D01*
X70112428Y-56948571D01*
X70255285Y-56948571D01*
X70755285Y-56948571D02*
X70755285Y-55448571D01*
X70755285Y-56162857D02*
X71612428Y-56162857D01*
X71612428Y-56948571D02*
X71612428Y-55448571D01*
X72969571Y-55948571D02*
X72969571Y-56948571D01*
X72326714Y-55948571D02*
X72326714Y-56734285D01*
X72398142Y-56877142D01*
X72541000Y-56948571D01*
X72755285Y-56948571D01*
X72898142Y-56877142D01*
X72969571Y-56805714D01*
X73683857Y-56948571D02*
X73683857Y-55448571D01*
X73683857Y-56020000D02*
X73826714Y-55948571D01*
X74112428Y-55948571D01*
X74255285Y-56020000D01*
X74326714Y-56091428D01*
X74398142Y-56234285D01*
X74398142Y-56662857D01*
X74326714Y-56805714D01*
X74255285Y-56877142D01*
X74112428Y-56948571D01*
X73826714Y-56948571D01*
X73683857Y-56877142D01*
X75041000Y-56805714D02*
X75112428Y-56877142D01*
X75041000Y-56948571D01*
X74969571Y-56877142D01*
X75041000Y-56805714D01*
X75041000Y-56948571D01*
X75041000Y-56020000D02*
X75112428Y-56091428D01*
X75041000Y-56162857D01*
X74969571Y-56091428D01*
X75041000Y-56020000D01*
X75041000Y-56162857D01*
X76898142Y-56948571D02*
X76898142Y-55448571D01*
X77469571Y-55448571D01*
X77612428Y-55520000D01*
X77683857Y-55591428D01*
X77755285Y-55734285D01*
X77755285Y-55948571D01*
X77683857Y-56091428D01*
X77612428Y-56162857D01*
X77469571Y-56234285D01*
X76898142Y-56234285D01*
X78969571Y-56877142D02*
X78826714Y-56948571D01*
X78541000Y-56948571D01*
X78398142Y-56877142D01*
X78326714Y-56734285D01*
X78326714Y-56162857D01*
X78398142Y-56020000D01*
X78541000Y-55948571D01*
X78826714Y-55948571D01*
X78969571Y-56020000D01*
X79041000Y-56162857D01*
X79041000Y-56305714D01*
X78326714Y-56448571D01*
X79683857Y-56948571D02*
X79683857Y-55948571D01*
X79683857Y-56234285D02*
X79755285Y-56091428D01*
X79826714Y-56020000D01*
X79969571Y-55948571D01*
X80112428Y-55948571D01*
X80612428Y-56948571D02*
X80612428Y-55448571D01*
X81112428Y-56520000D01*
X81612428Y-55448571D01*
X81612428Y-56948571D01*
X82969571Y-56948571D02*
X82969571Y-56162857D01*
X82898142Y-56020000D01*
X82755285Y-55948571D01*
X82469571Y-55948571D01*
X82326714Y-56020000D01*
X82969571Y-56877142D02*
X82826714Y-56948571D01*
X82469571Y-56948571D01*
X82326714Y-56877142D01*
X82255285Y-56734285D01*
X82255285Y-56591428D01*
X82326714Y-56448571D01*
X82469571Y-56377142D01*
X82826714Y-56377142D01*
X82969571Y-56305714D01*
X83898142Y-56948571D02*
X83755285Y-56877142D01*
X83683857Y-56734285D01*
X83683857Y-55448571D01*
X84469571Y-56948571D02*
X84469571Y-55948571D01*
X84469571Y-56091428D02*
X84541000Y-56020000D01*
X84683857Y-55948571D01*
X84898142Y-55948571D01*
X85041000Y-56020000D01*
X85112428Y-56162857D01*
X85112428Y-56948571D01*
X85112428Y-56162857D02*
X85183857Y-56020000D01*
X85326714Y-55948571D01*
X85541000Y-55948571D01*
X85683857Y-56020000D01*
X85755285Y-56162857D01*
X85755285Y-56948571D01*
X86469571Y-56948571D02*
X86469571Y-55448571D01*
X86469571Y-56020000D02*
X86612428Y-55948571D01*
X86898142Y-55948571D01*
X87041000Y-56020000D01*
X87112428Y-56091428D01*
X87183857Y-56234285D01*
X87183857Y-56662857D01*
X87112428Y-56805714D01*
X87041000Y-56877142D01*
X86898142Y-56948571D01*
X86612428Y-56948571D01*
X86469571Y-56877142D01*
X88398142Y-56877142D02*
X88255285Y-56948571D01*
X87969571Y-56948571D01*
X87826714Y-56877142D01*
X87755285Y-56734285D01*
X87755285Y-56162857D01*
X87826714Y-56020000D01*
X87969571Y-55948571D01*
X88255285Y-55948571D01*
X88398142Y-56020000D01*
X88469571Y-56162857D01*
X88469571Y-56305714D01*
X87755285Y-56448571D01*
X89112428Y-56948571D02*
X89112428Y-55948571D01*
X89112428Y-56234285D02*
X89183857Y-56091428D01*
X89255285Y-56020000D01*
X89398142Y-55948571D01*
X89541000Y-55948571D01*
X90683857Y-55948571D02*
X90683857Y-57162857D01*
X90612428Y-57305714D01*
X90541000Y-57377142D01*
X90398142Y-57448571D01*
X90183857Y-57448571D01*
X90041000Y-57377142D01*
X90683857Y-56877142D02*
X90541000Y-56948571D01*
X90255285Y-56948571D01*
X90112428Y-56877142D01*
X90041000Y-56805714D01*
X89969571Y-56662857D01*
X89969571Y-56234285D01*
X90041000Y-56091428D01*
X90112428Y-56020000D01*
X90255285Y-55948571D01*
X90541000Y-55948571D01*
X90683857Y-56020000D01*
X92898142Y-57448571D02*
X92898142Y-55305714D01*
X95112428Y-56948571D02*
X95112428Y-55448571D01*
X96683857Y-56948571D02*
X96183857Y-56234285D01*
X95826714Y-56948571D02*
X95826714Y-55448571D01*
X96398142Y-55448571D01*
X96541000Y-55520000D01*
X96612428Y-55591428D01*
X96683857Y-55734285D01*
X96683857Y-55948571D01*
X96612428Y-56091428D01*
X96541000Y-56162857D01*
X96398142Y-56234285D01*
X95826714Y-56234285D01*
X98183857Y-56805714D02*
X98112428Y-56877142D01*
X97898142Y-56948571D01*
X97755285Y-56948571D01*
X97541000Y-56877142D01*
X97398142Y-56734285D01*
X97326714Y-56591428D01*
X97255285Y-56305714D01*
X97255285Y-56091428D01*
X97326714Y-55805714D01*
X97398142Y-55662857D01*
X97541000Y-55520000D01*
X97755285Y-55448571D01*
X97898142Y-55448571D01*
X98112428Y-55520000D01*
X98183857Y-55591428D01*
X99898142Y-55377142D02*
X98612428Y-57305714D01*
X100183857Y-55948571D02*
X100755285Y-55948571D01*
X100398142Y-56948571D02*
X100398142Y-55662857D01*
X100469571Y-55520000D01*
X100612428Y-55448571D01*
X100755285Y-55448571D01*
X101255285Y-56948571D02*
X101255285Y-55948571D01*
X101255285Y-56234285D02*
X101326714Y-56091428D01*
X101398142Y-56020000D01*
X101541000Y-55948571D01*
X101683857Y-55948571D01*
X102755285Y-56877142D02*
X102612428Y-56948571D01*
X102326714Y-56948571D01*
X102183857Y-56877142D01*
X102112428Y-56734285D01*
X102112428Y-56162857D01*
X102183857Y-56020000D01*
X102326714Y-55948571D01*
X102612428Y-55948571D01*
X102755285Y-56020000D01*
X102826714Y-56162857D01*
X102826714Y-56305714D01*
X102112428Y-56448571D01*
X104040999Y-56877142D02*
X103898142Y-56948571D01*
X103612428Y-56948571D01*
X103469571Y-56877142D01*
X103398142Y-56734285D01*
X103398142Y-56162857D01*
X103469571Y-56020000D01*
X103612428Y-55948571D01*
X103898142Y-55948571D01*
X104040999Y-56020000D01*
X104112428Y-56162857D01*
X104112428Y-56305714D01*
X103398142Y-56448571D01*
X104755285Y-55948571D02*
X104755285Y-56948571D01*
X104755285Y-56091428D02*
X104826714Y-56020000D01*
X104969571Y-55948571D01*
X105183857Y-55948571D01*
X105326714Y-56020000D01*
X105398142Y-56162857D01*
X105398142Y-56948571D01*
X106326714Y-56948571D02*
X106183857Y-56877142D01*
X106112428Y-56805714D01*
X106040999Y-56662857D01*
X106040999Y-56234285D01*
X106112428Y-56091428D01*
X106183857Y-56020000D01*
X106326714Y-55948571D01*
X106540999Y-55948571D01*
X106683857Y-56020000D01*
X106755285Y-56091428D01*
X106826714Y-56234285D01*
X106826714Y-56662857D01*
X106755285Y-56805714D01*
X106683857Y-56877142D01*
X106540999Y-56948571D01*
X106326714Y-56948571D01*
X108112428Y-56948571D02*
X108112428Y-55448571D01*
X108112428Y-56877142D02*
X107969571Y-56948571D01*
X107683857Y-56948571D01*
X107540999Y-56877142D01*
X107469571Y-56805714D01*
X107398142Y-56662857D01*
X107398142Y-56234285D01*
X107469571Y-56091428D01*
X107540999Y-56020000D01*
X107683857Y-55948571D01*
X107969571Y-55948571D01*
X108112428Y-56020000D01*
X109398142Y-56877142D02*
X109255285Y-56948571D01*
X108969571Y-56948571D01*
X108826714Y-56877142D01*
X108755285Y-56734285D01*
X108755285Y-56162857D01*
X108826714Y-56020000D01*
X108969571Y-55948571D01*
X109255285Y-55948571D01*
X109398142Y-56020000D01*
X109469571Y-56162857D01*
X109469571Y-56305714D01*
X108755285Y-56448571D01*
X110112428Y-56805714D02*
X110183857Y-56877142D01*
X110112428Y-56948571D01*
X110040999Y-56877142D01*
X110112428Y-56805714D01*
X110112428Y-56948571D01*
X110112428Y-56020000D02*
X110183857Y-56091428D01*
X110112428Y-56162857D01*
X110040999Y-56091428D01*
X110112428Y-56020000D01*
X110112428Y-56162857D01*
X112255285Y-56234285D02*
X112255285Y-56948571D01*
X111755285Y-55448571D02*
X112255285Y-56234285D01*
X112755285Y-55448571D01*
X113469571Y-56948571D02*
X113326714Y-56877142D01*
X113255285Y-56805714D01*
X113183857Y-56662857D01*
X113183857Y-56234285D01*
X113255285Y-56091428D01*
X113326714Y-56020000D01*
X113469571Y-55948571D01*
X113683857Y-55948571D01*
X113826714Y-56020000D01*
X113898142Y-56091428D01*
X113969571Y-56234285D01*
X113969571Y-56662857D01*
X113898142Y-56805714D01*
X113826714Y-56877142D01*
X113683857Y-56948571D01*
X113469571Y-56948571D01*
X115255285Y-56948571D02*
X115255285Y-56162857D01*
X115183857Y-56020000D01*
X115040999Y-55948571D01*
X114755285Y-55948571D01*
X114612428Y-56020000D01*
X115255285Y-56877142D02*
X115112428Y-56948571D01*
X114755285Y-56948571D01*
X114612428Y-56877142D01*
X114540999Y-56734285D01*
X114540999Y-56591428D01*
X114612428Y-56448571D01*
X114755285Y-56377142D01*
X115112428Y-56377142D01*
X115255285Y-56305714D01*
X115969571Y-56948571D02*
X115969571Y-55948571D01*
X115969571Y-56234285D02*
X116040999Y-56091428D01*
X116112428Y-56020000D01*
X116255285Y-55948571D01*
X116398142Y-55948571D01*
X116898142Y-56948571D02*
X116898142Y-55948571D01*
X116898142Y-55448571D02*
X116826714Y-55520000D01*
X116898142Y-55591428D01*
X116969571Y-55520000D01*
X116898142Y-55448571D01*
X116898142Y-55591428D01*
D11*
G04 #@! TO.C,J106*
X102010000Y-118640000D02*
X107210000Y-118640000D01*
X102010000Y-108420000D02*
X102010000Y-118640000D01*
X107210000Y-105820000D02*
X107210000Y-118640000D01*
X102010000Y-108420000D02*
X104610000Y-108420000D01*
X104610000Y-108420000D02*
X104610000Y-105820000D01*
X104610000Y-105820000D02*
X107210000Y-105820000D01*
X102010000Y-107150000D02*
X102010000Y-105820000D01*
X102010000Y-105820000D02*
X103340000Y-105820000D01*
D12*
X103324285Y-104272380D02*
X103324285Y-104986666D01*
X103276666Y-105129523D01*
X103181428Y-105224761D01*
X103038571Y-105272380D01*
X102943333Y-105272380D01*
X104324285Y-105272380D02*
X103752857Y-105272380D01*
X104038571Y-105272380D02*
X104038571Y-104272380D01*
X103943333Y-104415238D01*
X103848095Y-104510476D01*
X103752857Y-104558095D01*
X104943333Y-104272380D02*
X105038571Y-104272380D01*
X105133809Y-104320000D01*
X105181428Y-104367619D01*
X105229047Y-104462857D01*
X105276666Y-104653333D01*
X105276666Y-104891428D01*
X105229047Y-105081904D01*
X105181428Y-105177142D01*
X105133809Y-105224761D01*
X105038571Y-105272380D01*
X104943333Y-105272380D01*
X104848095Y-105224761D01*
X104800476Y-105177142D01*
X104752857Y-105081904D01*
X104705238Y-104891428D01*
X104705238Y-104653333D01*
X104752857Y-104462857D01*
X104800476Y-104367619D01*
X104848095Y-104320000D01*
X104943333Y-104272380D01*
X106133809Y-104272380D02*
X105943333Y-104272380D01*
X105848095Y-104320000D01*
X105800476Y-104367619D01*
X105705238Y-104510476D01*
X105657619Y-104700952D01*
X105657619Y-105081904D01*
X105705238Y-105177142D01*
X105752857Y-105224761D01*
X105848095Y-105272380D01*
X106038571Y-105272380D01*
X106133809Y-105224761D01*
X106181428Y-105177142D01*
X106229047Y-105081904D01*
X106229047Y-104843809D01*
X106181428Y-104748571D01*
X106133809Y-104700952D01*
X106038571Y-104653333D01*
X105848095Y-104653333D01*
X105752857Y-104700952D01*
X105705238Y-104748571D01*
X105657619Y-104843809D01*
G04 #@! TD*
M02*
