G04 #@! TF.GenerationSoftware,KiCad,Pcbnew,(5.0.0)*
G04 #@! TF.CreationDate,2018-09-25T21:46:24+02:00*
G04 #@! TF.ProjectId,ESP32-Wrover-kit-debug-breakout,45535033322D57726F7665722D6B6974,rev?*
G04 #@! TF.SameCoordinates,Original*
G04 #@! TF.FileFunction,Legend,Bot*
G04 #@! TF.FilePolarity,Positive*
%FSLAX46Y46*%
G04 Gerber Fmt 4.6, Leading zero omitted, Abs format (unit mm)*
G04 Created by KiCad (PCBNEW (5.0.0)) date 09/25/18 21:46:24*
%MOMM*%
%LPD*%
G01*
G04 APERTURE LIST*
%ADD10C,0.250000*%
%ADD11C,0.120000*%
%ADD12C,0.150000*%
G04 APERTURE END LIST*
D10*
X95767047Y-52669380D02*
X95767047Y-53383666D01*
X95814666Y-53526523D01*
X95909904Y-53621761D01*
X96052761Y-53669380D01*
X96148000Y-53669380D01*
X94814666Y-53669380D02*
X95290857Y-53669380D01*
X95290857Y-52669380D01*
X93909904Y-53574142D02*
X93957523Y-53621761D01*
X94100380Y-53669380D01*
X94195619Y-53669380D01*
X94338476Y-53621761D01*
X94433714Y-53526523D01*
X94481333Y-53431285D01*
X94528952Y-53240809D01*
X94528952Y-53097952D01*
X94481333Y-52907476D01*
X94433714Y-52812238D01*
X94338476Y-52717000D01*
X94195619Y-52669380D01*
X94100380Y-52669380D01*
X93957523Y-52717000D01*
X93909904Y-52764619D01*
X93195619Y-52669380D02*
X93195619Y-53383666D01*
X93243238Y-53526523D01*
X93338476Y-53621761D01*
X93481333Y-53669380D01*
X93576571Y-53669380D01*
X92243238Y-53669380D02*
X92719428Y-53669380D01*
X92719428Y-52669380D01*
X91338476Y-53574142D02*
X91386095Y-53621761D01*
X91528952Y-53669380D01*
X91624190Y-53669380D01*
X91767047Y-53621761D01*
X91862285Y-53526523D01*
X91909904Y-53431285D01*
X91957523Y-53240809D01*
X91957523Y-53097952D01*
X91909904Y-52907476D01*
X91862285Y-52812238D01*
X91767047Y-52717000D01*
X91624190Y-52669380D01*
X91528952Y-52669380D01*
X91386095Y-52717000D01*
X91338476Y-52764619D01*
X90624190Y-52669380D02*
X90624190Y-53383666D01*
X90671809Y-53526523D01*
X90767047Y-53621761D01*
X90909904Y-53669380D01*
X91005142Y-53669380D01*
X89671809Y-53669380D02*
X90148000Y-53669380D01*
X90148000Y-52669380D01*
X88767047Y-53574142D02*
X88814666Y-53621761D01*
X88957523Y-53669380D01*
X89052761Y-53669380D01*
X89195619Y-53621761D01*
X89290857Y-53526523D01*
X89338476Y-53431285D01*
X89386095Y-53240809D01*
X89386095Y-53097952D01*
X89338476Y-52907476D01*
X89290857Y-52812238D01*
X89195619Y-52717000D01*
X89052761Y-52669380D01*
X88957523Y-52669380D01*
X88814666Y-52717000D01*
X88767047Y-52764619D01*
X88052761Y-52669380D02*
X88052761Y-53383666D01*
X88100380Y-53526523D01*
X88195619Y-53621761D01*
X88338476Y-53669380D01*
X88433714Y-53669380D01*
X87100380Y-53669380D02*
X87576571Y-53669380D01*
X87576571Y-52669380D01*
X86195619Y-53574142D02*
X86243238Y-53621761D01*
X86386095Y-53669380D01*
X86481333Y-53669380D01*
X86624190Y-53621761D01*
X86719428Y-53526523D01*
X86767047Y-53431285D01*
X86814666Y-53240809D01*
X86814666Y-53097952D01*
X86767047Y-52907476D01*
X86719428Y-52812238D01*
X86624190Y-52717000D01*
X86481333Y-52669380D01*
X86386095Y-52669380D01*
X86243238Y-52717000D01*
X86195619Y-52764619D01*
D11*
G04 #@! TO.C,J101*
X60220000Y-53750000D02*
X57620000Y-53750000D01*
X60220000Y-53750000D02*
X60220000Y-89430000D01*
X60220000Y-89430000D02*
X55020000Y-89430000D01*
X55020000Y-56350000D02*
X55020000Y-89430000D01*
X57620000Y-56350000D02*
X55020000Y-56350000D01*
X57620000Y-53750000D02*
X57620000Y-56350000D01*
X55020000Y-53750000D02*
X55020000Y-55080000D01*
X56350000Y-53750000D02*
X55020000Y-53750000D01*
G04 #@! TO.C,J102*
X55020000Y-92739000D02*
X60220000Y-92739000D01*
X55020000Y-113119000D02*
X55020000Y-92739000D01*
X60220000Y-115719000D02*
X60220000Y-92739000D01*
X55020000Y-113119000D02*
X57620000Y-113119000D01*
X57620000Y-113119000D02*
X57620000Y-115719000D01*
X57620000Y-115719000D02*
X60220000Y-115719000D01*
X55020000Y-114389000D02*
X55020000Y-115719000D01*
X55020000Y-115719000D02*
X56350000Y-115719000D01*
G04 #@! TO.C,J104*
X130799000Y-93650000D02*
X128199000Y-93650000D01*
X130799000Y-93650000D02*
X130799000Y-101390000D01*
X130799000Y-101390000D02*
X125599000Y-101390000D01*
X125599000Y-96250000D02*
X125599000Y-101390000D01*
X128199000Y-96250000D02*
X125599000Y-96250000D01*
X128199000Y-93650000D02*
X128199000Y-96250000D01*
X125599000Y-93650000D02*
X125599000Y-94980000D01*
X126929000Y-93650000D02*
X125599000Y-93650000D01*
G04 #@! TO.C,J103*
X130799000Y-81437000D02*
X128199000Y-81437000D01*
X130799000Y-81437000D02*
X130799000Y-91717000D01*
X130799000Y-91717000D02*
X125599000Y-91717000D01*
X125599000Y-84037000D02*
X125599000Y-91717000D01*
X128199000Y-84037000D02*
X125599000Y-84037000D01*
X128199000Y-81437000D02*
X128199000Y-84037000D01*
X125599000Y-81437000D02*
X125599000Y-82767000D01*
X126929000Y-81437000D02*
X125599000Y-81437000D01*
G04 #@! TO.C,J105*
X125639000Y-121122000D02*
X128239000Y-121122000D01*
X125639000Y-121122000D02*
X125639000Y-103222000D01*
X125639000Y-103222000D02*
X130839000Y-103222000D01*
X130839000Y-118522000D02*
X130839000Y-103222000D01*
X128239000Y-118522000D02*
X130839000Y-118522000D01*
X128239000Y-121122000D02*
X128239000Y-118522000D01*
X130839000Y-121122000D02*
X130839000Y-119792000D01*
X129509000Y-121122000D02*
X130839000Y-121122000D01*
G04 #@! TO.C,J101*
D12*
X58905714Y-51762380D02*
X58905714Y-52476666D01*
X58953333Y-52619523D01*
X59048571Y-52714761D01*
X59191428Y-52762380D01*
X59286666Y-52762380D01*
X57905714Y-52762380D02*
X58477142Y-52762380D01*
X58191428Y-52762380D02*
X58191428Y-51762380D01*
X58286666Y-51905238D01*
X58381904Y-52000476D01*
X58477142Y-52048095D01*
X57286666Y-51762380D02*
X57191428Y-51762380D01*
X57096190Y-51810000D01*
X57048571Y-51857619D01*
X57000952Y-51952857D01*
X56953333Y-52143333D01*
X56953333Y-52381428D01*
X57000952Y-52571904D01*
X57048571Y-52667142D01*
X57096190Y-52714761D01*
X57191428Y-52762380D01*
X57286666Y-52762380D01*
X57381904Y-52714761D01*
X57429523Y-52667142D01*
X57477142Y-52571904D01*
X57524761Y-52381428D01*
X57524761Y-52143333D01*
X57477142Y-51952857D01*
X57429523Y-51857619D01*
X57381904Y-51810000D01*
X57286666Y-51762380D01*
X56000952Y-52762380D02*
X56572380Y-52762380D01*
X56286666Y-52762380D02*
X56286666Y-51762380D01*
X56381904Y-51905238D01*
X56477142Y-52000476D01*
X56572380Y-52048095D01*
G04 #@! TO.C,J102*
X58905714Y-116171380D02*
X58905714Y-116885666D01*
X58953333Y-117028523D01*
X59048571Y-117123761D01*
X59191428Y-117171380D01*
X59286666Y-117171380D01*
X57905714Y-117171380D02*
X58477142Y-117171380D01*
X58191428Y-117171380D02*
X58191428Y-116171380D01*
X58286666Y-116314238D01*
X58381904Y-116409476D01*
X58477142Y-116457095D01*
X57286666Y-116171380D02*
X57191428Y-116171380D01*
X57096190Y-116219000D01*
X57048571Y-116266619D01*
X57000952Y-116361857D01*
X56953333Y-116552333D01*
X56953333Y-116790428D01*
X57000952Y-116980904D01*
X57048571Y-117076142D01*
X57096190Y-117123761D01*
X57191428Y-117171380D01*
X57286666Y-117171380D01*
X57381904Y-117123761D01*
X57429523Y-117076142D01*
X57477142Y-116980904D01*
X57524761Y-116790428D01*
X57524761Y-116552333D01*
X57477142Y-116361857D01*
X57429523Y-116266619D01*
X57381904Y-116219000D01*
X57286666Y-116171380D01*
X56572380Y-116266619D02*
X56524761Y-116219000D01*
X56429523Y-116171380D01*
X56191428Y-116171380D01*
X56096190Y-116219000D01*
X56048571Y-116266619D01*
X56000952Y-116361857D01*
X56000952Y-116457095D01*
X56048571Y-116599952D01*
X56620000Y-117171380D01*
X56000952Y-117171380D01*
G04 #@! TO.C,J104*
X129484714Y-91662380D02*
X129484714Y-92376666D01*
X129532333Y-92519523D01*
X129627571Y-92614761D01*
X129770428Y-92662380D01*
X129865666Y-92662380D01*
X128484714Y-92662380D02*
X129056142Y-92662380D01*
X128770428Y-92662380D02*
X128770428Y-91662380D01*
X128865666Y-91805238D01*
X128960904Y-91900476D01*
X129056142Y-91948095D01*
X127865666Y-91662380D02*
X127770428Y-91662380D01*
X127675190Y-91710000D01*
X127627571Y-91757619D01*
X127579952Y-91852857D01*
X127532333Y-92043333D01*
X127532333Y-92281428D01*
X127579952Y-92471904D01*
X127627571Y-92567142D01*
X127675190Y-92614761D01*
X127770428Y-92662380D01*
X127865666Y-92662380D01*
X127960904Y-92614761D01*
X128008523Y-92567142D01*
X128056142Y-92471904D01*
X128103761Y-92281428D01*
X128103761Y-92043333D01*
X128056142Y-91852857D01*
X128008523Y-91757619D01*
X127960904Y-91710000D01*
X127865666Y-91662380D01*
X126675190Y-91995714D02*
X126675190Y-92662380D01*
X126913285Y-91614761D02*
X127151380Y-92329047D01*
X126532333Y-92329047D01*
G04 #@! TO.C,J103*
X129484714Y-79449380D02*
X129484714Y-80163666D01*
X129532333Y-80306523D01*
X129627571Y-80401761D01*
X129770428Y-80449380D01*
X129865666Y-80449380D01*
X128484714Y-80449380D02*
X129056142Y-80449380D01*
X128770428Y-80449380D02*
X128770428Y-79449380D01*
X128865666Y-79592238D01*
X128960904Y-79687476D01*
X129056142Y-79735095D01*
X127865666Y-79449380D02*
X127770428Y-79449380D01*
X127675190Y-79497000D01*
X127627571Y-79544619D01*
X127579952Y-79639857D01*
X127532333Y-79830333D01*
X127532333Y-80068428D01*
X127579952Y-80258904D01*
X127627571Y-80354142D01*
X127675190Y-80401761D01*
X127770428Y-80449380D01*
X127865666Y-80449380D01*
X127960904Y-80401761D01*
X128008523Y-80354142D01*
X128056142Y-80258904D01*
X128103761Y-80068428D01*
X128103761Y-79830333D01*
X128056142Y-79639857D01*
X128008523Y-79544619D01*
X127960904Y-79497000D01*
X127865666Y-79449380D01*
X127199000Y-79449380D02*
X126579952Y-79449380D01*
X126913285Y-79830333D01*
X126770428Y-79830333D01*
X126675190Y-79877952D01*
X126627571Y-79925571D01*
X126579952Y-80020809D01*
X126579952Y-80258904D01*
X126627571Y-80354142D01*
X126675190Y-80401761D01*
X126770428Y-80449380D01*
X127056142Y-80449380D01*
X127151380Y-80401761D01*
X127199000Y-80354142D01*
G04 #@! TO.C,J105*
X129524714Y-122014380D02*
X129524714Y-122728666D01*
X129572333Y-122871523D01*
X129667571Y-122966761D01*
X129810428Y-123014380D01*
X129905666Y-123014380D01*
X128524714Y-123014380D02*
X129096142Y-123014380D01*
X128810428Y-123014380D02*
X128810428Y-122014380D01*
X128905666Y-122157238D01*
X129000904Y-122252476D01*
X129096142Y-122300095D01*
X127905666Y-122014380D02*
X127810428Y-122014380D01*
X127715190Y-122062000D01*
X127667571Y-122109619D01*
X127619952Y-122204857D01*
X127572333Y-122395333D01*
X127572333Y-122633428D01*
X127619952Y-122823904D01*
X127667571Y-122919142D01*
X127715190Y-122966761D01*
X127810428Y-123014380D01*
X127905666Y-123014380D01*
X128000904Y-122966761D01*
X128048523Y-122919142D01*
X128096142Y-122823904D01*
X128143761Y-122633428D01*
X128143761Y-122395333D01*
X128096142Y-122204857D01*
X128048523Y-122109619D01*
X128000904Y-122062000D01*
X127905666Y-122014380D01*
X126667571Y-122014380D02*
X127143761Y-122014380D01*
X127191380Y-122490571D01*
X127143761Y-122442952D01*
X127048523Y-122395333D01*
X126810428Y-122395333D01*
X126715190Y-122442952D01*
X126667571Y-122490571D01*
X126619952Y-122585809D01*
X126619952Y-122823904D01*
X126667571Y-122919142D01*
X126715190Y-122966761D01*
X126810428Y-123014380D01*
X127048523Y-123014380D01*
X127143761Y-122966761D01*
X127191380Y-122919142D01*
G04 #@! TD*
M02*
