G04 #@! TF.GenerationSoftware,KiCad,Pcbnew,(5.0.0)*
G04 #@! TF.CreationDate,2018-09-25T21:46:24+02:00*
G04 #@! TF.ProjectId,ESP32-Wrover-kit-debug-breakout,45535033322D57726F7665722D6B6974,rev?*
G04 #@! TF.SameCoordinates,Original*
G04 #@! TF.FileFunction,Soldermask,Bot*
G04 #@! TF.FilePolarity,Negative*
%FSLAX46Y46*%
G04 Gerber Fmt 4.6, Leading zero omitted, Abs format (unit mm)*
G04 Created by KiCad (PCBNEW (5.0.0)) date 09/25/18 21:46:24*
%MOMM*%
%LPD*%
G01*
G04 APERTURE LIST*
%ADD10R,2.100000X2.100000*%
%ADD11O,2.100000X2.100000*%
G04 APERTURE END LIST*
D10*
G04 #@! TO.C,J101*
X56350000Y-55080000D03*
D11*
X58890000Y-55080000D03*
X56350000Y-57620000D03*
X58890000Y-57620000D03*
X56350000Y-60160000D03*
X58890000Y-60160000D03*
X56350000Y-62700000D03*
X58890000Y-62700000D03*
X56350000Y-65240000D03*
X58890000Y-65240000D03*
X56350000Y-67780000D03*
X58890000Y-67780000D03*
X56350000Y-70320000D03*
X58890000Y-70320000D03*
X56350000Y-72860000D03*
X58890000Y-72860000D03*
X56350000Y-75400000D03*
X58890000Y-75400000D03*
X56350000Y-77940000D03*
X58890000Y-77940000D03*
X56350000Y-80480000D03*
X58890000Y-80480000D03*
X56350000Y-83020000D03*
X58890000Y-83020000D03*
X56350000Y-85560000D03*
X58890000Y-85560000D03*
X56350000Y-88100000D03*
X58890000Y-88100000D03*
G04 #@! TD*
D10*
G04 #@! TO.C,J106*
X103340000Y-107150000D03*
D11*
X105880000Y-107150000D03*
X103340000Y-109690000D03*
X105880000Y-109690000D03*
X103340000Y-112230000D03*
X105880000Y-112230000D03*
X103340000Y-114770000D03*
X105880000Y-114770000D03*
X103340000Y-117310000D03*
X105880000Y-117310000D03*
G04 #@! TD*
D10*
G04 #@! TO.C,J102*
X56350000Y-114389000D03*
D11*
X58890000Y-114389000D03*
X56350000Y-111849000D03*
X58890000Y-111849000D03*
X56350000Y-109309000D03*
X58890000Y-109309000D03*
X56350000Y-106769000D03*
X58890000Y-106769000D03*
X56350000Y-104229000D03*
X58890000Y-104229000D03*
X56350000Y-101689000D03*
X58890000Y-101689000D03*
X56350000Y-99149000D03*
X58890000Y-99149000D03*
X56350000Y-96609000D03*
X58890000Y-96609000D03*
X56350000Y-94069000D03*
X58890000Y-94069000D03*
G04 #@! TD*
D10*
G04 #@! TO.C,J104*
X126929000Y-94980000D03*
D11*
X129469000Y-94980000D03*
X126929000Y-97520000D03*
X129469000Y-97520000D03*
X126929000Y-100060000D03*
X129469000Y-100060000D03*
G04 #@! TD*
D10*
G04 #@! TO.C,J103*
X126929000Y-82767000D03*
D11*
X129469000Y-82767000D03*
X126929000Y-85307000D03*
X129469000Y-85307000D03*
X126929000Y-87847000D03*
X129469000Y-87847000D03*
X126929000Y-90387000D03*
X129469000Y-90387000D03*
G04 #@! TD*
D10*
G04 #@! TO.C,J105*
X129509000Y-119792000D03*
D11*
X126969000Y-119792000D03*
X129509000Y-117252000D03*
X126969000Y-117252000D03*
X129509000Y-114712000D03*
X126969000Y-114712000D03*
X129509000Y-112172000D03*
X126969000Y-112172000D03*
X129509000Y-109632000D03*
X126969000Y-109632000D03*
X129509000Y-107092000D03*
X126969000Y-107092000D03*
X129509000Y-104552000D03*
X126969000Y-104552000D03*
G04 #@! TD*
M02*
