G04 #@! TF.GenerationSoftware,KiCad,Pcbnew,(5.0.0)*
G04 #@! TF.CreationDate,2018-09-25T21:46:24+02:00*
G04 #@! TF.ProjectId,ESP32-Wrover-kit-debug-breakout,45535033322D57726F7665722D6B6974,rev?*
G04 #@! TF.SameCoordinates,Original*
G04 #@! TF.FileFunction,Copper,L1,Top,Signal*
G04 #@! TF.FilePolarity,Positive*
%FSLAX46Y46*%
G04 Gerber Fmt 4.6, Leading zero omitted, Abs format (unit mm)*
G04 Created by KiCad (PCBNEW (5.0.0)) date 09/25/18 21:46:24*
%MOMM*%
%LPD*%
G01*
G04 APERTURE LIST*
G04 #@! TA.AperFunction,ComponentPad*
%ADD10R,1.700000X1.700000*%
G04 #@! TD*
G04 #@! TA.AperFunction,ComponentPad*
%ADD11O,1.700000X1.700000*%
G04 #@! TD*
G04 #@! TA.AperFunction,ViaPad*
%ADD12C,0.800000*%
G04 #@! TD*
G04 #@! TA.AperFunction,Conductor*
%ADD13C,0.250000*%
G04 #@! TD*
G04 #@! TA.AperFunction,Conductor*
%ADD14C,0.254000*%
G04 #@! TD*
G04 APERTURE END LIST*
D10*
G04 #@! TO.P,J101,1*
G04 #@! TO.N,Net-(J101-Pad1)*
X56350000Y-55080000D03*
D11*
G04 #@! TO.P,J101,2*
G04 #@! TO.N,Net-(J101-Pad2)*
X58890000Y-55080000D03*
G04 #@! TO.P,J101,3*
G04 #@! TO.N,Net-(J101-Pad3)*
X56350000Y-57620000D03*
G04 #@! TO.P,J101,4*
G04 #@! TO.N,Net-(J101-Pad4)*
X58890000Y-57620000D03*
G04 #@! TO.P,J101,5*
G04 #@! TO.N,Net-(J101-Pad5)*
X56350000Y-60160000D03*
G04 #@! TO.P,J101,6*
G04 #@! TO.N,Net-(J101-Pad6)*
X58890000Y-60160000D03*
G04 #@! TO.P,J101,7*
G04 #@! TO.N,Net-(J101-Pad7)*
X56350000Y-62700000D03*
G04 #@! TO.P,J101,8*
G04 #@! TO.N,Net-(J101-Pad8)*
X58890000Y-62700000D03*
G04 #@! TO.P,J101,9*
G04 #@! TO.N,Net-(J101-Pad9)*
X56350000Y-65240000D03*
G04 #@! TO.P,J101,10*
G04 #@! TO.N,Net-(J101-Pad10)*
X58890000Y-65240000D03*
G04 #@! TO.P,J101,11*
G04 #@! TO.N,Net-(J101-Pad11)*
X56350000Y-67780000D03*
G04 #@! TO.P,J101,12*
G04 #@! TO.N,Net-(J101-Pad12)*
X58890000Y-67780000D03*
G04 #@! TO.P,J101,13*
G04 #@! TO.N,Net-(J101-Pad13)*
X56350000Y-70320000D03*
G04 #@! TO.P,J101,14*
G04 #@! TO.N,Net-(J101-Pad14)*
X58890000Y-70320000D03*
G04 #@! TO.P,J101,15*
G04 #@! TO.N,Net-(J101-Pad15)*
X56350000Y-72860000D03*
G04 #@! TO.P,J101,16*
G04 #@! TO.N,Net-(J101-Pad16)*
X58890000Y-72860000D03*
G04 #@! TO.P,J101,17*
G04 #@! TO.N,Net-(J101-Pad17)*
X56350000Y-75400000D03*
G04 #@! TO.P,J101,18*
G04 #@! TO.N,Net-(J101-Pad18)*
X58890000Y-75400000D03*
G04 #@! TO.P,J101,19*
G04 #@! TO.N,Net-(J101-Pad19)*
X56350000Y-77940000D03*
G04 #@! TO.P,J101,20*
G04 #@! TO.N,Net-(J101-Pad20)*
X58890000Y-77940000D03*
G04 #@! TO.P,J101,21*
G04 #@! TO.N,Net-(J101-Pad21)*
X56350000Y-80480000D03*
G04 #@! TO.P,J101,22*
G04 #@! TO.N,Net-(J101-Pad22)*
X58890000Y-80480000D03*
G04 #@! TO.P,J101,23*
G04 #@! TO.N,Net-(J101-Pad23)*
X56350000Y-83020000D03*
G04 #@! TO.P,J101,24*
G04 #@! TO.N,Net-(J101-Pad24)*
X58890000Y-83020000D03*
G04 #@! TO.P,J101,25*
G04 #@! TO.N,Net-(J101-Pad25)*
X56350000Y-85560000D03*
G04 #@! TO.P,J101,26*
G04 #@! TO.N,/IO0_Boot_option*
X58890000Y-85560000D03*
G04 #@! TO.P,J101,27*
G04 #@! TO.N,Net-(J101-Pad27)*
X56350000Y-88100000D03*
G04 #@! TO.P,J101,28*
G04 #@! TO.N,Net-(J101-Pad28)*
X58890000Y-88100000D03*
G04 #@! TD*
D10*
G04 #@! TO.P,J106,1*
G04 #@! TO.N,GND*
X103340000Y-107150000D03*
D11*
G04 #@! TO.P,J106,2*
G04 #@! TO.N,/IO0_Boot_option*
X105880000Y-107150000D03*
G04 #@! TO.P,J106,3*
G04 #@! TO.N,/CH_Enable*
X103340000Y-109690000D03*
G04 #@! TO.P,J106,4*
G04 #@! TO.N,/MTCK*
X105880000Y-109690000D03*
G04 #@! TO.P,J106,5*
G04 #@! TO.N,/TDX*
X103340000Y-112230000D03*
G04 #@! TO.P,J106,6*
G04 #@! TO.N,/MTDI*
X105880000Y-112230000D03*
G04 #@! TO.P,J106,7*
G04 #@! TO.N,/RDX*
X103340000Y-114770000D03*
G04 #@! TO.P,J106,8*
G04 #@! TO.N,/MTDO*
X105880000Y-114770000D03*
G04 #@! TO.P,J106,9*
G04 #@! TO.N,Net-(J106-Pad9)*
X103340000Y-117310000D03*
G04 #@! TO.P,J106,10*
G04 #@! TO.N,/MTMS*
X105880000Y-117310000D03*
G04 #@! TD*
D10*
G04 #@! TO.P,J102,1*
G04 #@! TO.N,Net-(J102-Pad1)*
X56350000Y-114389000D03*
D11*
G04 #@! TO.P,J102,2*
G04 #@! TO.N,Net-(J102-Pad2)*
X58890000Y-114389000D03*
G04 #@! TO.P,J102,3*
G04 #@! TO.N,Net-(J102-Pad3)*
X56350000Y-111849000D03*
G04 #@! TO.P,J102,4*
G04 #@! TO.N,Net-(J102-Pad4)*
X58890000Y-111849000D03*
G04 #@! TO.P,J102,5*
G04 #@! TO.N,Net-(J102-Pad5)*
X56350000Y-109309000D03*
G04 #@! TO.P,J102,6*
G04 #@! TO.N,Net-(J102-Pad6)*
X58890000Y-109309000D03*
G04 #@! TO.P,J102,7*
G04 #@! TO.N,Net-(J102-Pad7)*
X56350000Y-106769000D03*
G04 #@! TO.P,J102,8*
G04 #@! TO.N,Net-(J102-Pad8)*
X58890000Y-106769000D03*
G04 #@! TO.P,J102,9*
G04 #@! TO.N,Net-(J102-Pad9)*
X56350000Y-104229000D03*
G04 #@! TO.P,J102,10*
G04 #@! TO.N,Net-(J102-Pad10)*
X58890000Y-104229000D03*
G04 #@! TO.P,J102,11*
G04 #@! TO.N,Net-(J102-Pad11)*
X56350000Y-101689000D03*
G04 #@! TO.P,J102,12*
G04 #@! TO.N,Net-(J102-Pad12)*
X58890000Y-101689000D03*
G04 #@! TO.P,J102,13*
G04 #@! TO.N,Net-(J102-Pad13)*
X56350000Y-99149000D03*
G04 #@! TO.P,J102,14*
G04 #@! TO.N,Net-(J102-Pad14)*
X58890000Y-99149000D03*
G04 #@! TO.P,J102,15*
G04 #@! TO.N,Net-(J102-Pad15)*
X56350000Y-96609000D03*
G04 #@! TO.P,J102,16*
G04 #@! TO.N,Net-(J102-Pad16)*
X58890000Y-96609000D03*
G04 #@! TO.P,J102,17*
G04 #@! TO.N,Net-(J102-Pad17)*
X56350000Y-94069000D03*
G04 #@! TO.P,J102,18*
G04 #@! TO.N,Net-(J102-Pad18)*
X58890000Y-94069000D03*
G04 #@! TD*
D10*
G04 #@! TO.P,J104,1*
G04 #@! TO.N,Net-(J104-Pad1)*
X126929000Y-94980000D03*
D11*
G04 #@! TO.P,J104,2*
G04 #@! TO.N,Net-(J104-Pad2)*
X129469000Y-94980000D03*
G04 #@! TO.P,J104,3*
G04 #@! TO.N,Net-(J104-Pad3)*
X126929000Y-97520000D03*
G04 #@! TO.P,J104,4*
G04 #@! TO.N,Net-(J104-Pad4)*
X129469000Y-97520000D03*
G04 #@! TO.P,J104,5*
G04 #@! TO.N,Net-(J104-Pad5)*
X126929000Y-100060000D03*
G04 #@! TO.P,J104,6*
G04 #@! TO.N,Net-(J104-Pad6)*
X129469000Y-100060000D03*
G04 #@! TD*
D10*
G04 #@! TO.P,J103,1*
G04 #@! TO.N,Net-(J103-Pad1)*
X126929000Y-82767000D03*
D11*
G04 #@! TO.P,J103,2*
G04 #@! TO.N,Net-(J103-Pad2)*
X129469000Y-82767000D03*
G04 #@! TO.P,J103,3*
G04 #@! TO.N,/RDX*
X126929000Y-85307000D03*
G04 #@! TO.P,J103,4*
G04 #@! TO.N,Net-(J103-Pad4)*
X129469000Y-85307000D03*
G04 #@! TO.P,J103,5*
G04 #@! TO.N,/TDX*
X126929000Y-87847000D03*
G04 #@! TO.P,J103,6*
G04 #@! TO.N,Net-(J103-Pad6)*
X129469000Y-87847000D03*
G04 #@! TO.P,J103,7*
G04 #@! TO.N,GND*
X126929000Y-90387000D03*
G04 #@! TO.P,J103,8*
G04 #@! TO.N,Net-(J103-Pad8)*
X129469000Y-90387000D03*
G04 #@! TD*
D10*
G04 #@! TO.P,J105,1*
G04 #@! TO.N,Net-(J105-Pad1)*
X129509000Y-119792000D03*
D11*
G04 #@! TO.P,J105,2*
G04 #@! TO.N,/CH_Enable*
X126969000Y-119792000D03*
G04 #@! TO.P,J105,3*
G04 #@! TO.N,Net-(J105-Pad3)*
X129509000Y-117252000D03*
G04 #@! TO.P,J105,4*
G04 #@! TO.N,/MTMS*
X126969000Y-117252000D03*
G04 #@! TO.P,J105,5*
G04 #@! TO.N,Net-(J105-Pad5)*
X129509000Y-114712000D03*
G04 #@! TO.P,J105,6*
G04 #@! TO.N,/MTDO*
X126969000Y-114712000D03*
G04 #@! TO.P,J105,7*
G04 #@! TO.N,Net-(J105-Pad7)*
X129509000Y-112172000D03*
G04 #@! TO.P,J105,8*
G04 #@! TO.N,/MTDI*
X126969000Y-112172000D03*
G04 #@! TO.P,J105,9*
G04 #@! TO.N,Net-(J105-Pad9)*
X129509000Y-109632000D03*
G04 #@! TO.P,J105,10*
G04 #@! TO.N,/MTCK*
X126969000Y-109632000D03*
G04 #@! TO.P,J105,11*
G04 #@! TO.N,Net-(J105-Pad11)*
X129509000Y-107092000D03*
G04 #@! TO.P,J105,12*
G04 #@! TO.N,Net-(J105-Pad12)*
X126969000Y-107092000D03*
G04 #@! TO.P,J105,13*
G04 #@! TO.N,Net-(J105-Pad13)*
X129509000Y-104552000D03*
G04 #@! TO.P,J105,14*
G04 #@! TO.N,Net-(J105-Pad14)*
X126969000Y-104552000D03*
G04 #@! TD*
D12*
G04 #@! TO.N,GND*
X51100000Y-51070000D03*
X56100000Y-51070000D03*
X61100000Y-51070000D03*
X66100000Y-51070000D03*
X71100000Y-51070000D03*
X76100000Y-51070000D03*
X81100000Y-51070000D03*
X86100000Y-51070000D03*
X91100000Y-51070000D03*
X96100000Y-51070000D03*
X101100000Y-51070000D03*
X106100000Y-51070000D03*
X111100000Y-51070000D03*
X116100000Y-51070000D03*
X121100000Y-51070000D03*
X126100000Y-51070000D03*
X51100000Y-131070000D03*
X62220000Y-131870000D03*
X67220000Y-131870000D03*
X72220000Y-131870000D03*
X77220000Y-131870000D03*
X82220000Y-131870000D03*
X87220000Y-131870000D03*
X92220000Y-131870000D03*
X97220000Y-131870000D03*
X102220000Y-131870000D03*
X107220000Y-131870000D03*
X112220000Y-131870000D03*
X122220000Y-131870000D03*
X127220000Y-131870000D03*
X133760000Y-51070000D03*
X51100000Y-56070000D03*
X51100000Y-61070000D03*
X51100000Y-66070000D03*
X51100000Y-71070000D03*
X51100000Y-76070000D03*
X51100000Y-81070000D03*
X51100000Y-86070000D03*
X51100000Y-91070000D03*
X51100000Y-96070000D03*
X51100000Y-101070000D03*
X51100000Y-106070000D03*
X51100000Y-111070000D03*
X51100000Y-116070000D03*
X51100000Y-121070000D03*
X51100000Y-126070000D03*
X51100000Y-131070000D03*
X133760000Y-56070000D03*
X133760000Y-61070000D03*
X133760000Y-66070000D03*
X133760000Y-71070000D03*
X133760000Y-76070000D03*
X133760000Y-81070000D03*
X133760000Y-86070000D03*
X133760000Y-91070000D03*
X133760000Y-96070000D03*
X133760000Y-101070000D03*
X133760000Y-106070000D03*
X133760000Y-111070000D03*
X133760000Y-116070000D03*
X133760000Y-121070000D03*
X133760000Y-126070000D03*
X133760000Y-131070000D03*
X55080000Y-131870000D03*
X130010000Y-72860000D03*
X130010000Y-80480000D03*
X109690000Y-110960000D03*
X123660000Y-110960000D03*
X123660000Y-113500000D03*
X123660000Y-116040000D03*
X123660000Y-118580000D03*
X109690000Y-118580000D03*
X109690000Y-116040000D03*
X109690000Y-113500000D03*
X118199000Y-83316000D03*
X108928000Y-92841000D03*
X118199000Y-87808000D03*
X118199000Y-92808000D03*
X118199000Y-97808000D03*
X118199000Y-102808000D03*
X118199000Y-107808000D03*
X113373000Y-107827000D03*
X108928000Y-97841000D03*
X108928000Y-102841000D03*
X108928000Y-107841000D03*
X112230000Y-89539000D03*
X115532000Y-86364000D03*
X72479000Y-113161000D03*
X77479000Y-113161000D03*
X82479000Y-113161000D03*
X85193000Y-113161000D03*
X72479000Y-118161000D03*
X85193000Y-118161000D03*
X72479000Y-123161000D03*
X85193000Y-123161000D03*
X72479000Y-125748000D03*
X77479000Y-125748000D03*
X82479000Y-125748000D03*
X85193000Y-125748000D03*
X117220000Y-131870000D03*
G04 #@! TO.N,/TDX*
X105753000Y-104525000D03*
G04 #@! TD*
D13*
G04 #@! TO.N,/MTCK*
X105938000Y-109632000D02*
X105880000Y-109690000D01*
X126969000Y-109632000D02*
X105938000Y-109632000D01*
G04 #@! TO.N,/MTDI*
X126911000Y-112230000D02*
X126969000Y-112172000D01*
X105880000Y-112230000D02*
X126911000Y-112230000D01*
G04 #@! TO.N,/MTDO*
X105938000Y-114712000D02*
X105880000Y-114770000D01*
X126969000Y-114712000D02*
X105938000Y-114712000D01*
G04 #@! TO.N,/MTMS*
X126911000Y-117310000D02*
X126969000Y-117252000D01*
X105880000Y-117310000D02*
X126911000Y-117310000D01*
G04 #@! TO.N,/CH_Enable*
X125766919Y-119792000D02*
X126969000Y-119792000D01*
X104082998Y-119792000D02*
X125766919Y-119792000D01*
X102164999Y-117874001D02*
X104082998Y-119792000D01*
X102164999Y-110865001D02*
X102164999Y-117874001D01*
X103340000Y-109690000D02*
X102164999Y-110865001D01*
G04 #@! TO.N,/IO0_Boot_option*
X84290000Y-85560000D02*
X58890000Y-85560000D01*
X105880000Y-107150000D02*
X84290000Y-85560000D01*
G04 #@! TO.N,/RDX*
X104189999Y-113920001D02*
X103340000Y-114770000D01*
X104515001Y-113594999D02*
X104189999Y-113920001D01*
X104515001Y-109315997D02*
X104515001Y-113594999D01*
X105315999Y-108514999D02*
X104515001Y-109315997D01*
X107055001Y-107714001D02*
X106254003Y-108514999D01*
X107055001Y-92497300D02*
X107055001Y-107714001D01*
X119430311Y-80121990D02*
X107055001Y-92497300D01*
X106254003Y-108514999D02*
X105315999Y-108514999D01*
X126568992Y-80121990D02*
X119430311Y-80121990D01*
X128293999Y-81846997D02*
X126568992Y-80121990D01*
X128293999Y-83942001D02*
X128293999Y-81846997D01*
X126929000Y-85307000D02*
X128293999Y-83942001D01*
G04 #@! TO.N,/TDX*
X105753000Y-93162891D02*
X105753000Y-104525000D01*
X119243910Y-79671981D02*
X105753000Y-93162891D01*
X128112983Y-79671981D02*
X119243910Y-79671981D01*
X130644001Y-82202999D02*
X128112983Y-79671981D01*
X128104001Y-86671999D02*
X128104001Y-84768409D01*
X126929000Y-87847000D02*
X128104001Y-86671999D01*
X128104001Y-84768409D02*
X128930409Y-83942001D01*
X128930409Y-83942001D02*
X130033001Y-83942001D01*
X130033001Y-83942001D02*
X130644001Y-83331001D01*
X130644001Y-83331001D02*
X130644001Y-82202999D01*
G04 #@! TD*
D14*
G04 #@! TO.N,GND*
G36*
X134290001Y-132390000D02*
X50710000Y-132390000D01*
X50710000Y-94069000D01*
X54835908Y-94069000D01*
X54951161Y-94648418D01*
X55279375Y-95139625D01*
X55577761Y-95339000D01*
X55279375Y-95538375D01*
X54951161Y-96029582D01*
X54835908Y-96609000D01*
X54951161Y-97188418D01*
X55279375Y-97679625D01*
X55577761Y-97879000D01*
X55279375Y-98078375D01*
X54951161Y-98569582D01*
X54835908Y-99149000D01*
X54951161Y-99728418D01*
X55279375Y-100219625D01*
X55577761Y-100419000D01*
X55279375Y-100618375D01*
X54951161Y-101109582D01*
X54835908Y-101689000D01*
X54951161Y-102268418D01*
X55279375Y-102759625D01*
X55577761Y-102959000D01*
X55279375Y-103158375D01*
X54951161Y-103649582D01*
X54835908Y-104229000D01*
X54951161Y-104808418D01*
X55279375Y-105299625D01*
X55577761Y-105499000D01*
X55279375Y-105698375D01*
X54951161Y-106189582D01*
X54835908Y-106769000D01*
X54951161Y-107348418D01*
X55279375Y-107839625D01*
X55577761Y-108039000D01*
X55279375Y-108238375D01*
X54951161Y-108729582D01*
X54835908Y-109309000D01*
X54951161Y-109888418D01*
X55279375Y-110379625D01*
X55577761Y-110579000D01*
X55279375Y-110778375D01*
X54951161Y-111269582D01*
X54835908Y-111849000D01*
X54951161Y-112428418D01*
X55279375Y-112919625D01*
X55297619Y-112931816D01*
X55252235Y-112940843D01*
X55042191Y-113081191D01*
X54901843Y-113291235D01*
X54852560Y-113539000D01*
X54852560Y-115239000D01*
X54901843Y-115486765D01*
X55042191Y-115696809D01*
X55252235Y-115837157D01*
X55500000Y-115886440D01*
X57200000Y-115886440D01*
X57447765Y-115837157D01*
X57657809Y-115696809D01*
X57798157Y-115486765D01*
X57807184Y-115441381D01*
X57819375Y-115459625D01*
X58310582Y-115787839D01*
X58743744Y-115874000D01*
X59036256Y-115874000D01*
X59469418Y-115787839D01*
X59960625Y-115459625D01*
X60288839Y-114968418D01*
X60401307Y-114403000D01*
X73039091Y-114403000D01*
X73053000Y-114472926D01*
X73053001Y-124333069D01*
X73039091Y-124403000D01*
X73094195Y-124680028D01*
X73251119Y-124914881D01*
X73485972Y-125071805D01*
X73693074Y-125113000D01*
X73693075Y-125113000D01*
X73763000Y-125126909D01*
X73832926Y-125113000D01*
X83693075Y-125113000D01*
X83763000Y-125126909D01*
X84040028Y-125071805D01*
X84274881Y-124914881D01*
X84431805Y-124680028D01*
X84473000Y-124472926D01*
X84486909Y-124403000D01*
X84473000Y-124333074D01*
X84473000Y-114472926D01*
X84486909Y-114403000D01*
X84463543Y-114285528D01*
X84431805Y-114125972D01*
X84315560Y-113952000D01*
X84274881Y-113891119D01*
X84040028Y-113734195D01*
X83832926Y-113693000D01*
X83832925Y-113693000D01*
X83763000Y-113679091D01*
X83693074Y-113693000D01*
X73832925Y-113693000D01*
X73763000Y-113679091D01*
X73693074Y-113693000D01*
X73485972Y-113734195D01*
X73251119Y-113891119D01*
X73094195Y-114125972D01*
X73039091Y-114403000D01*
X60401307Y-114403000D01*
X60404092Y-114389000D01*
X60288839Y-113809582D01*
X59960625Y-113318375D01*
X59662239Y-113119000D01*
X59960625Y-112919625D01*
X60288839Y-112428418D01*
X60404092Y-111849000D01*
X60288839Y-111269582D01*
X59960625Y-110778375D01*
X59662239Y-110579000D01*
X59960625Y-110379625D01*
X60288839Y-109888418D01*
X60404092Y-109309000D01*
X60288839Y-108729582D01*
X59960625Y-108238375D01*
X59662239Y-108039000D01*
X59960625Y-107839625D01*
X60288839Y-107348418D01*
X60404092Y-106769000D01*
X60288839Y-106189582D01*
X59960625Y-105698375D01*
X59662239Y-105499000D01*
X59960625Y-105299625D01*
X60288839Y-104808418D01*
X60404092Y-104229000D01*
X60288839Y-103649582D01*
X59960625Y-103158375D01*
X59662239Y-102959000D01*
X59960625Y-102759625D01*
X60288839Y-102268418D01*
X60404092Y-101689000D01*
X60288839Y-101109582D01*
X59960625Y-100618375D01*
X59662239Y-100419000D01*
X59960625Y-100219625D01*
X60288839Y-99728418D01*
X60404092Y-99149000D01*
X60288839Y-98569582D01*
X59960625Y-98078375D01*
X59662239Y-97879000D01*
X59960625Y-97679625D01*
X60288839Y-97188418D01*
X60404092Y-96609000D01*
X60288839Y-96029582D01*
X59960625Y-95538375D01*
X59662239Y-95339000D01*
X59960625Y-95139625D01*
X60288839Y-94648418D01*
X60404092Y-94069000D01*
X60288839Y-93489582D01*
X59960625Y-92998375D01*
X59469418Y-92670161D01*
X59036256Y-92584000D01*
X58743744Y-92584000D01*
X58310582Y-92670161D01*
X57819375Y-92998375D01*
X57620000Y-93296761D01*
X57420625Y-92998375D01*
X56929418Y-92670161D01*
X56496256Y-92584000D01*
X56203744Y-92584000D01*
X55770582Y-92670161D01*
X55279375Y-92998375D01*
X54951161Y-93489582D01*
X54835908Y-94069000D01*
X50710000Y-94069000D01*
X50710000Y-57620000D01*
X54835908Y-57620000D01*
X54951161Y-58199418D01*
X55279375Y-58690625D01*
X55577761Y-58890000D01*
X55279375Y-59089375D01*
X54951161Y-59580582D01*
X54835908Y-60160000D01*
X54951161Y-60739418D01*
X55279375Y-61230625D01*
X55577761Y-61430000D01*
X55279375Y-61629375D01*
X54951161Y-62120582D01*
X54835908Y-62700000D01*
X54951161Y-63279418D01*
X55279375Y-63770625D01*
X55577761Y-63970000D01*
X55279375Y-64169375D01*
X54951161Y-64660582D01*
X54835908Y-65240000D01*
X54951161Y-65819418D01*
X55279375Y-66310625D01*
X55577761Y-66510000D01*
X55279375Y-66709375D01*
X54951161Y-67200582D01*
X54835908Y-67780000D01*
X54951161Y-68359418D01*
X55279375Y-68850625D01*
X55577761Y-69050000D01*
X55279375Y-69249375D01*
X54951161Y-69740582D01*
X54835908Y-70320000D01*
X54951161Y-70899418D01*
X55279375Y-71390625D01*
X55577761Y-71590000D01*
X55279375Y-71789375D01*
X54951161Y-72280582D01*
X54835908Y-72860000D01*
X54951161Y-73439418D01*
X55279375Y-73930625D01*
X55577761Y-74130000D01*
X55279375Y-74329375D01*
X54951161Y-74820582D01*
X54835908Y-75400000D01*
X54951161Y-75979418D01*
X55279375Y-76470625D01*
X55577761Y-76670000D01*
X55279375Y-76869375D01*
X54951161Y-77360582D01*
X54835908Y-77940000D01*
X54951161Y-78519418D01*
X55279375Y-79010625D01*
X55577761Y-79210000D01*
X55279375Y-79409375D01*
X54951161Y-79900582D01*
X54835908Y-80480000D01*
X54951161Y-81059418D01*
X55279375Y-81550625D01*
X55577761Y-81750000D01*
X55279375Y-81949375D01*
X54951161Y-82440582D01*
X54835908Y-83020000D01*
X54951161Y-83599418D01*
X55279375Y-84090625D01*
X55577761Y-84290000D01*
X55279375Y-84489375D01*
X54951161Y-84980582D01*
X54835908Y-85560000D01*
X54951161Y-86139418D01*
X55279375Y-86630625D01*
X55577761Y-86830000D01*
X55279375Y-87029375D01*
X54951161Y-87520582D01*
X54835908Y-88100000D01*
X54951161Y-88679418D01*
X55279375Y-89170625D01*
X55770582Y-89498839D01*
X56203744Y-89585000D01*
X56496256Y-89585000D01*
X56929418Y-89498839D01*
X57420625Y-89170625D01*
X57620000Y-88872239D01*
X57819375Y-89170625D01*
X58310582Y-89498839D01*
X58743744Y-89585000D01*
X59036256Y-89585000D01*
X59469418Y-89498839D01*
X59960625Y-89170625D01*
X60288839Y-88679418D01*
X60404092Y-88100000D01*
X60288839Y-87520582D01*
X59960625Y-87029375D01*
X59662239Y-86830000D01*
X59960625Y-86630625D01*
X60168178Y-86320000D01*
X83975199Y-86320000D01*
X103320198Y-105665000D01*
X103212998Y-105665000D01*
X103212998Y-105823748D01*
X103054250Y-105665000D01*
X102363691Y-105665000D01*
X102130302Y-105761673D01*
X101951673Y-105940301D01*
X101855000Y-106173690D01*
X101855000Y-106864250D01*
X102013750Y-107023000D01*
X103213000Y-107023000D01*
X103213000Y-107003000D01*
X103467000Y-107003000D01*
X103467000Y-107023000D01*
X103487000Y-107023000D01*
X103487000Y-107277000D01*
X103467000Y-107277000D01*
X103467000Y-107297000D01*
X103213000Y-107297000D01*
X103213000Y-107277000D01*
X102013750Y-107277000D01*
X101855000Y-107435750D01*
X101855000Y-108126310D01*
X101951673Y-108359699D01*
X102130302Y-108538327D01*
X102291033Y-108604904D01*
X102269375Y-108619375D01*
X101941161Y-109110582D01*
X101825908Y-109690000D01*
X101898791Y-110056408D01*
X101680529Y-110274670D01*
X101617070Y-110317072D01*
X101449095Y-110568465D01*
X101404999Y-110790150D01*
X101404999Y-110790154D01*
X101390111Y-110865001D01*
X101404999Y-110939848D01*
X101405000Y-117799149D01*
X101390111Y-117874001D01*
X101405000Y-117948853D01*
X101449096Y-118170538D01*
X101617071Y-118421930D01*
X101680527Y-118464330D01*
X103492669Y-120276473D01*
X103535069Y-120339929D01*
X103786461Y-120507904D01*
X104008146Y-120552000D01*
X104008150Y-120552000D01*
X104082997Y-120566888D01*
X104157844Y-120552000D01*
X125690822Y-120552000D01*
X125898375Y-120862625D01*
X126389582Y-121190839D01*
X126822744Y-121277000D01*
X127115256Y-121277000D01*
X127548418Y-121190839D01*
X128039625Y-120862625D01*
X128051816Y-120844381D01*
X128060843Y-120889765D01*
X128201191Y-121099809D01*
X128411235Y-121240157D01*
X128659000Y-121289440D01*
X130359000Y-121289440D01*
X130606765Y-121240157D01*
X130816809Y-121099809D01*
X130957157Y-120889765D01*
X131006440Y-120642000D01*
X131006440Y-118942000D01*
X130957157Y-118694235D01*
X130816809Y-118484191D01*
X130606765Y-118343843D01*
X130561381Y-118334816D01*
X130579625Y-118322625D01*
X130907839Y-117831418D01*
X131023092Y-117252000D01*
X130907839Y-116672582D01*
X130579625Y-116181375D01*
X130281239Y-115982000D01*
X130579625Y-115782625D01*
X130907839Y-115291418D01*
X131023092Y-114712000D01*
X130907839Y-114132582D01*
X130579625Y-113641375D01*
X130281239Y-113442000D01*
X130579625Y-113242625D01*
X130907839Y-112751418D01*
X131023092Y-112172000D01*
X130907839Y-111592582D01*
X130579625Y-111101375D01*
X130281239Y-110902000D01*
X130579625Y-110702625D01*
X130907839Y-110211418D01*
X131023092Y-109632000D01*
X130907839Y-109052582D01*
X130579625Y-108561375D01*
X130281239Y-108362000D01*
X130579625Y-108162625D01*
X130907839Y-107671418D01*
X131023092Y-107092000D01*
X130907839Y-106512582D01*
X130579625Y-106021375D01*
X130281239Y-105822000D01*
X130579625Y-105622625D01*
X130907839Y-105131418D01*
X131023092Y-104552000D01*
X130907839Y-103972582D01*
X130579625Y-103481375D01*
X130088418Y-103153161D01*
X129655256Y-103067000D01*
X129362744Y-103067000D01*
X128929582Y-103153161D01*
X128438375Y-103481375D01*
X128239000Y-103779761D01*
X128039625Y-103481375D01*
X127548418Y-103153161D01*
X127115256Y-103067000D01*
X126822744Y-103067000D01*
X126389582Y-103153161D01*
X125898375Y-103481375D01*
X125570161Y-103972582D01*
X125454908Y-104552000D01*
X125570161Y-105131418D01*
X125898375Y-105622625D01*
X126196761Y-105822000D01*
X125898375Y-106021375D01*
X125570161Y-106512582D01*
X125454908Y-107092000D01*
X125570161Y-107671418D01*
X125898375Y-108162625D01*
X126196761Y-108362000D01*
X125898375Y-108561375D01*
X125690822Y-108872000D01*
X125259000Y-108872000D01*
X125259000Y-97520000D01*
X125414908Y-97520000D01*
X125530161Y-98099418D01*
X125858375Y-98590625D01*
X126156761Y-98790000D01*
X125858375Y-98989375D01*
X125530161Y-99480582D01*
X125414908Y-100060000D01*
X125530161Y-100639418D01*
X125858375Y-101130625D01*
X126349582Y-101458839D01*
X126782744Y-101545000D01*
X127075256Y-101545000D01*
X127508418Y-101458839D01*
X127999625Y-101130625D01*
X128199000Y-100832239D01*
X128398375Y-101130625D01*
X128889582Y-101458839D01*
X129322744Y-101545000D01*
X129615256Y-101545000D01*
X130048418Y-101458839D01*
X130539625Y-101130625D01*
X130867839Y-100639418D01*
X130983092Y-100060000D01*
X130867839Y-99480582D01*
X130539625Y-98989375D01*
X130241239Y-98790000D01*
X130539625Y-98590625D01*
X130867839Y-98099418D01*
X130983092Y-97520000D01*
X130867839Y-96940582D01*
X130539625Y-96449375D01*
X130241239Y-96250000D01*
X130539625Y-96050625D01*
X130867839Y-95559418D01*
X130983092Y-94980000D01*
X130867839Y-94400582D01*
X130539625Y-93909375D01*
X130048418Y-93581161D01*
X129615256Y-93495000D01*
X129322744Y-93495000D01*
X128889582Y-93581161D01*
X128398375Y-93909375D01*
X128386184Y-93927619D01*
X128377157Y-93882235D01*
X128236809Y-93672191D01*
X128026765Y-93531843D01*
X127779000Y-93482560D01*
X126079000Y-93482560D01*
X125831235Y-93531843D01*
X125621191Y-93672191D01*
X125480843Y-93882235D01*
X125431560Y-94130000D01*
X125431560Y-95830000D01*
X125480843Y-96077765D01*
X125621191Y-96287809D01*
X125831235Y-96428157D01*
X125876619Y-96437184D01*
X125858375Y-96449375D01*
X125530161Y-96940582D01*
X125414908Y-97520000D01*
X125259000Y-97520000D01*
X125259000Y-90743890D01*
X125487524Y-90743890D01*
X125657355Y-91153924D01*
X126047642Y-91582183D01*
X126572108Y-91828486D01*
X126802000Y-91707819D01*
X126802000Y-90514000D01*
X125608845Y-90514000D01*
X125487524Y-90743890D01*
X125259000Y-90743890D01*
X125259000Y-80881990D01*
X126254191Y-80881990D01*
X126641760Y-81269560D01*
X126079000Y-81269560D01*
X125831235Y-81318843D01*
X125621191Y-81459191D01*
X125480843Y-81669235D01*
X125431560Y-81917000D01*
X125431560Y-83617000D01*
X125480843Y-83864765D01*
X125621191Y-84074809D01*
X125831235Y-84215157D01*
X125876619Y-84224184D01*
X125858375Y-84236375D01*
X125530161Y-84727582D01*
X125414908Y-85307000D01*
X125530161Y-85886418D01*
X125858375Y-86377625D01*
X126156761Y-86577000D01*
X125858375Y-86776375D01*
X125530161Y-87267582D01*
X125414908Y-87847000D01*
X125530161Y-88426418D01*
X125858375Y-88917625D01*
X126177478Y-89130843D01*
X126047642Y-89191817D01*
X125657355Y-89620076D01*
X125487524Y-90030110D01*
X125608845Y-90260000D01*
X126802000Y-90260000D01*
X126802000Y-90240000D01*
X127056000Y-90240000D01*
X127056000Y-90260000D01*
X127076000Y-90260000D01*
X127076000Y-90514000D01*
X127056000Y-90514000D01*
X127056000Y-91707819D01*
X127285892Y-91828486D01*
X127810358Y-91582183D01*
X128197647Y-91157214D01*
X128398375Y-91457625D01*
X128889582Y-91785839D01*
X129322744Y-91872000D01*
X129615256Y-91872000D01*
X130048418Y-91785839D01*
X130539625Y-91457625D01*
X130867839Y-90966418D01*
X130983092Y-90387000D01*
X130867839Y-89807582D01*
X130539625Y-89316375D01*
X130241239Y-89117000D01*
X130539625Y-88917625D01*
X130867839Y-88426418D01*
X130983092Y-87847000D01*
X130867839Y-87267582D01*
X130539625Y-86776375D01*
X130241239Y-86577000D01*
X130539625Y-86377625D01*
X130867839Y-85886418D01*
X130983092Y-85307000D01*
X130867839Y-84727582D01*
X130649295Y-84400508D01*
X131128477Y-83921328D01*
X131191930Y-83878930D01*
X131234328Y-83815477D01*
X131234330Y-83815475D01*
X131318103Y-83690099D01*
X131359905Y-83627538D01*
X131404001Y-83405853D01*
X131404001Y-83405849D01*
X131418889Y-83331002D01*
X131404001Y-83256155D01*
X131404001Y-82277846D01*
X131418889Y-82202999D01*
X131404001Y-82128152D01*
X131404001Y-82128147D01*
X131359905Y-81906462D01*
X131191930Y-81655070D01*
X131128474Y-81612670D01*
X128703314Y-79187511D01*
X128660912Y-79124052D01*
X128409520Y-78956077D01*
X128187835Y-78911981D01*
X128187830Y-78911981D01*
X128112983Y-78897093D01*
X128038136Y-78911981D01*
X119318757Y-78911981D01*
X119243910Y-78897093D01*
X119169063Y-78911981D01*
X119169058Y-78911981D01*
X118947373Y-78956077D01*
X118695981Y-79124052D01*
X118653581Y-79187508D01*
X105268530Y-92572560D01*
X105205071Y-92614962D01*
X105037096Y-92866355D01*
X104993000Y-93088040D01*
X104993000Y-93088044D01*
X104978112Y-93162891D01*
X104993000Y-93237738D01*
X104993001Y-103821288D01*
X104875569Y-103938720D01*
X104718000Y-104319126D01*
X104718000Y-104730874D01*
X104846922Y-105042120D01*
X84880331Y-85075530D01*
X84837929Y-85012071D01*
X84586537Y-84844096D01*
X84364852Y-84800000D01*
X84364847Y-84800000D01*
X84290000Y-84785112D01*
X84215153Y-84800000D01*
X60168178Y-84800000D01*
X59960625Y-84489375D01*
X59662239Y-84290000D01*
X59960625Y-84090625D01*
X60288839Y-83599418D01*
X60404092Y-83020000D01*
X60288839Y-82440582D01*
X59960625Y-81949375D01*
X59662239Y-81750000D01*
X59960625Y-81550625D01*
X60288839Y-81059418D01*
X60404092Y-80480000D01*
X60288839Y-79900582D01*
X59960625Y-79409375D01*
X59662239Y-79210000D01*
X59960625Y-79010625D01*
X60288839Y-78519418D01*
X60404092Y-77940000D01*
X60288839Y-77360582D01*
X59960625Y-76869375D01*
X59662239Y-76670000D01*
X59960625Y-76470625D01*
X60288839Y-75979418D01*
X60404092Y-75400000D01*
X60288839Y-74820582D01*
X59960625Y-74329375D01*
X59662239Y-74130000D01*
X59960625Y-73930625D01*
X60288839Y-73439418D01*
X60404092Y-72860000D01*
X60288839Y-72280582D01*
X59960625Y-71789375D01*
X59662239Y-71590000D01*
X59960625Y-71390625D01*
X60288839Y-70899418D01*
X60404092Y-70320000D01*
X60288839Y-69740582D01*
X59960625Y-69249375D01*
X59662239Y-69050000D01*
X59960625Y-68850625D01*
X60288839Y-68359418D01*
X60404092Y-67780000D01*
X60288839Y-67200582D01*
X59960625Y-66709375D01*
X59662239Y-66510000D01*
X59960625Y-66310625D01*
X60288839Y-65819418D01*
X60404092Y-65240000D01*
X60288839Y-64660582D01*
X59960625Y-64169375D01*
X59662239Y-63970000D01*
X59960625Y-63770625D01*
X60288839Y-63279418D01*
X60404092Y-62700000D01*
X60288839Y-62120582D01*
X59960625Y-61629375D01*
X59662239Y-61430000D01*
X59960625Y-61230625D01*
X60288839Y-60739418D01*
X60404092Y-60160000D01*
X60288839Y-59580582D01*
X59960625Y-59089375D01*
X59662239Y-58890000D01*
X59960625Y-58690625D01*
X60288839Y-58199418D01*
X60404092Y-57620000D01*
X60288839Y-57040582D01*
X59960625Y-56549375D01*
X59662239Y-56350000D01*
X59960625Y-56150625D01*
X60288839Y-55659418D01*
X60404092Y-55080000D01*
X60288839Y-54500582D01*
X59960625Y-54009375D01*
X59469418Y-53681161D01*
X59036256Y-53595000D01*
X58743744Y-53595000D01*
X58310582Y-53681161D01*
X57819375Y-54009375D01*
X57807184Y-54027619D01*
X57798157Y-53982235D01*
X57657809Y-53772191D01*
X57447765Y-53631843D01*
X57200000Y-53582560D01*
X55500000Y-53582560D01*
X55252235Y-53631843D01*
X55042191Y-53772191D01*
X54901843Y-53982235D01*
X54852560Y-54230000D01*
X54852560Y-55930000D01*
X54901843Y-56177765D01*
X55042191Y-56387809D01*
X55252235Y-56528157D01*
X55297619Y-56537184D01*
X55279375Y-56549375D01*
X54951161Y-57040582D01*
X54835908Y-57620000D01*
X50710000Y-57620000D01*
X50710000Y-50710000D01*
X134290000Y-50710000D01*
X134290001Y-132390000D01*
X134290001Y-132390000D01*
G37*
X134290001Y-132390000D02*
X50710000Y-132390000D01*
X50710000Y-94069000D01*
X54835908Y-94069000D01*
X54951161Y-94648418D01*
X55279375Y-95139625D01*
X55577761Y-95339000D01*
X55279375Y-95538375D01*
X54951161Y-96029582D01*
X54835908Y-96609000D01*
X54951161Y-97188418D01*
X55279375Y-97679625D01*
X55577761Y-97879000D01*
X55279375Y-98078375D01*
X54951161Y-98569582D01*
X54835908Y-99149000D01*
X54951161Y-99728418D01*
X55279375Y-100219625D01*
X55577761Y-100419000D01*
X55279375Y-100618375D01*
X54951161Y-101109582D01*
X54835908Y-101689000D01*
X54951161Y-102268418D01*
X55279375Y-102759625D01*
X55577761Y-102959000D01*
X55279375Y-103158375D01*
X54951161Y-103649582D01*
X54835908Y-104229000D01*
X54951161Y-104808418D01*
X55279375Y-105299625D01*
X55577761Y-105499000D01*
X55279375Y-105698375D01*
X54951161Y-106189582D01*
X54835908Y-106769000D01*
X54951161Y-107348418D01*
X55279375Y-107839625D01*
X55577761Y-108039000D01*
X55279375Y-108238375D01*
X54951161Y-108729582D01*
X54835908Y-109309000D01*
X54951161Y-109888418D01*
X55279375Y-110379625D01*
X55577761Y-110579000D01*
X55279375Y-110778375D01*
X54951161Y-111269582D01*
X54835908Y-111849000D01*
X54951161Y-112428418D01*
X55279375Y-112919625D01*
X55297619Y-112931816D01*
X55252235Y-112940843D01*
X55042191Y-113081191D01*
X54901843Y-113291235D01*
X54852560Y-113539000D01*
X54852560Y-115239000D01*
X54901843Y-115486765D01*
X55042191Y-115696809D01*
X55252235Y-115837157D01*
X55500000Y-115886440D01*
X57200000Y-115886440D01*
X57447765Y-115837157D01*
X57657809Y-115696809D01*
X57798157Y-115486765D01*
X57807184Y-115441381D01*
X57819375Y-115459625D01*
X58310582Y-115787839D01*
X58743744Y-115874000D01*
X59036256Y-115874000D01*
X59469418Y-115787839D01*
X59960625Y-115459625D01*
X60288839Y-114968418D01*
X60401307Y-114403000D01*
X73039091Y-114403000D01*
X73053000Y-114472926D01*
X73053001Y-124333069D01*
X73039091Y-124403000D01*
X73094195Y-124680028D01*
X73251119Y-124914881D01*
X73485972Y-125071805D01*
X73693074Y-125113000D01*
X73693075Y-125113000D01*
X73763000Y-125126909D01*
X73832926Y-125113000D01*
X83693075Y-125113000D01*
X83763000Y-125126909D01*
X84040028Y-125071805D01*
X84274881Y-124914881D01*
X84431805Y-124680028D01*
X84473000Y-124472926D01*
X84486909Y-124403000D01*
X84473000Y-124333074D01*
X84473000Y-114472926D01*
X84486909Y-114403000D01*
X84463543Y-114285528D01*
X84431805Y-114125972D01*
X84315560Y-113952000D01*
X84274881Y-113891119D01*
X84040028Y-113734195D01*
X83832926Y-113693000D01*
X83832925Y-113693000D01*
X83763000Y-113679091D01*
X83693074Y-113693000D01*
X73832925Y-113693000D01*
X73763000Y-113679091D01*
X73693074Y-113693000D01*
X73485972Y-113734195D01*
X73251119Y-113891119D01*
X73094195Y-114125972D01*
X73039091Y-114403000D01*
X60401307Y-114403000D01*
X60404092Y-114389000D01*
X60288839Y-113809582D01*
X59960625Y-113318375D01*
X59662239Y-113119000D01*
X59960625Y-112919625D01*
X60288839Y-112428418D01*
X60404092Y-111849000D01*
X60288839Y-111269582D01*
X59960625Y-110778375D01*
X59662239Y-110579000D01*
X59960625Y-110379625D01*
X60288839Y-109888418D01*
X60404092Y-109309000D01*
X60288839Y-108729582D01*
X59960625Y-108238375D01*
X59662239Y-108039000D01*
X59960625Y-107839625D01*
X60288839Y-107348418D01*
X60404092Y-106769000D01*
X60288839Y-106189582D01*
X59960625Y-105698375D01*
X59662239Y-105499000D01*
X59960625Y-105299625D01*
X60288839Y-104808418D01*
X60404092Y-104229000D01*
X60288839Y-103649582D01*
X59960625Y-103158375D01*
X59662239Y-102959000D01*
X59960625Y-102759625D01*
X60288839Y-102268418D01*
X60404092Y-101689000D01*
X60288839Y-101109582D01*
X59960625Y-100618375D01*
X59662239Y-100419000D01*
X59960625Y-100219625D01*
X60288839Y-99728418D01*
X60404092Y-99149000D01*
X60288839Y-98569582D01*
X59960625Y-98078375D01*
X59662239Y-97879000D01*
X59960625Y-97679625D01*
X60288839Y-97188418D01*
X60404092Y-96609000D01*
X60288839Y-96029582D01*
X59960625Y-95538375D01*
X59662239Y-95339000D01*
X59960625Y-95139625D01*
X60288839Y-94648418D01*
X60404092Y-94069000D01*
X60288839Y-93489582D01*
X59960625Y-92998375D01*
X59469418Y-92670161D01*
X59036256Y-92584000D01*
X58743744Y-92584000D01*
X58310582Y-92670161D01*
X57819375Y-92998375D01*
X57620000Y-93296761D01*
X57420625Y-92998375D01*
X56929418Y-92670161D01*
X56496256Y-92584000D01*
X56203744Y-92584000D01*
X55770582Y-92670161D01*
X55279375Y-92998375D01*
X54951161Y-93489582D01*
X54835908Y-94069000D01*
X50710000Y-94069000D01*
X50710000Y-57620000D01*
X54835908Y-57620000D01*
X54951161Y-58199418D01*
X55279375Y-58690625D01*
X55577761Y-58890000D01*
X55279375Y-59089375D01*
X54951161Y-59580582D01*
X54835908Y-60160000D01*
X54951161Y-60739418D01*
X55279375Y-61230625D01*
X55577761Y-61430000D01*
X55279375Y-61629375D01*
X54951161Y-62120582D01*
X54835908Y-62700000D01*
X54951161Y-63279418D01*
X55279375Y-63770625D01*
X55577761Y-63970000D01*
X55279375Y-64169375D01*
X54951161Y-64660582D01*
X54835908Y-65240000D01*
X54951161Y-65819418D01*
X55279375Y-66310625D01*
X55577761Y-66510000D01*
X55279375Y-66709375D01*
X54951161Y-67200582D01*
X54835908Y-67780000D01*
X54951161Y-68359418D01*
X55279375Y-68850625D01*
X55577761Y-69050000D01*
X55279375Y-69249375D01*
X54951161Y-69740582D01*
X54835908Y-70320000D01*
X54951161Y-70899418D01*
X55279375Y-71390625D01*
X55577761Y-71590000D01*
X55279375Y-71789375D01*
X54951161Y-72280582D01*
X54835908Y-72860000D01*
X54951161Y-73439418D01*
X55279375Y-73930625D01*
X55577761Y-74130000D01*
X55279375Y-74329375D01*
X54951161Y-74820582D01*
X54835908Y-75400000D01*
X54951161Y-75979418D01*
X55279375Y-76470625D01*
X55577761Y-76670000D01*
X55279375Y-76869375D01*
X54951161Y-77360582D01*
X54835908Y-77940000D01*
X54951161Y-78519418D01*
X55279375Y-79010625D01*
X55577761Y-79210000D01*
X55279375Y-79409375D01*
X54951161Y-79900582D01*
X54835908Y-80480000D01*
X54951161Y-81059418D01*
X55279375Y-81550625D01*
X55577761Y-81750000D01*
X55279375Y-81949375D01*
X54951161Y-82440582D01*
X54835908Y-83020000D01*
X54951161Y-83599418D01*
X55279375Y-84090625D01*
X55577761Y-84290000D01*
X55279375Y-84489375D01*
X54951161Y-84980582D01*
X54835908Y-85560000D01*
X54951161Y-86139418D01*
X55279375Y-86630625D01*
X55577761Y-86830000D01*
X55279375Y-87029375D01*
X54951161Y-87520582D01*
X54835908Y-88100000D01*
X54951161Y-88679418D01*
X55279375Y-89170625D01*
X55770582Y-89498839D01*
X56203744Y-89585000D01*
X56496256Y-89585000D01*
X56929418Y-89498839D01*
X57420625Y-89170625D01*
X57620000Y-88872239D01*
X57819375Y-89170625D01*
X58310582Y-89498839D01*
X58743744Y-89585000D01*
X59036256Y-89585000D01*
X59469418Y-89498839D01*
X59960625Y-89170625D01*
X60288839Y-88679418D01*
X60404092Y-88100000D01*
X60288839Y-87520582D01*
X59960625Y-87029375D01*
X59662239Y-86830000D01*
X59960625Y-86630625D01*
X60168178Y-86320000D01*
X83975199Y-86320000D01*
X103320198Y-105665000D01*
X103212998Y-105665000D01*
X103212998Y-105823748D01*
X103054250Y-105665000D01*
X102363691Y-105665000D01*
X102130302Y-105761673D01*
X101951673Y-105940301D01*
X101855000Y-106173690D01*
X101855000Y-106864250D01*
X102013750Y-107023000D01*
X103213000Y-107023000D01*
X103213000Y-107003000D01*
X103467000Y-107003000D01*
X103467000Y-107023000D01*
X103487000Y-107023000D01*
X103487000Y-107277000D01*
X103467000Y-107277000D01*
X103467000Y-107297000D01*
X103213000Y-107297000D01*
X103213000Y-107277000D01*
X102013750Y-107277000D01*
X101855000Y-107435750D01*
X101855000Y-108126310D01*
X101951673Y-108359699D01*
X102130302Y-108538327D01*
X102291033Y-108604904D01*
X102269375Y-108619375D01*
X101941161Y-109110582D01*
X101825908Y-109690000D01*
X101898791Y-110056408D01*
X101680529Y-110274670D01*
X101617070Y-110317072D01*
X101449095Y-110568465D01*
X101404999Y-110790150D01*
X101404999Y-110790154D01*
X101390111Y-110865001D01*
X101404999Y-110939848D01*
X101405000Y-117799149D01*
X101390111Y-117874001D01*
X101405000Y-117948853D01*
X101449096Y-118170538D01*
X101617071Y-118421930D01*
X101680527Y-118464330D01*
X103492669Y-120276473D01*
X103535069Y-120339929D01*
X103786461Y-120507904D01*
X104008146Y-120552000D01*
X104008150Y-120552000D01*
X104082997Y-120566888D01*
X104157844Y-120552000D01*
X125690822Y-120552000D01*
X125898375Y-120862625D01*
X126389582Y-121190839D01*
X126822744Y-121277000D01*
X127115256Y-121277000D01*
X127548418Y-121190839D01*
X128039625Y-120862625D01*
X128051816Y-120844381D01*
X128060843Y-120889765D01*
X128201191Y-121099809D01*
X128411235Y-121240157D01*
X128659000Y-121289440D01*
X130359000Y-121289440D01*
X130606765Y-121240157D01*
X130816809Y-121099809D01*
X130957157Y-120889765D01*
X131006440Y-120642000D01*
X131006440Y-118942000D01*
X130957157Y-118694235D01*
X130816809Y-118484191D01*
X130606765Y-118343843D01*
X130561381Y-118334816D01*
X130579625Y-118322625D01*
X130907839Y-117831418D01*
X131023092Y-117252000D01*
X130907839Y-116672582D01*
X130579625Y-116181375D01*
X130281239Y-115982000D01*
X130579625Y-115782625D01*
X130907839Y-115291418D01*
X131023092Y-114712000D01*
X130907839Y-114132582D01*
X130579625Y-113641375D01*
X130281239Y-113442000D01*
X130579625Y-113242625D01*
X130907839Y-112751418D01*
X131023092Y-112172000D01*
X130907839Y-111592582D01*
X130579625Y-111101375D01*
X130281239Y-110902000D01*
X130579625Y-110702625D01*
X130907839Y-110211418D01*
X131023092Y-109632000D01*
X130907839Y-109052582D01*
X130579625Y-108561375D01*
X130281239Y-108362000D01*
X130579625Y-108162625D01*
X130907839Y-107671418D01*
X131023092Y-107092000D01*
X130907839Y-106512582D01*
X130579625Y-106021375D01*
X130281239Y-105822000D01*
X130579625Y-105622625D01*
X130907839Y-105131418D01*
X131023092Y-104552000D01*
X130907839Y-103972582D01*
X130579625Y-103481375D01*
X130088418Y-103153161D01*
X129655256Y-103067000D01*
X129362744Y-103067000D01*
X128929582Y-103153161D01*
X128438375Y-103481375D01*
X128239000Y-103779761D01*
X128039625Y-103481375D01*
X127548418Y-103153161D01*
X127115256Y-103067000D01*
X126822744Y-103067000D01*
X126389582Y-103153161D01*
X125898375Y-103481375D01*
X125570161Y-103972582D01*
X125454908Y-104552000D01*
X125570161Y-105131418D01*
X125898375Y-105622625D01*
X126196761Y-105822000D01*
X125898375Y-106021375D01*
X125570161Y-106512582D01*
X125454908Y-107092000D01*
X125570161Y-107671418D01*
X125898375Y-108162625D01*
X126196761Y-108362000D01*
X125898375Y-108561375D01*
X125690822Y-108872000D01*
X125259000Y-108872000D01*
X125259000Y-97520000D01*
X125414908Y-97520000D01*
X125530161Y-98099418D01*
X125858375Y-98590625D01*
X126156761Y-98790000D01*
X125858375Y-98989375D01*
X125530161Y-99480582D01*
X125414908Y-100060000D01*
X125530161Y-100639418D01*
X125858375Y-101130625D01*
X126349582Y-101458839D01*
X126782744Y-101545000D01*
X127075256Y-101545000D01*
X127508418Y-101458839D01*
X127999625Y-101130625D01*
X128199000Y-100832239D01*
X128398375Y-101130625D01*
X128889582Y-101458839D01*
X129322744Y-101545000D01*
X129615256Y-101545000D01*
X130048418Y-101458839D01*
X130539625Y-101130625D01*
X130867839Y-100639418D01*
X130983092Y-100060000D01*
X130867839Y-99480582D01*
X130539625Y-98989375D01*
X130241239Y-98790000D01*
X130539625Y-98590625D01*
X130867839Y-98099418D01*
X130983092Y-97520000D01*
X130867839Y-96940582D01*
X130539625Y-96449375D01*
X130241239Y-96250000D01*
X130539625Y-96050625D01*
X130867839Y-95559418D01*
X130983092Y-94980000D01*
X130867839Y-94400582D01*
X130539625Y-93909375D01*
X130048418Y-93581161D01*
X129615256Y-93495000D01*
X129322744Y-93495000D01*
X128889582Y-93581161D01*
X128398375Y-93909375D01*
X128386184Y-93927619D01*
X128377157Y-93882235D01*
X128236809Y-93672191D01*
X128026765Y-93531843D01*
X127779000Y-93482560D01*
X126079000Y-93482560D01*
X125831235Y-93531843D01*
X125621191Y-93672191D01*
X125480843Y-93882235D01*
X125431560Y-94130000D01*
X125431560Y-95830000D01*
X125480843Y-96077765D01*
X125621191Y-96287809D01*
X125831235Y-96428157D01*
X125876619Y-96437184D01*
X125858375Y-96449375D01*
X125530161Y-96940582D01*
X125414908Y-97520000D01*
X125259000Y-97520000D01*
X125259000Y-90743890D01*
X125487524Y-90743890D01*
X125657355Y-91153924D01*
X126047642Y-91582183D01*
X126572108Y-91828486D01*
X126802000Y-91707819D01*
X126802000Y-90514000D01*
X125608845Y-90514000D01*
X125487524Y-90743890D01*
X125259000Y-90743890D01*
X125259000Y-80881990D01*
X126254191Y-80881990D01*
X126641760Y-81269560D01*
X126079000Y-81269560D01*
X125831235Y-81318843D01*
X125621191Y-81459191D01*
X125480843Y-81669235D01*
X125431560Y-81917000D01*
X125431560Y-83617000D01*
X125480843Y-83864765D01*
X125621191Y-84074809D01*
X125831235Y-84215157D01*
X125876619Y-84224184D01*
X125858375Y-84236375D01*
X125530161Y-84727582D01*
X125414908Y-85307000D01*
X125530161Y-85886418D01*
X125858375Y-86377625D01*
X126156761Y-86577000D01*
X125858375Y-86776375D01*
X125530161Y-87267582D01*
X125414908Y-87847000D01*
X125530161Y-88426418D01*
X125858375Y-88917625D01*
X126177478Y-89130843D01*
X126047642Y-89191817D01*
X125657355Y-89620076D01*
X125487524Y-90030110D01*
X125608845Y-90260000D01*
X126802000Y-90260000D01*
X126802000Y-90240000D01*
X127056000Y-90240000D01*
X127056000Y-90260000D01*
X127076000Y-90260000D01*
X127076000Y-90514000D01*
X127056000Y-90514000D01*
X127056000Y-91707819D01*
X127285892Y-91828486D01*
X127810358Y-91582183D01*
X128197647Y-91157214D01*
X128398375Y-91457625D01*
X128889582Y-91785839D01*
X129322744Y-91872000D01*
X129615256Y-91872000D01*
X130048418Y-91785839D01*
X130539625Y-91457625D01*
X130867839Y-90966418D01*
X130983092Y-90387000D01*
X130867839Y-89807582D01*
X130539625Y-89316375D01*
X130241239Y-89117000D01*
X130539625Y-88917625D01*
X130867839Y-88426418D01*
X130983092Y-87847000D01*
X130867839Y-87267582D01*
X130539625Y-86776375D01*
X130241239Y-86577000D01*
X130539625Y-86377625D01*
X130867839Y-85886418D01*
X130983092Y-85307000D01*
X130867839Y-84727582D01*
X130649295Y-84400508D01*
X131128477Y-83921328D01*
X131191930Y-83878930D01*
X131234328Y-83815477D01*
X131234330Y-83815475D01*
X131318103Y-83690099D01*
X131359905Y-83627538D01*
X131404001Y-83405853D01*
X131404001Y-83405849D01*
X131418889Y-83331002D01*
X131404001Y-83256155D01*
X131404001Y-82277846D01*
X131418889Y-82202999D01*
X131404001Y-82128152D01*
X131404001Y-82128147D01*
X131359905Y-81906462D01*
X131191930Y-81655070D01*
X131128474Y-81612670D01*
X128703314Y-79187511D01*
X128660912Y-79124052D01*
X128409520Y-78956077D01*
X128187835Y-78911981D01*
X128187830Y-78911981D01*
X128112983Y-78897093D01*
X128038136Y-78911981D01*
X119318757Y-78911981D01*
X119243910Y-78897093D01*
X119169063Y-78911981D01*
X119169058Y-78911981D01*
X118947373Y-78956077D01*
X118695981Y-79124052D01*
X118653581Y-79187508D01*
X105268530Y-92572560D01*
X105205071Y-92614962D01*
X105037096Y-92866355D01*
X104993000Y-93088040D01*
X104993000Y-93088044D01*
X104978112Y-93162891D01*
X104993000Y-93237738D01*
X104993001Y-103821288D01*
X104875569Y-103938720D01*
X104718000Y-104319126D01*
X104718000Y-104730874D01*
X104846922Y-105042120D01*
X84880331Y-85075530D01*
X84837929Y-85012071D01*
X84586537Y-84844096D01*
X84364852Y-84800000D01*
X84364847Y-84800000D01*
X84290000Y-84785112D01*
X84215153Y-84800000D01*
X60168178Y-84800000D01*
X59960625Y-84489375D01*
X59662239Y-84290000D01*
X59960625Y-84090625D01*
X60288839Y-83599418D01*
X60404092Y-83020000D01*
X60288839Y-82440582D01*
X59960625Y-81949375D01*
X59662239Y-81750000D01*
X59960625Y-81550625D01*
X60288839Y-81059418D01*
X60404092Y-80480000D01*
X60288839Y-79900582D01*
X59960625Y-79409375D01*
X59662239Y-79210000D01*
X59960625Y-79010625D01*
X60288839Y-78519418D01*
X60404092Y-77940000D01*
X60288839Y-77360582D01*
X59960625Y-76869375D01*
X59662239Y-76670000D01*
X59960625Y-76470625D01*
X60288839Y-75979418D01*
X60404092Y-75400000D01*
X60288839Y-74820582D01*
X59960625Y-74329375D01*
X59662239Y-74130000D01*
X59960625Y-73930625D01*
X60288839Y-73439418D01*
X60404092Y-72860000D01*
X60288839Y-72280582D01*
X59960625Y-71789375D01*
X59662239Y-71590000D01*
X59960625Y-71390625D01*
X60288839Y-70899418D01*
X60404092Y-70320000D01*
X60288839Y-69740582D01*
X59960625Y-69249375D01*
X59662239Y-69050000D01*
X59960625Y-68850625D01*
X60288839Y-68359418D01*
X60404092Y-67780000D01*
X60288839Y-67200582D01*
X59960625Y-66709375D01*
X59662239Y-66510000D01*
X59960625Y-66310625D01*
X60288839Y-65819418D01*
X60404092Y-65240000D01*
X60288839Y-64660582D01*
X59960625Y-64169375D01*
X59662239Y-63970000D01*
X59960625Y-63770625D01*
X60288839Y-63279418D01*
X60404092Y-62700000D01*
X60288839Y-62120582D01*
X59960625Y-61629375D01*
X59662239Y-61430000D01*
X59960625Y-61230625D01*
X60288839Y-60739418D01*
X60404092Y-60160000D01*
X60288839Y-59580582D01*
X59960625Y-59089375D01*
X59662239Y-58890000D01*
X59960625Y-58690625D01*
X60288839Y-58199418D01*
X60404092Y-57620000D01*
X60288839Y-57040582D01*
X59960625Y-56549375D01*
X59662239Y-56350000D01*
X59960625Y-56150625D01*
X60288839Y-55659418D01*
X60404092Y-55080000D01*
X60288839Y-54500582D01*
X59960625Y-54009375D01*
X59469418Y-53681161D01*
X59036256Y-53595000D01*
X58743744Y-53595000D01*
X58310582Y-53681161D01*
X57819375Y-54009375D01*
X57807184Y-54027619D01*
X57798157Y-53982235D01*
X57657809Y-53772191D01*
X57447765Y-53631843D01*
X57200000Y-53582560D01*
X55500000Y-53582560D01*
X55252235Y-53631843D01*
X55042191Y-53772191D01*
X54901843Y-53982235D01*
X54852560Y-54230000D01*
X54852560Y-55930000D01*
X54901843Y-56177765D01*
X55042191Y-56387809D01*
X55252235Y-56528157D01*
X55297619Y-56537184D01*
X55279375Y-56549375D01*
X54951161Y-57040582D01*
X54835908Y-57620000D01*
X50710000Y-57620000D01*
X50710000Y-50710000D01*
X134290000Y-50710000D01*
X134290001Y-132390000D01*
G36*
X125898375Y-118322625D02*
X126196761Y-118522000D01*
X125898375Y-118721375D01*
X125690822Y-119032000D01*
X104397800Y-119032000D01*
X104012466Y-118646666D01*
X104410625Y-118380625D01*
X104610000Y-118082239D01*
X104809375Y-118380625D01*
X105300582Y-118708839D01*
X105733744Y-118795000D01*
X106026256Y-118795000D01*
X106459418Y-118708839D01*
X106950625Y-118380625D01*
X107158178Y-118070000D01*
X125729576Y-118070000D01*
X125898375Y-118322625D01*
X125898375Y-118322625D01*
G37*
X125898375Y-118322625D02*
X126196761Y-118522000D01*
X125898375Y-118721375D01*
X125690822Y-119032000D01*
X104397800Y-119032000D01*
X104012466Y-118646666D01*
X104410625Y-118380625D01*
X104610000Y-118082239D01*
X104809375Y-118380625D01*
X105300582Y-118708839D01*
X105733744Y-118795000D01*
X106026256Y-118795000D01*
X106459418Y-118708839D01*
X106950625Y-118380625D01*
X107158178Y-118070000D01*
X125729576Y-118070000D01*
X125898375Y-118322625D01*
G36*
X125898375Y-115782625D02*
X126196761Y-115982000D01*
X125898375Y-116181375D01*
X125652068Y-116550000D01*
X107158178Y-116550000D01*
X106950625Y-116239375D01*
X106652239Y-116040000D01*
X106950625Y-115840625D01*
X107196932Y-115472000D01*
X125690822Y-115472000D01*
X125898375Y-115782625D01*
X125898375Y-115782625D01*
G37*
X125898375Y-115782625D02*
X126196761Y-115982000D01*
X125898375Y-116181375D01*
X125652068Y-116550000D01*
X107158178Y-116550000D01*
X106950625Y-116239375D01*
X106652239Y-116040000D01*
X106950625Y-115840625D01*
X107196932Y-115472000D01*
X125690822Y-115472000D01*
X125898375Y-115782625D01*
G36*
X125898375Y-113242625D02*
X126196761Y-113442000D01*
X125898375Y-113641375D01*
X125690822Y-113952000D01*
X107119424Y-113952000D01*
X106950625Y-113699375D01*
X106652239Y-113500000D01*
X106950625Y-113300625D01*
X107158178Y-112990000D01*
X125729576Y-112990000D01*
X125898375Y-113242625D01*
X125898375Y-113242625D01*
G37*
X125898375Y-113242625D02*
X126196761Y-113442000D01*
X125898375Y-113641375D01*
X125690822Y-113952000D01*
X107119424Y-113952000D01*
X106950625Y-113699375D01*
X106652239Y-113500000D01*
X106950625Y-113300625D01*
X107158178Y-112990000D01*
X125729576Y-112990000D01*
X125898375Y-113242625D01*
G36*
X125898375Y-110702625D02*
X126196761Y-110902000D01*
X125898375Y-111101375D01*
X125652068Y-111470000D01*
X107158178Y-111470000D01*
X106950625Y-111159375D01*
X106652239Y-110960000D01*
X106950625Y-110760625D01*
X107196932Y-110392000D01*
X125690822Y-110392000D01*
X125898375Y-110702625D01*
X125898375Y-110702625D01*
G37*
X125898375Y-110702625D02*
X126196761Y-110902000D01*
X125898375Y-111101375D01*
X125652068Y-111470000D01*
X107158178Y-111470000D01*
X106950625Y-111159375D01*
X106652239Y-110960000D01*
X106950625Y-110760625D01*
X107196932Y-110392000D01*
X125690822Y-110392000D01*
X125898375Y-110702625D01*
G36*
X118886000Y-108872000D02*
X107119424Y-108872000D01*
X107060295Y-108783508D01*
X107539474Y-108304330D01*
X107602930Y-108261930D01*
X107770905Y-108010538D01*
X107815001Y-107788853D01*
X107815001Y-107788849D01*
X107829889Y-107714002D01*
X107815001Y-107639155D01*
X107815001Y-92812101D01*
X118886001Y-81741102D01*
X118886000Y-108872000D01*
X118886000Y-108872000D01*
G37*
X118886000Y-108872000D02*
X107119424Y-108872000D01*
X107060295Y-108783508D01*
X107539474Y-108304330D01*
X107602930Y-108261930D01*
X107770905Y-108010538D01*
X107815001Y-107788853D01*
X107815001Y-107788849D01*
X107829889Y-107714002D01*
X107815001Y-107639155D01*
X107815001Y-92812101D01*
X118886001Y-81741102D01*
X118886000Y-108872000D01*
G04 #@! TD*
M02*
