G04 #@! TF.GenerationSoftware,KiCad,Pcbnew,5.0.2-bee76a0~70~ubuntu18.04.1*
G04 #@! TF.CreationDate,2019-01-23T21:03:19+01:00*
G04 #@! TF.ProjectId,ESP32-Wrover-kit-debug-breakout,45535033-322d-4577-926f-7665722d6b69,rev?*
G04 #@! TF.SameCoordinates,Original*
G04 #@! TF.FileFunction,Copper,L2,Bot*
G04 #@! TF.FilePolarity,Positive*
%FSLAX46Y46*%
G04 Gerber Fmt 4.6, Leading zero omitted, Abs format (unit mm)*
G04 Created by KiCad (PCBNEW 5.0.2-bee76a0~70~ubuntu18.04.1) date ons 23 jan 2019 21:03:19*
%MOMM*%
%LPD*%
G01*
G04 APERTURE LIST*
G04 #@! TA.AperFunction,ComponentPad*
%ADD10R,1.700000X1.700000*%
G04 #@! TD*
G04 #@! TA.AperFunction,ComponentPad*
%ADD11O,1.700000X1.700000*%
G04 #@! TD*
G04 #@! TA.AperFunction,ViaPad*
%ADD12C,0.800000*%
G04 #@! TD*
G04 #@! TA.AperFunction,Conductor*
%ADD13C,0.250000*%
G04 #@! TD*
G04 #@! TA.AperFunction,Conductor*
%ADD14C,0.254000*%
G04 #@! TD*
G04 APERTURE END LIST*
D10*
G04 #@! TO.P,J101,1*
G04 #@! TO.N,/CH_Enable*
X117056000Y-104592000D03*
D11*
G04 #@! TO.P,J101,2*
G04 #@! TO.N,Net-(J101-Pad2)*
X119596000Y-104592000D03*
G04 #@! TO.P,J101,3*
G04 #@! TO.N,Net-(J101-Pad3)*
X117056000Y-107132000D03*
G04 #@! TO.P,J101,4*
G04 #@! TO.N,/MTMS*
X119596000Y-107132000D03*
G04 #@! TO.P,J101,5*
G04 #@! TO.N,Net-(J101-Pad5)*
X117056000Y-109672000D03*
G04 #@! TO.P,J101,6*
G04 #@! TO.N,/MTDO*
X119596000Y-109672000D03*
G04 #@! TO.P,J101,7*
G04 #@! TO.N,Net-(J101-Pad7)*
X117056000Y-112212000D03*
G04 #@! TO.P,J101,8*
G04 #@! TO.N,/MTDI*
X119596000Y-112212000D03*
G04 #@! TO.P,J101,9*
G04 #@! TO.N,Net-(J101-Pad9)*
X117056000Y-114752000D03*
G04 #@! TO.P,J101,10*
G04 #@! TO.N,/MTCK*
X119596000Y-114752000D03*
G04 #@! TO.P,J101,11*
G04 #@! TO.N,Net-(J101-Pad11)*
X117056000Y-117292000D03*
G04 #@! TO.P,J101,12*
G04 #@! TO.N,Net-(J101-Pad12)*
X119596000Y-117292000D03*
G04 #@! TO.P,J101,13*
G04 #@! TO.N,Net-(J101-Pad13)*
X117056000Y-119832000D03*
G04 #@! TO.P,J101,14*
G04 #@! TO.N,Net-(J101-Pad14)*
X119596000Y-119832000D03*
G04 #@! TD*
G04 #@! TO.P,J103,28*
G04 #@! TO.N,Net-(J103-Pad28)*
X132732880Y-56127840D03*
G04 #@! TO.P,J103,27*
G04 #@! TO.N,Net-(J103-Pad27)*
X132732880Y-53587840D03*
G04 #@! TO.P,J103,26*
G04 #@! TO.N,GND*
X130192880Y-56127840D03*
G04 #@! TO.P,J103,25*
X130192880Y-53587840D03*
G04 #@! TO.P,J103,24*
G04 #@! TO.N,+3V3*
X127652880Y-56127840D03*
G04 #@! TO.P,J103,23*
X127652880Y-53587840D03*
G04 #@! TO.P,J103,22*
G04 #@! TO.N,/EN*
X125112880Y-56127840D03*
G04 #@! TO.P,J103,21*
X125112880Y-53587840D03*
G04 #@! TO.P,J103,20*
G04 #@! TO.N,/GPIO_39*
X122572880Y-56127840D03*
G04 #@! TO.P,J103,19*
X122572880Y-53587840D03*
G04 #@! TO.P,J103,18*
G04 #@! TO.N,/GPIO_36*
X120032880Y-56127840D03*
G04 #@! TO.P,J103,17*
X120032880Y-53587840D03*
G04 #@! TO.P,J103,16*
G04 #@! TO.N,/GPIO_35*
X117492880Y-56127840D03*
G04 #@! TO.P,J103,15*
X117492880Y-53587840D03*
G04 #@! TO.P,J103,14*
G04 #@! TO.N,/GPIO_34*
X114952880Y-56127840D03*
G04 #@! TO.P,J103,13*
X114952880Y-53587840D03*
G04 #@! TO.P,J103,12*
G04 #@! TO.N,/GPIO_33*
X112412880Y-56127840D03*
G04 #@! TO.P,J103,11*
X112412880Y-53587840D03*
G04 #@! TO.P,J103,10*
G04 #@! TO.N,/GPIO_32*
X109872880Y-56127840D03*
G04 #@! TO.P,J103,9*
X109872880Y-53587840D03*
G04 #@! TO.P,J103,8*
G04 #@! TO.N,/GPIO_27*
X107332880Y-56127840D03*
G04 #@! TO.P,J103,7*
X107332880Y-53587840D03*
G04 #@! TO.P,J103,6*
G04 #@! TO.N,/GPIO_26*
X104792880Y-56127840D03*
G04 #@! TO.P,J103,5*
X104792880Y-53587840D03*
G04 #@! TO.P,J103,4*
G04 #@! TO.N,/GPIO_25*
X102252880Y-56127840D03*
G04 #@! TO.P,J103,3*
X102252880Y-53587840D03*
G04 #@! TO.P,J103,2*
G04 #@! TO.N,/GPIO_23*
X99712880Y-56127840D03*
D10*
G04 #@! TO.P,J103,1*
X99712880Y-53587840D03*
G04 #@! TD*
G04 #@! TO.P,J102,1*
G04 #@! TO.N,/IO0_Boot_option*
X62994640Y-53592920D03*
D11*
G04 #@! TO.P,J102,2*
X62994640Y-56132920D03*
G04 #@! TO.P,J102,3*
G04 #@! TO.N,/GPIO_2*
X65534640Y-53592920D03*
G04 #@! TO.P,J102,4*
X65534640Y-56132920D03*
G04 #@! TO.P,J102,5*
G04 #@! TO.N,/GPIO_4*
X68074640Y-53592920D03*
G04 #@! TO.P,J102,6*
X68074640Y-56132920D03*
G04 #@! TO.P,J102,7*
G04 #@! TO.N,/GPIO_5*
X70614640Y-53592920D03*
G04 #@! TO.P,J102,8*
X70614640Y-56132920D03*
G04 #@! TO.P,J102,9*
G04 #@! TO.N,/GPIO_12*
X73154640Y-53592920D03*
G04 #@! TO.P,J102,10*
X73154640Y-56132920D03*
G04 #@! TO.P,J102,11*
G04 #@! TO.N,/GPIO_13*
X75694640Y-53592920D03*
G04 #@! TO.P,J102,12*
X75694640Y-56132920D03*
G04 #@! TO.P,J102,13*
G04 #@! TO.N,/GPIO_14*
X78234640Y-53592920D03*
G04 #@! TO.P,J102,14*
X78234640Y-56132920D03*
G04 #@! TO.P,J102,15*
G04 #@! TO.N,/GPIO_15*
X80774640Y-53592920D03*
G04 #@! TO.P,J102,16*
X80774640Y-56132920D03*
G04 #@! TO.P,J102,17*
G04 #@! TO.N,/GPIO_16*
X83314640Y-53592920D03*
G04 #@! TO.P,J102,18*
X83314640Y-56132920D03*
G04 #@! TO.P,J102,19*
G04 #@! TO.N,/GPIO_17*
X85854640Y-53592920D03*
G04 #@! TO.P,J102,20*
X85854640Y-56132920D03*
G04 #@! TO.P,J102,21*
G04 #@! TO.N,/GPIO_18*
X88394640Y-53592920D03*
G04 #@! TO.P,J102,22*
X88394640Y-56132920D03*
G04 #@! TO.P,J102,23*
G04 #@! TO.N,/GPIO_19*
X90934640Y-53592920D03*
G04 #@! TO.P,J102,24*
X90934640Y-56132920D03*
G04 #@! TO.P,J102,25*
G04 #@! TO.N,/GPIO_21*
X93474640Y-53592920D03*
G04 #@! TO.P,J102,26*
X93474640Y-56132920D03*
G04 #@! TO.P,J102,27*
G04 #@! TO.N,/GPIO_22*
X96014640Y-53592920D03*
G04 #@! TO.P,J102,28*
X96014640Y-56132920D03*
G04 #@! TD*
G04 #@! TO.P,J3,14*
G04 #@! TO.N,Net-(J101-Pad14)*
X129469000Y-119832000D03*
G04 #@! TO.P,J3,13*
G04 #@! TO.N,Net-(J101-Pad13)*
X126929000Y-119832000D03*
G04 #@! TO.P,J3,12*
G04 #@! TO.N,Net-(J101-Pad12)*
X129469000Y-117292000D03*
G04 #@! TO.P,J3,11*
G04 #@! TO.N,Net-(J101-Pad11)*
X126929000Y-117292000D03*
G04 #@! TO.P,J3,10*
G04 #@! TO.N,/MTCK*
X129469000Y-114752000D03*
G04 #@! TO.P,J3,9*
G04 #@! TO.N,Net-(J101-Pad9)*
X126929000Y-114752000D03*
G04 #@! TO.P,J3,8*
G04 #@! TO.N,/MTDI*
X129469000Y-112212000D03*
G04 #@! TO.P,J3,7*
G04 #@! TO.N,Net-(J101-Pad7)*
X126929000Y-112212000D03*
G04 #@! TO.P,J3,6*
G04 #@! TO.N,/MTDO*
X129469000Y-109672000D03*
G04 #@! TO.P,J3,5*
G04 #@! TO.N,Net-(J101-Pad5)*
X126929000Y-109672000D03*
G04 #@! TO.P,J3,4*
G04 #@! TO.N,/MTMS*
X129469000Y-107132000D03*
G04 #@! TO.P,J3,3*
G04 #@! TO.N,Net-(J101-Pad3)*
X126929000Y-107132000D03*
G04 #@! TO.P,J3,2*
G04 #@! TO.N,Net-(J101-Pad2)*
X129469000Y-104592000D03*
D10*
G04 #@! TO.P,J3,1*
G04 #@! TO.N,/CH_Enable*
X126929000Y-104592000D03*
G04 #@! TD*
D11*
G04 #@! TO.P,J1,28*
G04 #@! TO.N,Net-(J1-Pad28)*
X58890000Y-88100000D03*
G04 #@! TO.P,J1,27*
G04 #@! TO.N,/GPIO_15*
X56350000Y-88100000D03*
G04 #@! TO.P,J1,26*
G04 #@! TO.N,/GPIO_2*
X58890000Y-85560000D03*
G04 #@! TO.P,J1,25*
G04 #@! TO.N,/IO0_Boot_option*
X56350000Y-85560000D03*
G04 #@! TO.P,J1,24*
G04 #@! TO.N,/GPIO_4*
X58890000Y-83020000D03*
G04 #@! TO.P,J1,23*
G04 #@! TO.N,/GPIO_16*
X56350000Y-83020000D03*
G04 #@! TO.P,J1,22*
G04 #@! TO.N,/GPIO_17*
X58890000Y-80480000D03*
G04 #@! TO.P,J1,21*
G04 #@! TO.N,/GPIO_5*
X56350000Y-80480000D03*
G04 #@! TO.P,J1,20*
G04 #@! TO.N,/GPIO_18*
X58890000Y-77940000D03*
G04 #@! TO.P,J1,19*
G04 #@! TO.N,/GPIO_19*
X56350000Y-77940000D03*
G04 #@! TO.P,J1,18*
G04 #@! TO.N,/GPIO_21*
X58890000Y-75400000D03*
G04 #@! TO.P,J1,17*
G04 #@! TO.N,/GPIO_22*
X56350000Y-75400000D03*
G04 #@! TO.P,J1,16*
G04 #@! TO.N,/GPIO_23*
X58890000Y-72860000D03*
G04 #@! TO.P,J1,15*
G04 #@! TO.N,/EN*
X56350000Y-72860000D03*
G04 #@! TO.P,J1,14*
G04 #@! TO.N,/GPIO_36*
X58890000Y-70320000D03*
G04 #@! TO.P,J1,13*
G04 #@! TO.N,/GPIO_39*
X56350000Y-70320000D03*
G04 #@! TO.P,J1,12*
G04 #@! TO.N,/GPIO_34*
X58890000Y-67780000D03*
G04 #@! TO.P,J1,11*
G04 #@! TO.N,/GPIO_35*
X56350000Y-67780000D03*
G04 #@! TO.P,J1,10*
G04 #@! TO.N,/GPIO_25*
X58890000Y-65240000D03*
G04 #@! TO.P,J1,9*
G04 #@! TO.N,/GPIO_26*
X56350000Y-65240000D03*
G04 #@! TO.P,J1,8*
G04 #@! TO.N,/GPIO_27*
X58890000Y-62700000D03*
G04 #@! TO.P,J1,7*
G04 #@! TO.N,/GPIO_14*
X56350000Y-62700000D03*
G04 #@! TO.P,J1,6*
G04 #@! TO.N,/GPIO_13*
X58890000Y-60160000D03*
G04 #@! TO.P,J1,5*
G04 #@! TO.N,/GPIO_12*
X56350000Y-60160000D03*
G04 #@! TO.P,J1,4*
G04 #@! TO.N,/GPIO_33*
X58890000Y-57620000D03*
G04 #@! TO.P,J1,3*
G04 #@! TO.N,/GPIO_32*
X56350000Y-57620000D03*
G04 #@! TO.P,J1,2*
G04 #@! TO.N,GND*
X58890000Y-55080000D03*
D10*
G04 #@! TO.P,J1,1*
G04 #@! TO.N,+3V3*
X56350000Y-55080000D03*
G04 #@! TD*
G04 #@! TO.P,J4,1*
G04 #@! TO.N,GND*
X103340000Y-107150000D03*
D11*
G04 #@! TO.P,J4,2*
G04 #@! TO.N,/IO0_Boot_option*
X105880000Y-107150000D03*
G04 #@! TO.P,J4,3*
G04 #@! TO.N,/CH_Enable*
X103340000Y-109690000D03*
G04 #@! TO.P,J4,4*
G04 #@! TO.N,/MTCK*
X105880000Y-109690000D03*
G04 #@! TO.P,J4,5*
G04 #@! TO.N,/TDX*
X103340000Y-112230000D03*
G04 #@! TO.P,J4,6*
G04 #@! TO.N,/MTDI*
X105880000Y-112230000D03*
G04 #@! TO.P,J4,7*
G04 #@! TO.N,/RDX*
X103340000Y-114770000D03*
G04 #@! TO.P,J4,8*
G04 #@! TO.N,/MTDO*
X105880000Y-114770000D03*
G04 #@! TO.P,J4,9*
G04 #@! TO.N,Net-(J4-Pad9)*
X103340000Y-117310000D03*
G04 #@! TO.P,J4,10*
G04 #@! TO.N,/MTMS*
X105880000Y-117310000D03*
G04 #@! TD*
D10*
G04 #@! TO.P,J2,1*
G04 #@! TO.N,Net-(J2-Pad1)*
X126929000Y-82767000D03*
D11*
G04 #@! TO.P,J2,2*
G04 #@! TO.N,Net-(J2-Pad2)*
X129469000Y-82767000D03*
G04 #@! TO.P,J2,3*
G04 #@! TO.N,/RDX*
X126929000Y-85307000D03*
G04 #@! TO.P,J2,4*
G04 #@! TO.N,Net-(J2-Pad4)*
X129469000Y-85307000D03*
G04 #@! TO.P,J2,5*
G04 #@! TO.N,/TDX*
X126929000Y-87847000D03*
G04 #@! TO.P,J2,6*
G04 #@! TO.N,Net-(J2-Pad6)*
X129469000Y-87847000D03*
G04 #@! TO.P,J2,7*
G04 #@! TO.N,GND*
X126929000Y-90387000D03*
G04 #@! TO.P,J2,8*
G04 #@! TO.N,Net-(J2-Pad8)*
X129469000Y-90387000D03*
G04 #@! TD*
D12*
G04 #@! TO.N,GND*
X51100000Y-51070000D03*
X56100000Y-51070000D03*
X61100000Y-51070000D03*
X66100000Y-51070000D03*
X71100000Y-51070000D03*
X76100000Y-51070000D03*
X81100000Y-51070000D03*
X86100000Y-51070000D03*
X91100000Y-51070000D03*
X96100000Y-51070000D03*
X101100000Y-51070000D03*
X106100000Y-51070000D03*
X111100000Y-51070000D03*
X116100000Y-51070000D03*
X121100000Y-51070000D03*
X126100000Y-51070000D03*
X51100000Y-131070000D03*
X62220000Y-131870000D03*
X67220000Y-131870000D03*
X72220000Y-131870000D03*
X77220000Y-131870000D03*
X82220000Y-131870000D03*
X87220000Y-131870000D03*
X92220000Y-131870000D03*
X97220000Y-131870000D03*
X102220000Y-131870000D03*
X107220000Y-131870000D03*
X112220000Y-131870000D03*
X122220000Y-131870000D03*
X127220000Y-131870000D03*
X133760000Y-51070000D03*
X51100000Y-56070000D03*
X51100000Y-61070000D03*
X51100000Y-66070000D03*
X51100000Y-91070000D03*
X51100000Y-96070000D03*
X51100000Y-101070000D03*
X51100000Y-106070000D03*
X51100000Y-111070000D03*
X51100000Y-116070000D03*
X51100000Y-121070000D03*
X51100000Y-126070000D03*
X133760000Y-61070000D03*
X133760000Y-66070000D03*
X133760000Y-71070000D03*
X133760000Y-76070000D03*
X133760000Y-81070000D03*
X133760000Y-86070000D03*
X133760000Y-91070000D03*
X133760000Y-96070000D03*
X133760000Y-101070000D03*
X133760000Y-106070000D03*
X133760000Y-111070000D03*
X133760000Y-116070000D03*
X133760000Y-121070000D03*
X133760000Y-126070000D03*
X133760000Y-131070000D03*
X55080000Y-131870000D03*
X130010000Y-72860000D03*
X130010000Y-80480000D03*
X117220000Y-131870000D03*
X51100000Y-71070000D03*
X51100000Y-76070000D03*
X51100000Y-81070000D03*
X51100000Y-86070000D03*
X84467800Y-62015560D03*
X95943520Y-64977200D03*
X106652160Y-58794840D03*
X113454280Y-58596720D03*
X111305440Y-66216720D03*
X100256440Y-66328480D03*
X71173440Y-75909360D03*
X68856960Y-88919240D03*
X82395160Y-102985760D03*
X101450240Y-103107680D03*
X118666360Y-92896880D03*
X107505600Y-75858560D03*
X121277480Y-63808800D03*
X79601160Y-105652760D03*
X66723360Y-92536200D03*
X99428400Y-106424920D03*
X73063200Y-63316040D03*
X75928320Y-60649040D03*
X113967360Y-106490960D03*
X113997840Y-117291040D03*
X109471560Y-110499080D03*
G04 #@! TO.N,/GPIO_4*
X62369800Y-80872518D03*
G04 #@! TO.N,/GPIO_5*
X63268960Y-78296960D03*
G04 #@! TO.N,/GPIO_27*
X103345474Y-57799554D03*
G04 #@! TO.N,/GPIO_14*
X64132560Y-63966280D03*
G04 #@! TO.N,/GPIO_13*
X73591520Y-59607639D03*
G04 #@! TO.N,/GPIO_12*
X71447760Y-60376150D03*
G04 #@! TD*
D13*
G04 #@! TO.N,/IO0_Boot_option*
X81744920Y-104987280D02*
X103717280Y-104987280D01*
X103717280Y-104987280D02*
X105880000Y-107150000D01*
X63492641Y-86735001D02*
X81744920Y-104987280D01*
X56350000Y-85560000D02*
X57525001Y-86735001D01*
X57525001Y-86735001D02*
X63492641Y-86735001D01*
G04 #@! TO.N,/EN*
X57199999Y-73709999D02*
X56350000Y-72860000D01*
X108407800Y-74035001D02*
X57525001Y-74035001D01*
X125112880Y-57329921D02*
X108407800Y-74035001D01*
X57525001Y-74035001D02*
X57199999Y-73709999D01*
X125112880Y-56127840D02*
X125112880Y-57329921D01*
G04 #@! TO.N,/GPIO_4*
X58890000Y-83020000D02*
X60222318Y-83020000D01*
X61969801Y-81272517D02*
X62369800Y-80872518D01*
X60222318Y-83020000D02*
X61969801Y-81272517D01*
G04 #@! TO.N,/GPIO_5*
X62868961Y-78696959D02*
X63268960Y-78296960D01*
X57664360Y-79165640D02*
X62400280Y-79165640D01*
X62400280Y-79165640D02*
X62868961Y-78696959D01*
X56350000Y-80480000D02*
X57664360Y-79165640D01*
G04 #@! TO.N,/GPIO_36*
X60092081Y-70320000D02*
X58890000Y-70320000D01*
X110839440Y-70320000D02*
X60092081Y-70320000D01*
X120032880Y-56127840D02*
X120032880Y-61126560D01*
X120032880Y-61126560D02*
X110839440Y-70320000D01*
G04 #@! TO.N,/GPIO_39*
X57199999Y-71169999D02*
X56350000Y-70320000D01*
X110304519Y-71495001D02*
X57525001Y-71495001D01*
X57525001Y-71495001D02*
X57199999Y-71169999D01*
X122572880Y-56127840D02*
X122572880Y-59226640D01*
X122572880Y-59226640D02*
X110304519Y-71495001D01*
G04 #@! TO.N,/GPIO_34*
X112094200Y-67780000D02*
X58890000Y-67780000D01*
X114952880Y-56127840D02*
X114952880Y-64921320D01*
X114952880Y-64921320D02*
X112094200Y-67780000D01*
G04 #@! TO.N,/GPIO_35*
X111555610Y-68955001D02*
X57525001Y-68955001D01*
X57525001Y-68955001D02*
X57199999Y-68629999D01*
X117492880Y-63017731D02*
X111555610Y-68955001D01*
X117492880Y-56127840D02*
X117492880Y-63017731D01*
X57199999Y-68629999D02*
X56350000Y-67780000D01*
G04 #@! TO.N,/GPIO_26*
X57199999Y-66089999D02*
X56350000Y-65240000D01*
X57525001Y-66415001D02*
X57199999Y-66089999D01*
X96796799Y-66415001D02*
X57525001Y-66415001D01*
X104792880Y-56127840D02*
X104792880Y-58418920D01*
X104792880Y-58418920D02*
X96796799Y-66415001D01*
G04 #@! TO.N,/GPIO_27*
X61690930Y-61101151D02*
X73291809Y-61101151D01*
X58890000Y-62700000D02*
X60092081Y-62700000D01*
X60092081Y-62700000D02*
X61690930Y-61101151D01*
X73291809Y-61101151D02*
X75147949Y-59245011D01*
X75147949Y-59245011D02*
X101900017Y-59245011D01*
X101900017Y-59245011D02*
X103345474Y-57799554D01*
G04 #@! TO.N,/GPIO_14*
X57616280Y-63966280D02*
X63566875Y-63966280D01*
X56350000Y-62700000D02*
X57616280Y-63966280D01*
X63566875Y-63966280D02*
X64132560Y-63966280D01*
G04 #@! TO.N,/GPIO_13*
X60092081Y-60160000D02*
X60644442Y-59607639D01*
X60644442Y-59607639D02*
X73591520Y-59607639D01*
X58890000Y-60160000D02*
X60092081Y-60160000D01*
G04 #@! TO.N,/GPIO_12*
X70882075Y-60376150D02*
X71447760Y-60376150D01*
X57525001Y-61335001D02*
X59618589Y-61335001D01*
X59618589Y-61335001D02*
X60577440Y-60376150D01*
X56350000Y-60160000D02*
X57525001Y-61335001D01*
X60577440Y-60376150D02*
X70882075Y-60376150D01*
G04 #@! TO.N,/GPIO_33*
X60065001Y-56444999D02*
X59739999Y-56770001D01*
X60065001Y-54237557D02*
X60065001Y-56444999D01*
X62339728Y-51962830D02*
X60065001Y-54237557D01*
X110787870Y-51962830D02*
X62339728Y-51962830D01*
X59739999Y-56770001D02*
X58890000Y-57620000D01*
X112412880Y-53587840D02*
X110787870Y-51962830D01*
G04 #@! TO.N,/GPIO_32*
X109022881Y-52737841D02*
X109872880Y-53587840D01*
X108697879Y-52412839D02*
X109022881Y-52737841D01*
X103930801Y-52412839D02*
X108697879Y-52412839D01*
X103617879Y-52725761D02*
X103930801Y-52412839D01*
X103617879Y-56501843D02*
X103617879Y-52725761D01*
X101324721Y-58795001D02*
X103617879Y-56501843D01*
X57525001Y-58795001D02*
X101324721Y-58795001D01*
X56350000Y-57620000D02*
X57525001Y-58795001D01*
G04 #@! TD*
D14*
G04 #@! TO.N,GND*
G36*
X134290001Y-132390000D02*
X50710000Y-132390000D01*
X50710000Y-57620000D01*
X54835908Y-57620000D01*
X54951161Y-58199418D01*
X55279375Y-58690625D01*
X55577761Y-58890000D01*
X55279375Y-59089375D01*
X54951161Y-59580582D01*
X54835908Y-60160000D01*
X54951161Y-60739418D01*
X55279375Y-61230625D01*
X55577761Y-61430000D01*
X55279375Y-61629375D01*
X54951161Y-62120582D01*
X54835908Y-62700000D01*
X54951161Y-63279418D01*
X55279375Y-63770625D01*
X55577761Y-63970000D01*
X55279375Y-64169375D01*
X54951161Y-64660582D01*
X54835908Y-65240000D01*
X54951161Y-65819418D01*
X55279375Y-66310625D01*
X55577761Y-66510000D01*
X55279375Y-66709375D01*
X54951161Y-67200582D01*
X54835908Y-67780000D01*
X54951161Y-68359418D01*
X55279375Y-68850625D01*
X55577761Y-69050000D01*
X55279375Y-69249375D01*
X54951161Y-69740582D01*
X54835908Y-70320000D01*
X54951161Y-70899418D01*
X55279375Y-71390625D01*
X55577761Y-71590000D01*
X55279375Y-71789375D01*
X54951161Y-72280582D01*
X54835908Y-72860000D01*
X54951161Y-73439418D01*
X55279375Y-73930625D01*
X55577761Y-74130000D01*
X55279375Y-74329375D01*
X54951161Y-74820582D01*
X54835908Y-75400000D01*
X54951161Y-75979418D01*
X55279375Y-76470625D01*
X55577761Y-76670000D01*
X55279375Y-76869375D01*
X54951161Y-77360582D01*
X54835908Y-77940000D01*
X54951161Y-78519418D01*
X55279375Y-79010625D01*
X55577761Y-79210000D01*
X55279375Y-79409375D01*
X54951161Y-79900582D01*
X54835908Y-80480000D01*
X54951161Y-81059418D01*
X55279375Y-81550625D01*
X55577761Y-81750000D01*
X55279375Y-81949375D01*
X54951161Y-82440582D01*
X54835908Y-83020000D01*
X54951161Y-83599418D01*
X55279375Y-84090625D01*
X55577761Y-84290000D01*
X55279375Y-84489375D01*
X54951161Y-84980582D01*
X54835908Y-85560000D01*
X54951161Y-86139418D01*
X55279375Y-86630625D01*
X55577761Y-86830000D01*
X55279375Y-87029375D01*
X54951161Y-87520582D01*
X54835908Y-88100000D01*
X54951161Y-88679418D01*
X55279375Y-89170625D01*
X55770582Y-89498839D01*
X56203744Y-89585000D01*
X56496256Y-89585000D01*
X56929418Y-89498839D01*
X57420625Y-89170625D01*
X57620000Y-88872239D01*
X57819375Y-89170625D01*
X58310582Y-89498839D01*
X58743744Y-89585000D01*
X59036256Y-89585000D01*
X59469418Y-89498839D01*
X59960625Y-89170625D01*
X60288839Y-88679418D01*
X60404092Y-88100000D01*
X60288839Y-87520582D01*
X60271746Y-87495001D01*
X63177840Y-87495001D01*
X81154590Y-105471752D01*
X81196991Y-105535209D01*
X81448383Y-105703184D01*
X81670068Y-105747280D01*
X81670072Y-105747280D01*
X81744920Y-105762168D01*
X81819768Y-105747280D01*
X102165050Y-105747280D01*
X102130302Y-105761673D01*
X101951673Y-105940301D01*
X101855000Y-106173690D01*
X101855000Y-106864250D01*
X102013750Y-107023000D01*
X103213000Y-107023000D01*
X103213000Y-107003000D01*
X103467000Y-107003000D01*
X103467000Y-107023000D01*
X103487000Y-107023000D01*
X103487000Y-107277000D01*
X103467000Y-107277000D01*
X103467000Y-107297000D01*
X103213000Y-107297000D01*
X103213000Y-107277000D01*
X102013750Y-107277000D01*
X101855000Y-107435750D01*
X101855000Y-108126310D01*
X101951673Y-108359699D01*
X102130302Y-108538327D01*
X102291033Y-108604904D01*
X102269375Y-108619375D01*
X101941161Y-109110582D01*
X101825908Y-109690000D01*
X101941161Y-110269418D01*
X102269375Y-110760625D01*
X102567761Y-110960000D01*
X102269375Y-111159375D01*
X101941161Y-111650582D01*
X101825908Y-112230000D01*
X101941161Y-112809418D01*
X102269375Y-113300625D01*
X102567761Y-113500000D01*
X102269375Y-113699375D01*
X101941161Y-114190582D01*
X101825908Y-114770000D01*
X101941161Y-115349418D01*
X102269375Y-115840625D01*
X102567761Y-116040000D01*
X102269375Y-116239375D01*
X101941161Y-116730582D01*
X101825908Y-117310000D01*
X101941161Y-117889418D01*
X102269375Y-118380625D01*
X102760582Y-118708839D01*
X103193744Y-118795000D01*
X103486256Y-118795000D01*
X103919418Y-118708839D01*
X104410625Y-118380625D01*
X104610000Y-118082239D01*
X104809375Y-118380625D01*
X105300582Y-118708839D01*
X105733744Y-118795000D01*
X106026256Y-118795000D01*
X106459418Y-118708839D01*
X106950625Y-118380625D01*
X107278839Y-117889418D01*
X107394092Y-117310000D01*
X107278839Y-116730582D01*
X106950625Y-116239375D01*
X106652239Y-116040000D01*
X106950625Y-115840625D01*
X107278839Y-115349418D01*
X107394092Y-114770000D01*
X107278839Y-114190582D01*
X106950625Y-113699375D01*
X106652239Y-113500000D01*
X106950625Y-113300625D01*
X107278839Y-112809418D01*
X107394092Y-112230000D01*
X107278839Y-111650582D01*
X106950625Y-111159375D01*
X106652239Y-110960000D01*
X106950625Y-110760625D01*
X107278839Y-110269418D01*
X107394092Y-109690000D01*
X107278839Y-109110582D01*
X106950625Y-108619375D01*
X106652239Y-108420000D01*
X106950625Y-108220625D01*
X107278839Y-107729418D01*
X107394092Y-107150000D01*
X107390512Y-107132000D01*
X115541908Y-107132000D01*
X115657161Y-107711418D01*
X115985375Y-108202625D01*
X116283761Y-108402000D01*
X115985375Y-108601375D01*
X115657161Y-109092582D01*
X115541908Y-109672000D01*
X115657161Y-110251418D01*
X115985375Y-110742625D01*
X116283761Y-110942000D01*
X115985375Y-111141375D01*
X115657161Y-111632582D01*
X115541908Y-112212000D01*
X115657161Y-112791418D01*
X115985375Y-113282625D01*
X116283761Y-113482000D01*
X115985375Y-113681375D01*
X115657161Y-114172582D01*
X115541908Y-114752000D01*
X115657161Y-115331418D01*
X115985375Y-115822625D01*
X116283761Y-116022000D01*
X115985375Y-116221375D01*
X115657161Y-116712582D01*
X115541908Y-117292000D01*
X115657161Y-117871418D01*
X115985375Y-118362625D01*
X116283761Y-118562000D01*
X115985375Y-118761375D01*
X115657161Y-119252582D01*
X115541908Y-119832000D01*
X115657161Y-120411418D01*
X115985375Y-120902625D01*
X116476582Y-121230839D01*
X116909744Y-121317000D01*
X117202256Y-121317000D01*
X117635418Y-121230839D01*
X118126625Y-120902625D01*
X118326000Y-120604239D01*
X118525375Y-120902625D01*
X119016582Y-121230839D01*
X119449744Y-121317000D01*
X119742256Y-121317000D01*
X120175418Y-121230839D01*
X120666625Y-120902625D01*
X120994839Y-120411418D01*
X121110092Y-119832000D01*
X120994839Y-119252582D01*
X120666625Y-118761375D01*
X120368239Y-118562000D01*
X120666625Y-118362625D01*
X120994839Y-117871418D01*
X121110092Y-117292000D01*
X120994839Y-116712582D01*
X120666625Y-116221375D01*
X120368239Y-116022000D01*
X120666625Y-115822625D01*
X120994839Y-115331418D01*
X121110092Y-114752000D01*
X120994839Y-114172582D01*
X120666625Y-113681375D01*
X120368239Y-113482000D01*
X120666625Y-113282625D01*
X120994839Y-112791418D01*
X121110092Y-112212000D01*
X120994839Y-111632582D01*
X120666625Y-111141375D01*
X120368239Y-110942000D01*
X120666625Y-110742625D01*
X120994839Y-110251418D01*
X121110092Y-109672000D01*
X120994839Y-109092582D01*
X120666625Y-108601375D01*
X120368239Y-108402000D01*
X120666625Y-108202625D01*
X120994839Y-107711418D01*
X121110092Y-107132000D01*
X125414908Y-107132000D01*
X125530161Y-107711418D01*
X125858375Y-108202625D01*
X126156761Y-108402000D01*
X125858375Y-108601375D01*
X125530161Y-109092582D01*
X125414908Y-109672000D01*
X125530161Y-110251418D01*
X125858375Y-110742625D01*
X126156761Y-110942000D01*
X125858375Y-111141375D01*
X125530161Y-111632582D01*
X125414908Y-112212000D01*
X125530161Y-112791418D01*
X125858375Y-113282625D01*
X126156761Y-113482000D01*
X125858375Y-113681375D01*
X125530161Y-114172582D01*
X125414908Y-114752000D01*
X125530161Y-115331418D01*
X125858375Y-115822625D01*
X126156761Y-116022000D01*
X125858375Y-116221375D01*
X125530161Y-116712582D01*
X125414908Y-117292000D01*
X125530161Y-117871418D01*
X125858375Y-118362625D01*
X126156761Y-118562000D01*
X125858375Y-118761375D01*
X125530161Y-119252582D01*
X125414908Y-119832000D01*
X125530161Y-120411418D01*
X125858375Y-120902625D01*
X126349582Y-121230839D01*
X126782744Y-121317000D01*
X127075256Y-121317000D01*
X127508418Y-121230839D01*
X127999625Y-120902625D01*
X128199000Y-120604239D01*
X128398375Y-120902625D01*
X128889582Y-121230839D01*
X129322744Y-121317000D01*
X129615256Y-121317000D01*
X130048418Y-121230839D01*
X130539625Y-120902625D01*
X130867839Y-120411418D01*
X130983092Y-119832000D01*
X130867839Y-119252582D01*
X130539625Y-118761375D01*
X130241239Y-118562000D01*
X130539625Y-118362625D01*
X130867839Y-117871418D01*
X130983092Y-117292000D01*
X130867839Y-116712582D01*
X130539625Y-116221375D01*
X130241239Y-116022000D01*
X130539625Y-115822625D01*
X130867839Y-115331418D01*
X130983092Y-114752000D01*
X130867839Y-114172582D01*
X130539625Y-113681375D01*
X130241239Y-113482000D01*
X130539625Y-113282625D01*
X130867839Y-112791418D01*
X130983092Y-112212000D01*
X130867839Y-111632582D01*
X130539625Y-111141375D01*
X130241239Y-110942000D01*
X130539625Y-110742625D01*
X130867839Y-110251418D01*
X130983092Y-109672000D01*
X130867839Y-109092582D01*
X130539625Y-108601375D01*
X130241239Y-108402000D01*
X130539625Y-108202625D01*
X130867839Y-107711418D01*
X130983092Y-107132000D01*
X130867839Y-106552582D01*
X130539625Y-106061375D01*
X130241239Y-105862000D01*
X130539625Y-105662625D01*
X130867839Y-105171418D01*
X130983092Y-104592000D01*
X130867839Y-104012582D01*
X130539625Y-103521375D01*
X130048418Y-103193161D01*
X129615256Y-103107000D01*
X129322744Y-103107000D01*
X128889582Y-103193161D01*
X128398375Y-103521375D01*
X128386184Y-103539619D01*
X128377157Y-103494235D01*
X128236809Y-103284191D01*
X128026765Y-103143843D01*
X127779000Y-103094560D01*
X126079000Y-103094560D01*
X125831235Y-103143843D01*
X125621191Y-103284191D01*
X125480843Y-103494235D01*
X125431560Y-103742000D01*
X125431560Y-105442000D01*
X125480843Y-105689765D01*
X125621191Y-105899809D01*
X125831235Y-106040157D01*
X125876619Y-106049184D01*
X125858375Y-106061375D01*
X125530161Y-106552582D01*
X125414908Y-107132000D01*
X121110092Y-107132000D01*
X120994839Y-106552582D01*
X120666625Y-106061375D01*
X120368239Y-105862000D01*
X120666625Y-105662625D01*
X120994839Y-105171418D01*
X121110092Y-104592000D01*
X120994839Y-104012582D01*
X120666625Y-103521375D01*
X120175418Y-103193161D01*
X119742256Y-103107000D01*
X119449744Y-103107000D01*
X119016582Y-103193161D01*
X118525375Y-103521375D01*
X118513184Y-103539619D01*
X118504157Y-103494235D01*
X118363809Y-103284191D01*
X118153765Y-103143843D01*
X117906000Y-103094560D01*
X116206000Y-103094560D01*
X115958235Y-103143843D01*
X115748191Y-103284191D01*
X115607843Y-103494235D01*
X115558560Y-103742000D01*
X115558560Y-105442000D01*
X115607843Y-105689765D01*
X115748191Y-105899809D01*
X115958235Y-106040157D01*
X116003619Y-106049184D01*
X115985375Y-106061375D01*
X115657161Y-106552582D01*
X115541908Y-107132000D01*
X107390512Y-107132000D01*
X107278839Y-106570582D01*
X106950625Y-106079375D01*
X106459418Y-105751161D01*
X106026256Y-105665000D01*
X105733744Y-105665000D01*
X105513592Y-105708791D01*
X104307611Y-104502810D01*
X104265209Y-104439351D01*
X104013817Y-104271376D01*
X103792132Y-104227280D01*
X103792127Y-104227280D01*
X103717280Y-104212392D01*
X103642433Y-104227280D01*
X82059722Y-104227280D01*
X68576332Y-90743890D01*
X125487524Y-90743890D01*
X125657355Y-91153924D01*
X126047642Y-91582183D01*
X126572108Y-91828486D01*
X126802000Y-91707819D01*
X126802000Y-90514000D01*
X125608845Y-90514000D01*
X125487524Y-90743890D01*
X68576332Y-90743890D01*
X64082972Y-86250531D01*
X64040570Y-86187072D01*
X63789178Y-86019097D01*
X63567493Y-85975001D01*
X63567488Y-85975001D01*
X63492641Y-85960113D01*
X63417794Y-85975001D01*
X60321543Y-85975001D01*
X60404092Y-85560000D01*
X60353768Y-85307000D01*
X125414908Y-85307000D01*
X125530161Y-85886418D01*
X125858375Y-86377625D01*
X126156761Y-86577000D01*
X125858375Y-86776375D01*
X125530161Y-87267582D01*
X125414908Y-87847000D01*
X125530161Y-88426418D01*
X125858375Y-88917625D01*
X126177478Y-89130843D01*
X126047642Y-89191817D01*
X125657355Y-89620076D01*
X125487524Y-90030110D01*
X125608845Y-90260000D01*
X126802000Y-90260000D01*
X126802000Y-90240000D01*
X127056000Y-90240000D01*
X127056000Y-90260000D01*
X127076000Y-90260000D01*
X127076000Y-90514000D01*
X127056000Y-90514000D01*
X127056000Y-91707819D01*
X127285892Y-91828486D01*
X127810358Y-91582183D01*
X128197647Y-91157214D01*
X128398375Y-91457625D01*
X128889582Y-91785839D01*
X129322744Y-91872000D01*
X129615256Y-91872000D01*
X130048418Y-91785839D01*
X130539625Y-91457625D01*
X130867839Y-90966418D01*
X130983092Y-90387000D01*
X130867839Y-89807582D01*
X130539625Y-89316375D01*
X130241239Y-89117000D01*
X130539625Y-88917625D01*
X130867839Y-88426418D01*
X130983092Y-87847000D01*
X130867839Y-87267582D01*
X130539625Y-86776375D01*
X130241239Y-86577000D01*
X130539625Y-86377625D01*
X130867839Y-85886418D01*
X130983092Y-85307000D01*
X130867839Y-84727582D01*
X130539625Y-84236375D01*
X130241239Y-84037000D01*
X130539625Y-83837625D01*
X130867839Y-83346418D01*
X130983092Y-82767000D01*
X130867839Y-82187582D01*
X130539625Y-81696375D01*
X130048418Y-81368161D01*
X129615256Y-81282000D01*
X129322744Y-81282000D01*
X128889582Y-81368161D01*
X128398375Y-81696375D01*
X128386184Y-81714619D01*
X128377157Y-81669235D01*
X128236809Y-81459191D01*
X128026765Y-81318843D01*
X127779000Y-81269560D01*
X126079000Y-81269560D01*
X125831235Y-81318843D01*
X125621191Y-81459191D01*
X125480843Y-81669235D01*
X125431560Y-81917000D01*
X125431560Y-83617000D01*
X125480843Y-83864765D01*
X125621191Y-84074809D01*
X125831235Y-84215157D01*
X125876619Y-84224184D01*
X125858375Y-84236375D01*
X125530161Y-84727582D01*
X125414908Y-85307000D01*
X60353768Y-85307000D01*
X60288839Y-84980582D01*
X59960625Y-84489375D01*
X59662239Y-84290000D01*
X59960625Y-84090625D01*
X60165749Y-83783636D01*
X60222318Y-83794888D01*
X60297165Y-83780000D01*
X60297170Y-83780000D01*
X60518855Y-83735904D01*
X60770247Y-83567929D01*
X60812649Y-83504470D01*
X62409602Y-81907518D01*
X62575674Y-81907518D01*
X62956080Y-81749949D01*
X63247231Y-81458798D01*
X63404800Y-81078392D01*
X63404800Y-80666644D01*
X63247231Y-80286238D01*
X62956080Y-79995087D01*
X62686782Y-79883540D01*
X62696817Y-79881544D01*
X62948209Y-79713569D01*
X62990611Y-79650110D01*
X63308761Y-79331960D01*
X63474834Y-79331960D01*
X63855240Y-79174391D01*
X64146391Y-78883240D01*
X64303960Y-78502834D01*
X64303960Y-78091086D01*
X64146391Y-77710680D01*
X63855240Y-77419529D01*
X63474834Y-77261960D01*
X63063086Y-77261960D01*
X62682680Y-77419529D01*
X62391529Y-77710680D01*
X62233960Y-78091086D01*
X62233960Y-78257159D01*
X62085479Y-78405640D01*
X60311471Y-78405640D01*
X60404092Y-77940000D01*
X60288839Y-77360582D01*
X59960625Y-76869375D01*
X59662239Y-76670000D01*
X59960625Y-76470625D01*
X60288839Y-75979418D01*
X60404092Y-75400000D01*
X60288839Y-74820582D01*
X60271746Y-74795001D01*
X108332953Y-74795001D01*
X108407800Y-74809889D01*
X108482647Y-74795001D01*
X108482652Y-74795001D01*
X108704337Y-74750905D01*
X108955729Y-74582930D01*
X108998131Y-74519471D01*
X125597353Y-57920250D01*
X125660809Y-57877850D01*
X125777629Y-57703017D01*
X125828784Y-57626459D01*
X125856742Y-57485904D01*
X125872594Y-57406209D01*
X126183505Y-57198465D01*
X126382880Y-56900079D01*
X126582255Y-57198465D01*
X127073462Y-57526679D01*
X127506624Y-57612840D01*
X127799136Y-57612840D01*
X128232298Y-57526679D01*
X128723505Y-57198465D01*
X128936723Y-56879362D01*
X128997697Y-57009198D01*
X129425956Y-57399485D01*
X129835990Y-57569316D01*
X130065880Y-57447995D01*
X130065880Y-56254840D01*
X130045880Y-56254840D01*
X130045880Y-56000840D01*
X130065880Y-56000840D01*
X130065880Y-53714840D01*
X130045880Y-53714840D01*
X130045880Y-53460840D01*
X130065880Y-53460840D01*
X130065880Y-52267685D01*
X130319880Y-52267685D01*
X130319880Y-53460840D01*
X130339880Y-53460840D01*
X130339880Y-53714840D01*
X130319880Y-53714840D01*
X130319880Y-56000840D01*
X130339880Y-56000840D01*
X130339880Y-56254840D01*
X130319880Y-56254840D01*
X130319880Y-57447995D01*
X130549770Y-57569316D01*
X130959804Y-57399485D01*
X131388063Y-57009198D01*
X131449037Y-56879362D01*
X131662255Y-57198465D01*
X132153462Y-57526679D01*
X132586624Y-57612840D01*
X132879136Y-57612840D01*
X133312298Y-57526679D01*
X133803505Y-57198465D01*
X134131719Y-56707258D01*
X134246972Y-56127840D01*
X134131719Y-55548422D01*
X133803505Y-55057215D01*
X133505119Y-54857840D01*
X133803505Y-54658465D01*
X134131719Y-54167258D01*
X134246972Y-53587840D01*
X134131719Y-53008422D01*
X133803505Y-52517215D01*
X133312298Y-52189001D01*
X132879136Y-52102840D01*
X132586624Y-52102840D01*
X132153462Y-52189001D01*
X131662255Y-52517215D01*
X131449037Y-52836318D01*
X131388063Y-52706482D01*
X130959804Y-52316195D01*
X130549770Y-52146364D01*
X130319880Y-52267685D01*
X130065880Y-52267685D01*
X129835990Y-52146364D01*
X129425956Y-52316195D01*
X128997697Y-52706482D01*
X128936723Y-52836318D01*
X128723505Y-52517215D01*
X128232298Y-52189001D01*
X127799136Y-52102840D01*
X127506624Y-52102840D01*
X127073462Y-52189001D01*
X126582255Y-52517215D01*
X126382880Y-52815601D01*
X126183505Y-52517215D01*
X125692298Y-52189001D01*
X125259136Y-52102840D01*
X124966624Y-52102840D01*
X124533462Y-52189001D01*
X124042255Y-52517215D01*
X123842880Y-52815601D01*
X123643505Y-52517215D01*
X123152298Y-52189001D01*
X122719136Y-52102840D01*
X122426624Y-52102840D01*
X121993462Y-52189001D01*
X121502255Y-52517215D01*
X121302880Y-52815601D01*
X121103505Y-52517215D01*
X120612298Y-52189001D01*
X120179136Y-52102840D01*
X119886624Y-52102840D01*
X119453462Y-52189001D01*
X118962255Y-52517215D01*
X118762880Y-52815601D01*
X118563505Y-52517215D01*
X118072298Y-52189001D01*
X117639136Y-52102840D01*
X117346624Y-52102840D01*
X116913462Y-52189001D01*
X116422255Y-52517215D01*
X116222880Y-52815601D01*
X116023505Y-52517215D01*
X115532298Y-52189001D01*
X115099136Y-52102840D01*
X114806624Y-52102840D01*
X114373462Y-52189001D01*
X113882255Y-52517215D01*
X113682880Y-52815601D01*
X113483505Y-52517215D01*
X112992298Y-52189001D01*
X112559136Y-52102840D01*
X112266624Y-52102840D01*
X112046472Y-52146631D01*
X111378201Y-51478360D01*
X111335799Y-51414901D01*
X111084407Y-51246926D01*
X110862722Y-51202830D01*
X110862717Y-51202830D01*
X110787870Y-51187942D01*
X110713023Y-51202830D01*
X62414576Y-51202830D01*
X62339728Y-51187942D01*
X62264880Y-51202830D01*
X62264876Y-51202830D01*
X62091333Y-51237350D01*
X62043190Y-51246926D01*
X61856146Y-51371906D01*
X61791799Y-51414901D01*
X61749399Y-51478357D01*
X59580531Y-53647226D01*
X59517072Y-53689628D01*
X59478537Y-53747300D01*
X59246892Y-53638514D01*
X59017000Y-53759181D01*
X59017000Y-54953000D01*
X59037000Y-54953000D01*
X59037000Y-55207000D01*
X59017000Y-55207000D01*
X59017000Y-55227000D01*
X58763000Y-55227000D01*
X58763000Y-55207000D01*
X58743000Y-55207000D01*
X58743000Y-54953000D01*
X58763000Y-54953000D01*
X58763000Y-53759181D01*
X58533108Y-53638514D01*
X58008642Y-53884817D01*
X57819961Y-54091855D01*
X57798157Y-53982235D01*
X57657809Y-53772191D01*
X57447765Y-53631843D01*
X57200000Y-53582560D01*
X55500000Y-53582560D01*
X55252235Y-53631843D01*
X55042191Y-53772191D01*
X54901843Y-53982235D01*
X54852560Y-54230000D01*
X54852560Y-55930000D01*
X54901843Y-56177765D01*
X55042191Y-56387809D01*
X55252235Y-56528157D01*
X55297619Y-56537184D01*
X55279375Y-56549375D01*
X54951161Y-57040582D01*
X54835908Y-57620000D01*
X50710000Y-57620000D01*
X50710000Y-50710000D01*
X134290000Y-50710000D01*
X134290001Y-132390000D01*
X134290001Y-132390000D01*
G37*
X134290001Y-132390000D02*
X50710000Y-132390000D01*
X50710000Y-57620000D01*
X54835908Y-57620000D01*
X54951161Y-58199418D01*
X55279375Y-58690625D01*
X55577761Y-58890000D01*
X55279375Y-59089375D01*
X54951161Y-59580582D01*
X54835908Y-60160000D01*
X54951161Y-60739418D01*
X55279375Y-61230625D01*
X55577761Y-61430000D01*
X55279375Y-61629375D01*
X54951161Y-62120582D01*
X54835908Y-62700000D01*
X54951161Y-63279418D01*
X55279375Y-63770625D01*
X55577761Y-63970000D01*
X55279375Y-64169375D01*
X54951161Y-64660582D01*
X54835908Y-65240000D01*
X54951161Y-65819418D01*
X55279375Y-66310625D01*
X55577761Y-66510000D01*
X55279375Y-66709375D01*
X54951161Y-67200582D01*
X54835908Y-67780000D01*
X54951161Y-68359418D01*
X55279375Y-68850625D01*
X55577761Y-69050000D01*
X55279375Y-69249375D01*
X54951161Y-69740582D01*
X54835908Y-70320000D01*
X54951161Y-70899418D01*
X55279375Y-71390625D01*
X55577761Y-71590000D01*
X55279375Y-71789375D01*
X54951161Y-72280582D01*
X54835908Y-72860000D01*
X54951161Y-73439418D01*
X55279375Y-73930625D01*
X55577761Y-74130000D01*
X55279375Y-74329375D01*
X54951161Y-74820582D01*
X54835908Y-75400000D01*
X54951161Y-75979418D01*
X55279375Y-76470625D01*
X55577761Y-76670000D01*
X55279375Y-76869375D01*
X54951161Y-77360582D01*
X54835908Y-77940000D01*
X54951161Y-78519418D01*
X55279375Y-79010625D01*
X55577761Y-79210000D01*
X55279375Y-79409375D01*
X54951161Y-79900582D01*
X54835908Y-80480000D01*
X54951161Y-81059418D01*
X55279375Y-81550625D01*
X55577761Y-81750000D01*
X55279375Y-81949375D01*
X54951161Y-82440582D01*
X54835908Y-83020000D01*
X54951161Y-83599418D01*
X55279375Y-84090625D01*
X55577761Y-84290000D01*
X55279375Y-84489375D01*
X54951161Y-84980582D01*
X54835908Y-85560000D01*
X54951161Y-86139418D01*
X55279375Y-86630625D01*
X55577761Y-86830000D01*
X55279375Y-87029375D01*
X54951161Y-87520582D01*
X54835908Y-88100000D01*
X54951161Y-88679418D01*
X55279375Y-89170625D01*
X55770582Y-89498839D01*
X56203744Y-89585000D01*
X56496256Y-89585000D01*
X56929418Y-89498839D01*
X57420625Y-89170625D01*
X57620000Y-88872239D01*
X57819375Y-89170625D01*
X58310582Y-89498839D01*
X58743744Y-89585000D01*
X59036256Y-89585000D01*
X59469418Y-89498839D01*
X59960625Y-89170625D01*
X60288839Y-88679418D01*
X60404092Y-88100000D01*
X60288839Y-87520582D01*
X60271746Y-87495001D01*
X63177840Y-87495001D01*
X81154590Y-105471752D01*
X81196991Y-105535209D01*
X81448383Y-105703184D01*
X81670068Y-105747280D01*
X81670072Y-105747280D01*
X81744920Y-105762168D01*
X81819768Y-105747280D01*
X102165050Y-105747280D01*
X102130302Y-105761673D01*
X101951673Y-105940301D01*
X101855000Y-106173690D01*
X101855000Y-106864250D01*
X102013750Y-107023000D01*
X103213000Y-107023000D01*
X103213000Y-107003000D01*
X103467000Y-107003000D01*
X103467000Y-107023000D01*
X103487000Y-107023000D01*
X103487000Y-107277000D01*
X103467000Y-107277000D01*
X103467000Y-107297000D01*
X103213000Y-107297000D01*
X103213000Y-107277000D01*
X102013750Y-107277000D01*
X101855000Y-107435750D01*
X101855000Y-108126310D01*
X101951673Y-108359699D01*
X102130302Y-108538327D01*
X102291033Y-108604904D01*
X102269375Y-108619375D01*
X101941161Y-109110582D01*
X101825908Y-109690000D01*
X101941161Y-110269418D01*
X102269375Y-110760625D01*
X102567761Y-110960000D01*
X102269375Y-111159375D01*
X101941161Y-111650582D01*
X101825908Y-112230000D01*
X101941161Y-112809418D01*
X102269375Y-113300625D01*
X102567761Y-113500000D01*
X102269375Y-113699375D01*
X101941161Y-114190582D01*
X101825908Y-114770000D01*
X101941161Y-115349418D01*
X102269375Y-115840625D01*
X102567761Y-116040000D01*
X102269375Y-116239375D01*
X101941161Y-116730582D01*
X101825908Y-117310000D01*
X101941161Y-117889418D01*
X102269375Y-118380625D01*
X102760582Y-118708839D01*
X103193744Y-118795000D01*
X103486256Y-118795000D01*
X103919418Y-118708839D01*
X104410625Y-118380625D01*
X104610000Y-118082239D01*
X104809375Y-118380625D01*
X105300582Y-118708839D01*
X105733744Y-118795000D01*
X106026256Y-118795000D01*
X106459418Y-118708839D01*
X106950625Y-118380625D01*
X107278839Y-117889418D01*
X107394092Y-117310000D01*
X107278839Y-116730582D01*
X106950625Y-116239375D01*
X106652239Y-116040000D01*
X106950625Y-115840625D01*
X107278839Y-115349418D01*
X107394092Y-114770000D01*
X107278839Y-114190582D01*
X106950625Y-113699375D01*
X106652239Y-113500000D01*
X106950625Y-113300625D01*
X107278839Y-112809418D01*
X107394092Y-112230000D01*
X107278839Y-111650582D01*
X106950625Y-111159375D01*
X106652239Y-110960000D01*
X106950625Y-110760625D01*
X107278839Y-110269418D01*
X107394092Y-109690000D01*
X107278839Y-109110582D01*
X106950625Y-108619375D01*
X106652239Y-108420000D01*
X106950625Y-108220625D01*
X107278839Y-107729418D01*
X107394092Y-107150000D01*
X107390512Y-107132000D01*
X115541908Y-107132000D01*
X115657161Y-107711418D01*
X115985375Y-108202625D01*
X116283761Y-108402000D01*
X115985375Y-108601375D01*
X115657161Y-109092582D01*
X115541908Y-109672000D01*
X115657161Y-110251418D01*
X115985375Y-110742625D01*
X116283761Y-110942000D01*
X115985375Y-111141375D01*
X115657161Y-111632582D01*
X115541908Y-112212000D01*
X115657161Y-112791418D01*
X115985375Y-113282625D01*
X116283761Y-113482000D01*
X115985375Y-113681375D01*
X115657161Y-114172582D01*
X115541908Y-114752000D01*
X115657161Y-115331418D01*
X115985375Y-115822625D01*
X116283761Y-116022000D01*
X115985375Y-116221375D01*
X115657161Y-116712582D01*
X115541908Y-117292000D01*
X115657161Y-117871418D01*
X115985375Y-118362625D01*
X116283761Y-118562000D01*
X115985375Y-118761375D01*
X115657161Y-119252582D01*
X115541908Y-119832000D01*
X115657161Y-120411418D01*
X115985375Y-120902625D01*
X116476582Y-121230839D01*
X116909744Y-121317000D01*
X117202256Y-121317000D01*
X117635418Y-121230839D01*
X118126625Y-120902625D01*
X118326000Y-120604239D01*
X118525375Y-120902625D01*
X119016582Y-121230839D01*
X119449744Y-121317000D01*
X119742256Y-121317000D01*
X120175418Y-121230839D01*
X120666625Y-120902625D01*
X120994839Y-120411418D01*
X121110092Y-119832000D01*
X120994839Y-119252582D01*
X120666625Y-118761375D01*
X120368239Y-118562000D01*
X120666625Y-118362625D01*
X120994839Y-117871418D01*
X121110092Y-117292000D01*
X120994839Y-116712582D01*
X120666625Y-116221375D01*
X120368239Y-116022000D01*
X120666625Y-115822625D01*
X120994839Y-115331418D01*
X121110092Y-114752000D01*
X120994839Y-114172582D01*
X120666625Y-113681375D01*
X120368239Y-113482000D01*
X120666625Y-113282625D01*
X120994839Y-112791418D01*
X121110092Y-112212000D01*
X120994839Y-111632582D01*
X120666625Y-111141375D01*
X120368239Y-110942000D01*
X120666625Y-110742625D01*
X120994839Y-110251418D01*
X121110092Y-109672000D01*
X120994839Y-109092582D01*
X120666625Y-108601375D01*
X120368239Y-108402000D01*
X120666625Y-108202625D01*
X120994839Y-107711418D01*
X121110092Y-107132000D01*
X125414908Y-107132000D01*
X125530161Y-107711418D01*
X125858375Y-108202625D01*
X126156761Y-108402000D01*
X125858375Y-108601375D01*
X125530161Y-109092582D01*
X125414908Y-109672000D01*
X125530161Y-110251418D01*
X125858375Y-110742625D01*
X126156761Y-110942000D01*
X125858375Y-111141375D01*
X125530161Y-111632582D01*
X125414908Y-112212000D01*
X125530161Y-112791418D01*
X125858375Y-113282625D01*
X126156761Y-113482000D01*
X125858375Y-113681375D01*
X125530161Y-114172582D01*
X125414908Y-114752000D01*
X125530161Y-115331418D01*
X125858375Y-115822625D01*
X126156761Y-116022000D01*
X125858375Y-116221375D01*
X125530161Y-116712582D01*
X125414908Y-117292000D01*
X125530161Y-117871418D01*
X125858375Y-118362625D01*
X126156761Y-118562000D01*
X125858375Y-118761375D01*
X125530161Y-119252582D01*
X125414908Y-119832000D01*
X125530161Y-120411418D01*
X125858375Y-120902625D01*
X126349582Y-121230839D01*
X126782744Y-121317000D01*
X127075256Y-121317000D01*
X127508418Y-121230839D01*
X127999625Y-120902625D01*
X128199000Y-120604239D01*
X128398375Y-120902625D01*
X128889582Y-121230839D01*
X129322744Y-121317000D01*
X129615256Y-121317000D01*
X130048418Y-121230839D01*
X130539625Y-120902625D01*
X130867839Y-120411418D01*
X130983092Y-119832000D01*
X130867839Y-119252582D01*
X130539625Y-118761375D01*
X130241239Y-118562000D01*
X130539625Y-118362625D01*
X130867839Y-117871418D01*
X130983092Y-117292000D01*
X130867839Y-116712582D01*
X130539625Y-116221375D01*
X130241239Y-116022000D01*
X130539625Y-115822625D01*
X130867839Y-115331418D01*
X130983092Y-114752000D01*
X130867839Y-114172582D01*
X130539625Y-113681375D01*
X130241239Y-113482000D01*
X130539625Y-113282625D01*
X130867839Y-112791418D01*
X130983092Y-112212000D01*
X130867839Y-111632582D01*
X130539625Y-111141375D01*
X130241239Y-110942000D01*
X130539625Y-110742625D01*
X130867839Y-110251418D01*
X130983092Y-109672000D01*
X130867839Y-109092582D01*
X130539625Y-108601375D01*
X130241239Y-108402000D01*
X130539625Y-108202625D01*
X130867839Y-107711418D01*
X130983092Y-107132000D01*
X130867839Y-106552582D01*
X130539625Y-106061375D01*
X130241239Y-105862000D01*
X130539625Y-105662625D01*
X130867839Y-105171418D01*
X130983092Y-104592000D01*
X130867839Y-104012582D01*
X130539625Y-103521375D01*
X130048418Y-103193161D01*
X129615256Y-103107000D01*
X129322744Y-103107000D01*
X128889582Y-103193161D01*
X128398375Y-103521375D01*
X128386184Y-103539619D01*
X128377157Y-103494235D01*
X128236809Y-103284191D01*
X128026765Y-103143843D01*
X127779000Y-103094560D01*
X126079000Y-103094560D01*
X125831235Y-103143843D01*
X125621191Y-103284191D01*
X125480843Y-103494235D01*
X125431560Y-103742000D01*
X125431560Y-105442000D01*
X125480843Y-105689765D01*
X125621191Y-105899809D01*
X125831235Y-106040157D01*
X125876619Y-106049184D01*
X125858375Y-106061375D01*
X125530161Y-106552582D01*
X125414908Y-107132000D01*
X121110092Y-107132000D01*
X120994839Y-106552582D01*
X120666625Y-106061375D01*
X120368239Y-105862000D01*
X120666625Y-105662625D01*
X120994839Y-105171418D01*
X121110092Y-104592000D01*
X120994839Y-104012582D01*
X120666625Y-103521375D01*
X120175418Y-103193161D01*
X119742256Y-103107000D01*
X119449744Y-103107000D01*
X119016582Y-103193161D01*
X118525375Y-103521375D01*
X118513184Y-103539619D01*
X118504157Y-103494235D01*
X118363809Y-103284191D01*
X118153765Y-103143843D01*
X117906000Y-103094560D01*
X116206000Y-103094560D01*
X115958235Y-103143843D01*
X115748191Y-103284191D01*
X115607843Y-103494235D01*
X115558560Y-103742000D01*
X115558560Y-105442000D01*
X115607843Y-105689765D01*
X115748191Y-105899809D01*
X115958235Y-106040157D01*
X116003619Y-106049184D01*
X115985375Y-106061375D01*
X115657161Y-106552582D01*
X115541908Y-107132000D01*
X107390512Y-107132000D01*
X107278839Y-106570582D01*
X106950625Y-106079375D01*
X106459418Y-105751161D01*
X106026256Y-105665000D01*
X105733744Y-105665000D01*
X105513592Y-105708791D01*
X104307611Y-104502810D01*
X104265209Y-104439351D01*
X104013817Y-104271376D01*
X103792132Y-104227280D01*
X103792127Y-104227280D01*
X103717280Y-104212392D01*
X103642433Y-104227280D01*
X82059722Y-104227280D01*
X68576332Y-90743890D01*
X125487524Y-90743890D01*
X125657355Y-91153924D01*
X126047642Y-91582183D01*
X126572108Y-91828486D01*
X126802000Y-91707819D01*
X126802000Y-90514000D01*
X125608845Y-90514000D01*
X125487524Y-90743890D01*
X68576332Y-90743890D01*
X64082972Y-86250531D01*
X64040570Y-86187072D01*
X63789178Y-86019097D01*
X63567493Y-85975001D01*
X63567488Y-85975001D01*
X63492641Y-85960113D01*
X63417794Y-85975001D01*
X60321543Y-85975001D01*
X60404092Y-85560000D01*
X60353768Y-85307000D01*
X125414908Y-85307000D01*
X125530161Y-85886418D01*
X125858375Y-86377625D01*
X126156761Y-86577000D01*
X125858375Y-86776375D01*
X125530161Y-87267582D01*
X125414908Y-87847000D01*
X125530161Y-88426418D01*
X125858375Y-88917625D01*
X126177478Y-89130843D01*
X126047642Y-89191817D01*
X125657355Y-89620076D01*
X125487524Y-90030110D01*
X125608845Y-90260000D01*
X126802000Y-90260000D01*
X126802000Y-90240000D01*
X127056000Y-90240000D01*
X127056000Y-90260000D01*
X127076000Y-90260000D01*
X127076000Y-90514000D01*
X127056000Y-90514000D01*
X127056000Y-91707819D01*
X127285892Y-91828486D01*
X127810358Y-91582183D01*
X128197647Y-91157214D01*
X128398375Y-91457625D01*
X128889582Y-91785839D01*
X129322744Y-91872000D01*
X129615256Y-91872000D01*
X130048418Y-91785839D01*
X130539625Y-91457625D01*
X130867839Y-90966418D01*
X130983092Y-90387000D01*
X130867839Y-89807582D01*
X130539625Y-89316375D01*
X130241239Y-89117000D01*
X130539625Y-88917625D01*
X130867839Y-88426418D01*
X130983092Y-87847000D01*
X130867839Y-87267582D01*
X130539625Y-86776375D01*
X130241239Y-86577000D01*
X130539625Y-86377625D01*
X130867839Y-85886418D01*
X130983092Y-85307000D01*
X130867839Y-84727582D01*
X130539625Y-84236375D01*
X130241239Y-84037000D01*
X130539625Y-83837625D01*
X130867839Y-83346418D01*
X130983092Y-82767000D01*
X130867839Y-82187582D01*
X130539625Y-81696375D01*
X130048418Y-81368161D01*
X129615256Y-81282000D01*
X129322744Y-81282000D01*
X128889582Y-81368161D01*
X128398375Y-81696375D01*
X128386184Y-81714619D01*
X128377157Y-81669235D01*
X128236809Y-81459191D01*
X128026765Y-81318843D01*
X127779000Y-81269560D01*
X126079000Y-81269560D01*
X125831235Y-81318843D01*
X125621191Y-81459191D01*
X125480843Y-81669235D01*
X125431560Y-81917000D01*
X125431560Y-83617000D01*
X125480843Y-83864765D01*
X125621191Y-84074809D01*
X125831235Y-84215157D01*
X125876619Y-84224184D01*
X125858375Y-84236375D01*
X125530161Y-84727582D01*
X125414908Y-85307000D01*
X60353768Y-85307000D01*
X60288839Y-84980582D01*
X59960625Y-84489375D01*
X59662239Y-84290000D01*
X59960625Y-84090625D01*
X60165749Y-83783636D01*
X60222318Y-83794888D01*
X60297165Y-83780000D01*
X60297170Y-83780000D01*
X60518855Y-83735904D01*
X60770247Y-83567929D01*
X60812649Y-83504470D01*
X62409602Y-81907518D01*
X62575674Y-81907518D01*
X62956080Y-81749949D01*
X63247231Y-81458798D01*
X63404800Y-81078392D01*
X63404800Y-80666644D01*
X63247231Y-80286238D01*
X62956080Y-79995087D01*
X62686782Y-79883540D01*
X62696817Y-79881544D01*
X62948209Y-79713569D01*
X62990611Y-79650110D01*
X63308761Y-79331960D01*
X63474834Y-79331960D01*
X63855240Y-79174391D01*
X64146391Y-78883240D01*
X64303960Y-78502834D01*
X64303960Y-78091086D01*
X64146391Y-77710680D01*
X63855240Y-77419529D01*
X63474834Y-77261960D01*
X63063086Y-77261960D01*
X62682680Y-77419529D01*
X62391529Y-77710680D01*
X62233960Y-78091086D01*
X62233960Y-78257159D01*
X62085479Y-78405640D01*
X60311471Y-78405640D01*
X60404092Y-77940000D01*
X60288839Y-77360582D01*
X59960625Y-76869375D01*
X59662239Y-76670000D01*
X59960625Y-76470625D01*
X60288839Y-75979418D01*
X60404092Y-75400000D01*
X60288839Y-74820582D01*
X60271746Y-74795001D01*
X108332953Y-74795001D01*
X108407800Y-74809889D01*
X108482647Y-74795001D01*
X108482652Y-74795001D01*
X108704337Y-74750905D01*
X108955729Y-74582930D01*
X108998131Y-74519471D01*
X125597353Y-57920250D01*
X125660809Y-57877850D01*
X125777629Y-57703017D01*
X125828784Y-57626459D01*
X125856742Y-57485904D01*
X125872594Y-57406209D01*
X126183505Y-57198465D01*
X126382880Y-56900079D01*
X126582255Y-57198465D01*
X127073462Y-57526679D01*
X127506624Y-57612840D01*
X127799136Y-57612840D01*
X128232298Y-57526679D01*
X128723505Y-57198465D01*
X128936723Y-56879362D01*
X128997697Y-57009198D01*
X129425956Y-57399485D01*
X129835990Y-57569316D01*
X130065880Y-57447995D01*
X130065880Y-56254840D01*
X130045880Y-56254840D01*
X130045880Y-56000840D01*
X130065880Y-56000840D01*
X130065880Y-53714840D01*
X130045880Y-53714840D01*
X130045880Y-53460840D01*
X130065880Y-53460840D01*
X130065880Y-52267685D01*
X130319880Y-52267685D01*
X130319880Y-53460840D01*
X130339880Y-53460840D01*
X130339880Y-53714840D01*
X130319880Y-53714840D01*
X130319880Y-56000840D01*
X130339880Y-56000840D01*
X130339880Y-56254840D01*
X130319880Y-56254840D01*
X130319880Y-57447995D01*
X130549770Y-57569316D01*
X130959804Y-57399485D01*
X131388063Y-57009198D01*
X131449037Y-56879362D01*
X131662255Y-57198465D01*
X132153462Y-57526679D01*
X132586624Y-57612840D01*
X132879136Y-57612840D01*
X133312298Y-57526679D01*
X133803505Y-57198465D01*
X134131719Y-56707258D01*
X134246972Y-56127840D01*
X134131719Y-55548422D01*
X133803505Y-55057215D01*
X133505119Y-54857840D01*
X133803505Y-54658465D01*
X134131719Y-54167258D01*
X134246972Y-53587840D01*
X134131719Y-53008422D01*
X133803505Y-52517215D01*
X133312298Y-52189001D01*
X132879136Y-52102840D01*
X132586624Y-52102840D01*
X132153462Y-52189001D01*
X131662255Y-52517215D01*
X131449037Y-52836318D01*
X131388063Y-52706482D01*
X130959804Y-52316195D01*
X130549770Y-52146364D01*
X130319880Y-52267685D01*
X130065880Y-52267685D01*
X129835990Y-52146364D01*
X129425956Y-52316195D01*
X128997697Y-52706482D01*
X128936723Y-52836318D01*
X128723505Y-52517215D01*
X128232298Y-52189001D01*
X127799136Y-52102840D01*
X127506624Y-52102840D01*
X127073462Y-52189001D01*
X126582255Y-52517215D01*
X126382880Y-52815601D01*
X126183505Y-52517215D01*
X125692298Y-52189001D01*
X125259136Y-52102840D01*
X124966624Y-52102840D01*
X124533462Y-52189001D01*
X124042255Y-52517215D01*
X123842880Y-52815601D01*
X123643505Y-52517215D01*
X123152298Y-52189001D01*
X122719136Y-52102840D01*
X122426624Y-52102840D01*
X121993462Y-52189001D01*
X121502255Y-52517215D01*
X121302880Y-52815601D01*
X121103505Y-52517215D01*
X120612298Y-52189001D01*
X120179136Y-52102840D01*
X119886624Y-52102840D01*
X119453462Y-52189001D01*
X118962255Y-52517215D01*
X118762880Y-52815601D01*
X118563505Y-52517215D01*
X118072298Y-52189001D01*
X117639136Y-52102840D01*
X117346624Y-52102840D01*
X116913462Y-52189001D01*
X116422255Y-52517215D01*
X116222880Y-52815601D01*
X116023505Y-52517215D01*
X115532298Y-52189001D01*
X115099136Y-52102840D01*
X114806624Y-52102840D01*
X114373462Y-52189001D01*
X113882255Y-52517215D01*
X113682880Y-52815601D01*
X113483505Y-52517215D01*
X112992298Y-52189001D01*
X112559136Y-52102840D01*
X112266624Y-52102840D01*
X112046472Y-52146631D01*
X111378201Y-51478360D01*
X111335799Y-51414901D01*
X111084407Y-51246926D01*
X110862722Y-51202830D01*
X110862717Y-51202830D01*
X110787870Y-51187942D01*
X110713023Y-51202830D01*
X62414576Y-51202830D01*
X62339728Y-51187942D01*
X62264880Y-51202830D01*
X62264876Y-51202830D01*
X62091333Y-51237350D01*
X62043190Y-51246926D01*
X61856146Y-51371906D01*
X61791799Y-51414901D01*
X61749399Y-51478357D01*
X59580531Y-53647226D01*
X59517072Y-53689628D01*
X59478537Y-53747300D01*
X59246892Y-53638514D01*
X59017000Y-53759181D01*
X59017000Y-54953000D01*
X59037000Y-54953000D01*
X59037000Y-55207000D01*
X59017000Y-55207000D01*
X59017000Y-55227000D01*
X58763000Y-55227000D01*
X58763000Y-55207000D01*
X58743000Y-55207000D01*
X58743000Y-54953000D01*
X58763000Y-54953000D01*
X58763000Y-53759181D01*
X58533108Y-53638514D01*
X58008642Y-53884817D01*
X57819961Y-54091855D01*
X57798157Y-53982235D01*
X57657809Y-53772191D01*
X57447765Y-53631843D01*
X57200000Y-53582560D01*
X55500000Y-53582560D01*
X55252235Y-53631843D01*
X55042191Y-53772191D01*
X54901843Y-53982235D01*
X54852560Y-54230000D01*
X54852560Y-55930000D01*
X54901843Y-56177765D01*
X55042191Y-56387809D01*
X55252235Y-56528157D01*
X55297619Y-56537184D01*
X55279375Y-56549375D01*
X54951161Y-57040582D01*
X54835908Y-57620000D01*
X50710000Y-57620000D01*
X50710000Y-50710000D01*
X134290000Y-50710000D01*
X134290001Y-132390000D01*
G36*
X113882255Y-57198465D02*
X114192880Y-57406018D01*
X114192881Y-64606517D01*
X111779399Y-67020000D01*
X97259317Y-67020000D01*
X97344728Y-66962930D01*
X97387130Y-66899471D01*
X105277353Y-59009249D01*
X105340809Y-58966849D01*
X105508784Y-58715457D01*
X105552880Y-58493772D01*
X105552880Y-58493768D01*
X105567768Y-58418921D01*
X105552880Y-58344074D01*
X105552880Y-57406018D01*
X105863505Y-57198465D01*
X106062880Y-56900079D01*
X106262255Y-57198465D01*
X106753462Y-57526679D01*
X107186624Y-57612840D01*
X107479136Y-57612840D01*
X107912298Y-57526679D01*
X108403505Y-57198465D01*
X108602880Y-56900079D01*
X108802255Y-57198465D01*
X109293462Y-57526679D01*
X109726624Y-57612840D01*
X110019136Y-57612840D01*
X110452298Y-57526679D01*
X110943505Y-57198465D01*
X111142880Y-56900079D01*
X111342255Y-57198465D01*
X111833462Y-57526679D01*
X112266624Y-57612840D01*
X112559136Y-57612840D01*
X112992298Y-57526679D01*
X113483505Y-57198465D01*
X113682880Y-56900079D01*
X113882255Y-57198465D01*
X113882255Y-57198465D01*
G37*
X113882255Y-57198465D02*
X114192880Y-57406018D01*
X114192881Y-64606517D01*
X111779399Y-67020000D01*
X97259317Y-67020000D01*
X97344728Y-66962930D01*
X97387130Y-66899471D01*
X105277353Y-59009249D01*
X105340809Y-58966849D01*
X105508784Y-58715457D01*
X105552880Y-58493772D01*
X105552880Y-58493768D01*
X105567768Y-58418921D01*
X105552880Y-58344074D01*
X105552880Y-57406018D01*
X105863505Y-57198465D01*
X106062880Y-56900079D01*
X106262255Y-57198465D01*
X106753462Y-57526679D01*
X107186624Y-57612840D01*
X107479136Y-57612840D01*
X107912298Y-57526679D01*
X108403505Y-57198465D01*
X108602880Y-56900079D01*
X108802255Y-57198465D01*
X109293462Y-57526679D01*
X109726624Y-57612840D01*
X110019136Y-57612840D01*
X110452298Y-57526679D01*
X110943505Y-57198465D01*
X111142880Y-56900079D01*
X111342255Y-57198465D01*
X111833462Y-57526679D01*
X112266624Y-57612840D01*
X112559136Y-57612840D01*
X112992298Y-57526679D01*
X113483505Y-57198465D01*
X113682880Y-56900079D01*
X113882255Y-57198465D01*
G36*
X96481998Y-65655001D02*
X60321543Y-65655001D01*
X60404092Y-65240000D01*
X60301907Y-64726280D01*
X63428849Y-64726280D01*
X63546280Y-64843711D01*
X63926686Y-65001280D01*
X64338434Y-65001280D01*
X64718840Y-64843711D01*
X65009991Y-64552560D01*
X65167560Y-64172154D01*
X65167560Y-63760406D01*
X65009991Y-63380000D01*
X64718840Y-63088849D01*
X64338434Y-62931280D01*
X63926686Y-62931280D01*
X63546280Y-63088849D01*
X63428849Y-63206280D01*
X60667839Y-63206280D01*
X60682412Y-63184470D01*
X62005732Y-61861151D01*
X73216962Y-61861151D01*
X73291809Y-61876039D01*
X73366656Y-61861151D01*
X73366661Y-61861151D01*
X73588346Y-61817055D01*
X73839738Y-61649080D01*
X73882140Y-61585621D01*
X75462752Y-60005011D01*
X101825170Y-60005011D01*
X101900017Y-60019899D01*
X101974864Y-60005011D01*
X101974869Y-60005011D01*
X102171000Y-59965998D01*
X96481998Y-65655001D01*
X96481998Y-65655001D01*
G37*
X96481998Y-65655001D02*
X60321543Y-65655001D01*
X60404092Y-65240000D01*
X60301907Y-64726280D01*
X63428849Y-64726280D01*
X63546280Y-64843711D01*
X63926686Y-65001280D01*
X64338434Y-65001280D01*
X64718840Y-64843711D01*
X65009991Y-64552560D01*
X65167560Y-64172154D01*
X65167560Y-63760406D01*
X65009991Y-63380000D01*
X64718840Y-63088849D01*
X64338434Y-62931280D01*
X63926686Y-62931280D01*
X63546280Y-63088849D01*
X63428849Y-63206280D01*
X60667839Y-63206280D01*
X60682412Y-63184470D01*
X62005732Y-61861151D01*
X73216962Y-61861151D01*
X73291809Y-61876039D01*
X73366656Y-61861151D01*
X73366661Y-61861151D01*
X73588346Y-61817055D01*
X73839738Y-61649080D01*
X73882140Y-61585621D01*
X75462752Y-60005011D01*
X101825170Y-60005011D01*
X101900017Y-60019899D01*
X101974864Y-60005011D01*
X101974869Y-60005011D01*
X102171000Y-59965998D01*
X96481998Y-65655001D01*
G04 #@! TD*
M02*
